<mxfile host="www.draw.io" modified="2020-02-06T02:28:47.065Z" agent="Mozilla/5.0 (Windows NT 6.1; Win64; x64) AppleWebKit/537.36 (KHTML, like Gecko) Chrome/74.0.3729.108 Safari/537.36" etag="NEDyHLFK_PiYCsSftct8" version="12.6.5" type="github">
  <diagram id="yOdqadIXg3ji2YfjMPGf" name="第 1 页">
    <mxGraphModel dx="2241" dy="1918" grid="1" gridSize="10" guides="1" tooltips="1" connect="1" arrows="1" fold="1" page="1" pageScale="1" pageWidth="827" pageHeight="1169" math="0" shadow="0">
      <root>
        <mxCell id="0"/>
        <mxCell id="1" parent="0"/>
        <mxCell id="H1NwQvP5Uodep2kadqOq-1" value="" style="shape=image;verticalLabelPosition=bottom;labelBackgroundColor=#ffffff;verticalAlign=top;aspect=fixed;imageAspect=0;image=data:image/png,iVBORw0KGgoAAAANSUhEUgAAA64AAAKHCAYAAACB0hU4AAAgAElEQVR4AezdCVhc1dkH8P+wDTAwwLDvS9ghgWyE7CbGGJfEvWpd+rlVW2td26/a2latta21rVqr/dxqta3auLRqXKJGo9nIHhICgZAECBD2dWZgGOZ73kMGSSQGEpYZ5n+fZx5muXPvub8zIbzznvMejV6vt4EbBShAAQpQgAIUoAAFKECBkwiUlpchLDj0JHv1vZy2/UGUTP35Mfum7/oVoAGKJ//smOcz9vwae7PuO+a5Ez2oa6wfeht2PIQgT188GX8pZvrFn+iQ2NxZgdur3kSz1YS9mfeecD/7C0Ntw5OH1wAaDW6LOsP+VqRtfQAl03+hHg9qtPMhFOfc37//ie4MtQ2DneNEx7Q/P9T+GGob5Lh/ry/AW007cXnINHWaFxs24cO076v7EpAuLH4CP406C3tNdVjdXoyfRy7DLN1XfeZhbxx/UoACFKAABShAAQpQgAIUGCkBjZvma4cqnnJswNq/g+br+/a/dhp3pA0tVhOuOfBKX8Cc/dOvHS2j6BH1mnphhJtxW/QiPFn9Gf5c8zl+ELmw79wDXQa77sGe+1qrh/7EYP1w0nePcBvkfNeG5qmb/dx/qV9nv4taSxuCPXU4W5+hbneEH7Xq3wNg4DoAg3cpQAEKUIACFKAABShAgZERmO4fh/TCh/uDQo2kWu2B4cDASANM840ZmZMed5QTBsoD9htKhnXA7sO+K9nWJ2s+h2Q+Jfsqt/SdD6njSFCpstDy6KjJNL/YYZ/jm94w3T/+xP0w4LzqGEf7Z7T6Y2A7Z/jFYebex/qe0mhwaVDOwJe/dl/DocJfM+ETFKAABShAAQpQgAIUoMAgAsMZKjzI20fkqeEMTx2REw5yELahD2UsHdwG6Qc+RQEKUIACFKAABShAAQpQgAIUcBgBBq4O0xVsCAUoQAEKUIACFKAABShAAQoMJsDAdTAVPkcBClCAAhSgAAUoQAEKUIACDiPAwNVhuoINoQAFKEABClCAAhSgAAUoQIHBBBi4DqbC5yhAAQpQgAIUoAAFKEABClDAYQRYVdhhuoINoQAFKEABClCAAhSggGMLrN34pWM3kK2bsAJDWse1tbV1wgLwwihAAQpQgAIUoAAFKEABClDAsQU4VNix+4etowAFKEABClCAAhSgAAUo4PICDFxd/iNAAApQgAIUoAAFKEABClCAAo4twMDVsfuHraMABShAAQpQgAIUoAAFKODyAgxcXf4jQAAKUIACFKAABShAAQpQgAKOLcDA1bH7h62jAAUoQAEKUIACFKAABSjg8gIMXF3+I0AAClCAAhSgAAUoQAEKUIACji3AwNWx+4etowAFKEABClCAAhSgAAUo4PICQ1rH1eWVCEABJxCw2WywWq3o6elBb28v3N3d4enpCTc3fj/lBN3HJlKAAhSgAAUoQAEKfIMAA9dvwOFLFHAWAQlULRYLqqqqUFhYiCNHjiAhIQE5OTkICQlRQaxGo3GWy2E7KUABClCAAhSgAAUocIyARq/X2455ZpAHra2tgzzLpyhAAUcQkCzrvn37sGvXLgQEBCAoKEhlXj08PHD48GHIzylTpiA6Olrdd4Q2sw0UoAAFKEABClCAAhQYjgAD1+FocV8KOJCADAmWzOrGjRsRHByshgRLcBoZGamGCHd1deHgwYNobGxUgayPjw+Sk5P793WgS2FTKEABClCAAhSgAAUo8I0CDFy/kYcvUsDxBCQglSHBZWVl8PX1RXd3N5KSkhAaGgoJTmVOqwwLljmvEtx2dnaqALepqQlms1kNKZ42bRoMBgPnvzpe97JFFKAABShAAQpQgAKDCDBwHQSFT1HAEQVkSHBNTY26tbS0qCBU5rGmpqaqIcD2gPX4tksAK3Ng5T3l5eVq+HBgYKAKXOPj46HX61Wge/z7+JgCFKAABShAAQpQgAKOIsDA1VF6gu2gwCAC9krBdXV1qK+vVzeTyaTmq2ZmZsLLy2vIWVN7AGs0GlFQUKCysf7+/mpebEREhJobywrEg3QCn6IABShAAQpQgAIUGHcBBq7j3gVsAAUGF5Bhvm1tbWhoaFDFl2Q+a3Z2NiZPnqyGCA/+rqE/K8OGV69eDRlCLJnbxMREFbz6+fkxAzt0Ru5JAQpQgAIUoAAFKDAGAgxcxwCZp6DAcARkSHBHR4cqqiTFlQ4cOKAC1tzcXGi12uEc6qT7Sha2vb0dO3fuRHV1NWTocFxcnMrC2ufLnvQg3IECFKAABShAAQpQgAKjLMDAdZSBeXgKDFVA5qFKISUZElxaWqoKKqWkpECGBEsRJlnWZjTWYrWvASvZ3a1bt6pKxJLVtWdgvb29R+W8Q3XhfhSgAAUoQAEKUIACFGDgys8ABcZZQDKskvWUZWtkWLBUDJahuzLvVNZl1el0YxI42tshRZykCJRkfaVSsSy1I2vDjlU7xrk7eHoKUIACFKAABShAAQcUYODqgJ3CJrmGgASKkmFtbm5GZWUl9u/fD1mmRgLEkJAQyFzT8SiWJO2S7KsEsDJ8WObWyhDiqKgoSDViZmBd4/PJq6QABShAAQpQgAKOJMDA1ZF6g21xCQF7wCoZTcmuSqY1LCxMDQWW4bnjFbAej2+xWFTbJHCVtWMlwJZMsGSBpRox58AeL8bHFKAABShAAQpQgAKjJcDAdbRkeVwKHCcgc0m7u7tVNrOkpERlWyUAlGG40dHRKiA87i0O8VACWMm+1tbW9lc5lgJOkoWVIFuW5OFGAQpQgAIUoAAFKECB0RRg4Dqaujw2BQBI5V5Z2kbWT5XhwJLBlOrAMhxYht/KHNLRKLo00vgSeMvcVxk+LNlXGcYcExOjsrCenp7qsTNcx0i78HgUoAAFKEABClCAAqMvwMB19I15BhcWkKBVgrzi4mJVLViCVL1erwJWybS6u7s7nY4EsDLEWaofy7VJYSnJwEr1Y85/dbruZIMpQAEKUIACFKCAUwgwcHWKbmIjnVFA5rDKGqwyh1WCPZkTmpSUpDKtkq105uykfdizZF+lsJTM25XleiSDLMOeGcA64yeWbaYABShAAQpQgAKOK8DA1XH7hi1zQgEJ6CRgLSsrUxlJexEjWdpGKvLKfFBnzLIO1hWSTZaAVQo3NTU14fDhwzCbzSpIj4yMVHNgZf1ZbhSgAAUoQAEKUIACFDhdAY/TPQDfTwEK9AnI0jaSgZQhtBLASUZVChgZDIYJFbDa+1uuT7KsEojLnF0JzGUIsdykkJME8BKwy03mwHKjAAUoQAEKUIACFKDAqQow43qqcnwfBY4KSMAq2UapvGsymVQhpuzsbLVkjAR0EyXDerIOtxehEoO6ujo1TFqGDEuWWTKwsuSPPOZGAQpQgAIUoAAFKECB4QowcB2uGPenwIBKwa2trSq7WFBQoIKyRYsWqTmskol05jmsp9vJMmRaAtiDBw/igw8+UHN7pXhTeHi4WkJHfLhRgAIUoAAFKEABClBgqAIMXIcqxf0ocDRglXVNZRiszOvcuHGjWoc1NzdXFSZy5WD1RB8QycSWl5dj06ZNajixZKNlWLFOp3OZbPSJbPg8BShAAQpQgAIUoMDQBBi4Ds2Je1FAFSKSgFWyiBKESeA1b948NQxWMohSKZjb4AL2KsSyLNC2bdvU3Fh7dlqGU9NucDc+SwEKUIACFKAABSjQJ8DAlZ8ECpxEwJ5hlaJLhw4dUgFsQkKCmrMpVYNZeOgkgEdflsyrFK2SdV+liJUsFSSZ1+TkZAQEBEAqEHMI8dAsuRcFKEABClCAAhRwNQEGrq7W47zeIQnYCw1J4aUjR45g3759KqiKjY1FcHCwGh48YoWGuuqx9wCQnB4MN6sJ5i4ddGoVmW4YjRbYbN7Q6dyPttuI2poeBOu7cMToj+gQb9isRtQfqIZXfDKCvE50eT1oPliBbkMUQrQd2HfEExlxASfa+ejzPWitOgyzLhiGAD94jlBCWWyNRqNa31bWuK2oqFDzXu1r3EoA6yoFrU7SAXyZAhSgAAUoQAEKUOCogLtWq/3lyTTuvffek+3C1ykwYQRkXVLJCsqSLjI3UwowhYaGIjo6GjExMWp5m5HMstqOrMLdj9dj6Tlx6KrbgjWvbMPe6mIUF2/B59sOocMWjsTwbpRv3oxNmz/AO+/vQ23pe3hhVSV6jRZoevbhiR89hB29Pmg+cBD1bW4ICDfA2x0w1hWirK4DHt7dWPfUv1ATkYJ47wq8tqoI9TUdCIiLgt8xdZK60FR6CLW1ZngaNCh87U2UuxsQGRUK7xEKXGUesFQa1uv1Kssq9+U5CWLFWgJbeSzBK4cQT5h/VrwQClCAAhSgAAUocFoCx/zJelpH4psp4OQCPT09kKC1pqZGDQmWIcKyhIsEWJJptQdYI3+ZGiBCj87dK1HapkPBypdRMykQMDeiwjMZ58TlYbGlF+VfvoFnVlciY0YO1u5qhq3lVfxkbTF+dFMSyt0scH/9MbyLKbjkvIsQN3kSAtGMXZs/wvauVJw9OxLNoTMxJzQAXsHR+OGi9/GDP2xD2MxYtFV4IjU1SF1WT/sB7P7sM1RrZ2JRcgoQkorEsED4qt8UZhzaXYuwrHj4aDSnzSDBqQwRFl/5okDcm5ubsWvXLvV8YmLihF0D97TxeAAKUIACFKAABSjgYgIcKuxiHc7LPVZAsntSOEiC1oaGBpVhtVqtaliwBFQpKSnw8fE59k0j9Mh0cC1e+WAn2mu34rXtAbj7Sn/0xiyE9UAEVizRYON/V2GH22TMXX4m5kSYULZuCzYUbUev1oDWlhScv7AYTxSm47K4COg1W/FZsz8yshZhySQ1zhiWhlKs21qInfvr0dtUiJredATrbPBy6zl6BW5wc4tB/KRUzD9/MoLRg/qiDVi/aQ0O9vijt8OMA7sq4BMVgdAQPdwRjNAgD6SffQVmRI5Q+nWApbhLxrWsrAzypYHMhw0KClJZbpkLK1luCXa5UYACFKAABShAAQq4ngAzrq7X57ziAQISsEqhIFmHVYIjyapKdlWGBY/YHNYB5xt412btgrGzEx2dZvRa/RCetAR1TdXY9+ZK3P9ZNda+vxU9Cd+CISEeaYYoWD1jkJ24H6V1B7FmeyAydXuRlX8Jknp24pndvXAz1WDtlt9gZ3wWzjjnQkz2C8eMLBOamhvx+ef1CJ2bgh5zF7qNXYDNhtaizejM/ikuyQuHTRpmakWrxQe+0dmIqNmDfR1dMJlNsBk70dHhBneEYcHyTPjYRid4lKHBBoMBM2fOVHNgJYCVTKxUcJZ5r9OnT1d9NNCQ9ylAAQpQgAIUoAAFXEOAgatr9DOv8gQCLS0tWLt2rVriZsmSJcjKyoJUCh6LzJ7vpLNw8Yx1ePyfbehod8eHB5twZnwgvDx1iIjOxfK7p6Gj2g1dbYC7JhBpeYEA0pBhqkC6/8coNM2A96cP4dGgMzA9az4WWTfjTzs/R6U+F8s8NPDS6+Gln4KLr4hCkMYLFQW7UGSxwHTUwpK2EOd+KxsxYX4StaL2SDXqWnyQe8bFCPW6GEAb1r2xGUG5mUiZFImuPStR4JaOaZGjE7jau0jsZamhyZMnq6HD69atw9atW1VW/Oyzz7bvxp8UoAAFKEABClCAAi4kwMDVhTqbl/p1AVl+JSQkBBEREao4kFS4lbmVEjiN+lb5Gda3pyAnuwmbOiORNyUfmQGHULvsMsyZo0XR7hYYpmtgmJqKQM96bP3LC3h1w27UAug6vBnlXunwKlmFnSH7cHG6AR8EBCNywQ24LS8XWWFflRc27i+CMSoRyfl6NBWsh3t6Opo+/hvaz74FU0M9j16mO3yCIhBvPIKCV3+HV1cXArCgvqIRXoYA6P18kLZwGTLCtqI1YQ4Cx2DIbltbm5pr7Ofnh+zsbJV1HfU+4QkoQAEKUIACFKAABRxSgIGrQ3YLGzVWAjKPdc6cOWo+5ZYtW9TSN5KFlWBWAlitVjt6TQlIwqy5cxGbq8XH5nhcmG5ATc0hwFOHAG0n9lfvQEngMnw/QP6Z6hCdfwbOjctC0fbt0C1fDoOvL9xw41ft89EjJDUXk8MHzMnt3I/tVZ6Ijk1HxtwgTM7xxrMPvYTwy36Lm8/MRKS3/e1eCAgIRYC3F8y9C3G5IROAEUXrS+GXGIuoSAMiM+diktYMn1FMuMp8Y1mCqLi4WM1z7ejoUPNcJfsqw4W5UYACFKAABShAAQq4pgADV9fsd171UQGZVymVbSWrN2/ePJV13bNnjyoSJMWCZJ6rLIEzKhWF9XFIAGAzHtsdlqZDKC46BPeYZHR88Rfc9MVk/OCm72DWtFmImLQdjQ2V2P7ii9jQ0QGL/a26UGRcei8eW6yHZ39gWYfNa8rRrYtHdnQAtG5t2L6qBonXXoaW1b/AjV1P4r0r0+1H6PupDcCk7FmYlC0P2xDUFdw/VNiem21uaIY2pK8K8bFvPvVHYi1Bal1dnZrfun//fpUFz8jIUPNepUAWl8Y5dV++kwIUoAAFKEABCji7AANXZ+9Btn9EBOwBrAwRlmyrrOG6b98+FURJhVuZ9yrPj2wGtgVrfnUpfvxaKTLvW9d3HfUHUL7ydbQ/+AdctSAcvbNzUF20C011ZagOyUaUpRWFpTosuvdXuDLYG30xqgVNrfuwZbcn+nOtxoP48C9f4FBXF1qqXsQDt+1CA3Jx40M/wTULU+GRkYHMrW8jO/sVhCVl4e7fPYXoXc/h4Qdfwd5+0VRc+J0zgH89jk+Ly9F29PnFS3+AC+69BWeG9u94ynekqrPJZFIVncX80KFDCA4OVl8iSEVh+eJA+oYbBShAAQpQgAIUoIBrC3A5HNfuf179CQQkAygBlawtKlVtu7u7MX/+fJUFlGBKlmY5/a0X5pY6NBmt8AmKRJCPBlaLCZ3NRrgFGuDn1bfkjM3ShW6bGzw8PeFu60Jbey98/Lzh6W5PrcqSPrJ8jAa+vkfbZeuBqa0LvRrA2mOC0dQFK7TQhwTBT+uuAt7erjbUNLTD3cMLeoMBHt0daGkZkMWFJ/z0vrCZjTB1W9B79IJ9fPXw1fvD+zTjSflCwGg0QrKr27ZtU2vm5ubmqp+S4WaG9fQ/YTwCBShAAQpQgAIUmCgCDFwnSk/yOkZFQOZcStBaWVmJDRs2qHmXc+fOxaRJk9Rar2NRfXhULmwcDypZ1q6uLhQVFWH16tVqrVxZAicsLEx9IcCAdRw7h6emAAUoQAEKUIACDirAwNVBO4bNciwByQ7KHMzDhw+rwkESXM2YMaM/2OJw1pP3l6yZazabUVJSgh07dqi5q/a1WWWINg1Pbsg9KEABClCAAhSggKsKMHB11Z7ndQ9bQDKFEng1NTVBlmqRIk4SbMnar9HR0ZyPeQJRCfrFrbS0FGVlZZBKzpKxts8bFkNmrk+Ax6cpQAEKUIACFKAABZQAA1d+ECgwTAH7UNcDBw6oALahoQGBgYFISEhQFYplDqysD+vKmxhJwCrzhKVSsAStMm9VKjjLkODY2FjOYXXlDwivnQIUoAAFKEABCgxTgIHrMMG4OwUGCkhgJllEmQcrQ4nlZ2Zmplp7VCoQu9rwVwlYZUiwrMVaX1+vhgUbDAbIXOGoqKj+pYUGGvI+BShAAQpQgAIUoAAFTibAwPVkQnydAkMQkKGwsnxOVVWVWhNWAjgJYGU4rCtUyJXrleBUii5JJeaDBw8qNQnss7Oz1VDqkanEPITO4C4UoAAFKEABClCAAhNOgIHrhOtSXtB4CkjWtby8XK1H6ufnp4YMJyUlITw8fEIPH5ZhwRUVFap4ldyXmwydlmuXwJ0bBShAAQpQgAIUoAAFTkeAgevp6PG9FBhEQLKPEsDu2rVLDZeVeZ0yB1bmdQYHB0+oQkQyLPjIkSMqaLUPlZZgVYJWmevLokuDfED4FAUoQAEKUIACFKDAsAUYuA6bjG+gwMkFJHiV+a7t7e1q+LAUcJKhsj4+PoiPj0dISIhTz3+VjKosDSTzWGWYtAwJjouLQ2RkJHx9fbnG7ck/ItyDAhSgAAUoQAEKUGAYAq5d+nQYUNyVAsMRkEyjFGeS6sISyEVERKh5n5KdlEBPAj4J8oKCgpyquq4E5BKwSiDe2Nio5rXKUkBSeEkyrHLNzLIO55PCfSlAAQpQgAIUoAAFhiLAwHUoStyHAqcoIFWFJXCVgE5+SrVdWUanurpaDSeWiruSfZUA1pEDPsmwyrI2ra2tah1bybCGhoaqoksyl1cyydwoQAEKUIACFKAABSgwWgIcKjxasjwuBQYRkMq7ErzKfFCpQtzc3KyysZK1lPmvEgA6UgArc1ilrZIhloBbgtepU6eqYlMSiDtaewch51MUoAAFKEABClCAAhNAgIHrBOhEXoLzCdgD2La2Nuzfv1+tBTtr1iyEhYU5xBI6VqtVDWluaWlRQ5xlrdqcnBwVsEqWWCoFO1KA7XyfALaYAhSgAAUoQAEKUGA4Agxch6PFfSkwwgISwEoRp6amJhQXF2P16tU499xzkZubq9aDHa/gUOawrl27Vs1nnTFjBpKTkyHVkaXA1Hi1aYTpeTgKUIACFKAABShAAScSYODqRJ3Fpk5cAQlgZUhubW0tKisrVcCYkZGB7OzsMZs/al/Gp6CgQFVCTklJUXNYZQ6uDAtmwDpxP3+8MgpQgAIUoAAFKODoAgxcHb2H2D6XEpAhulIASaoPV1VVqbmliYmJKoCV4FGKPY3kJsGqzGOVjK+sOyvnlTVYpUqwFF/S6XROVfV4JG14LApQgAIUoAAFKEABxxFg4Oo4fcGWUKBfQIYPS0GkmpoalYmVqr4xMTEqAyoFkWSZndPJgNrXmTUajdi7dy9krq1UB/b391fnkHmsbm5u/e3hHQpQgAIUoAAFKEABCoynAAPX8dTnuSlwEgH7MjQyhFiqEctjKeAUHx+vhhDLnNPhbDIkWY4hgfGOHTvUT8niyvxVCYxlWPDpBMTDaQv3pQAFKEABClCAAhSgwFAFGLgOVYr7UWAcBSRDWl5erpakkcBSr9ermwSwErxKdvSbAk77kGAJfisqKtRwZMmyylDg9PR0VS34m94/jpfOU1OAAhSgAAUoQAEKUAAMXPkhoIATCcgcWBk+LGuqms1maLVaNR9VsqVyf7DgU4JWmTdbXV2t1mHt6uqCHGfu3LlqaDCHBDvRB4BNpQAFKEABClCAAi4q4OGi183LpoBTCsiwXglSw8PDVSAqS9ZIANve3o6IiAjI3FQJYO2byWRSga4MNW5sbFRPz549G8HBwYMGufb38ScFKEABClCAAhSgAAUcSYAZV0fqDbaFAsMQkKypBK0SkMoasN7e3mreqwSlUmRJ1mKVgLalpQVeXl5qLVYJbGU/ZlmHAc1dKUABClCAAhSgAAXGXYCB67h3ARtAgVMXsM9dlQBVhhDLPFgZLiyZVqlKPGnSJKSlpSEoKEitxTrcYk6n3jK+kwIUoAAFKEABClCAAiMnwKHCI2fJI1FgzAUkSJVgVAJTyaTKz8rKSrz11lvq/tSpUxEYGKj2GWz+65g3mCekAAUoQAEKUIACFKDAKQgwcD0FNL6FAo4mIEGpr6+vGirc09Ojii/JczJsWObFcqMABShAAQpQgAIUoIAzC7g5c+PZdgpQ4FgBCVZlPiuHBB/rwkcUoAAFKEABClCAAs4twMDVufuPracABShAAQpQgAIUoAAFKDDhBRi4Tvgu5gVSgAIUoAAFKEABClCAAhRwbgEGrs7df2w9BShAAQpQgAIUoAAFKECBCS/AwHXCdzEvkAIUoAAFKEABClCAAhSggHMLMHB17v5j6ylAAQpQgAIUoAAFKEABCkx4AQauE76LeYEUoAAFKEABClCAAhSgAAWcW4CBq3P3H1tPAQpQgAIUoAAFKEABClBgwgswcJ3wXcwLpAAFKEABClCAAhSgAAUo4NwCDFydu//YegpQgAIUoAAFKEABClCAAhNegIHrhO9iXiAFKEABClCAAhSgAAUoQAHnFmDg6tz9x9ZTgAIUoAAFKEABClCAAhSY8AIMXCd8F/MCKUABClCAAhSgAAUoQAEKOLcAA1fn7j+2ngIUoAAFKEABClCAAhSgwIQXYOA64buYF0gBClCAAhSgAAUoQAEKUMC5BRi4Onf/sfUUoAAFKEABClCAAhSgAAUmvIDHhL9CXiAFJrhAb28vWltbYbVa1ZU2NTXBZDLB09MTDQ0NcHd3h7e3N3x9feHmxu+qJvjHgZdHAQpQgAIUoAAFJqQAA9cJ2a28KFcSsFgsWLt2LdatWwd70FpUVKQC16qqKiQkJGDx4sWYNm0afHx8XImG10oBClCAAhSgAAUoMEEEGLhOkI7kZbiugEajgdzWrFmDXbt2KQh79rWwsBDLly/HokWL1D6uq8QrpwAFKEABClCAAhRwZgGOG3Tm3mPbKQCozOr06dMxY8YMBAYGoru7Ww0bluA1MjISs2fPRmpqKrRaLb0oQAEKUIACFKAABSjglAIMXJ2y29hoCnwlINnWkJAQXHTRRcjKyuqfxyrzWefMmaOGCUtAK/txowAFKEABClCAAhSggDMKMHB1xl5jmylwnIBkUyVozcnJQXBwsCrIFB0djby8PCQmJsLLy+u4d/AhBShAAQpQgAIUoAAFnEeAgavz9BVbSoFvFJCs66WXXor58+erIcNyf8WKFaqa8De+kS9SgAIUoAAFKEABClDAwQVYnMnBO4jNG10BWTbmwIEDMBqNo3uiMTi6zWZDY2OjqhwcGhoKnU6H6upq1NfXT4hhwjLUWa/XIzk5eUJczxh8JEb0FJWVleqzJMsvcXNcAVkGS+a0s4K44/YRW0YBClCAAqcmwMD11Nz4rgkiIIHdo48+qooZyTqnzr5JYaaWlhaEhYWhuLgYdXV1EyLIk6C8o6NDDYN+7LHHVEEqZ+8rZ2v/ypUrUVBQAD8/PzUU3dna7wrt7enpUV9WPfHEE+oLHhIIem8AACAASURBVFe4Zl4jBShAAQq4jgADV9fpa17pIAKScT106BAuu+wyZvIG8XGUpyTLt2HDBrVWrQSx3MZeoKKiAgaDAUuXLlXZ/LFvAc94MoHW1lbcfffdE2IEycmula9TgAIUoIDrCTBwdb0+5xUfJyCFi/Lz85GbmzshspPHXd6EeChL+7S3t+OLL76YENfjrBeRlJSk1gSWIdvcHE9ApgW4u7uDX+44Xt+wRRSgAAUocPoCLM50+oY8AgUoQAEKUIACFKAABShAAQqMogAD11HE5aEpQAEKUIACFKAABShAAQpQ4PQFGLieviGPQAEKUIACFKAABShAAQpQgAKjKMDAdRRxeWgKUIACFKAABShAAQpQgAIUOH0BBq6nb8gjUIACFKAABShAAQpQgAIUoMAoCjBwHUVcHpoCFKAABShAAQpQgAIUoAAFTl+Ay+GcviGPQAEKUIACFKAABShAAQocFZBl7EwmE1paWtDd3Q2tVgtZk13uyzKEHh6uGYL09PTAYrGo69doNBAnb29v+Pn5wcfHRy1pxg/RiQVc81NzYg++QgEKUOD0BWw2WC1G9LjroHU//cPxCBSgAAUoQAFHF5CgTNZcNxqNKkiVoLWoqAjNzc0IDQ1VQWtDQwOCgoJUoObo1zMa7evo6IDcdDqdCl7NZrOyiY6ORnBwsArqJYC1vz4abXDmYzJwdebeY9spQIFxEejt7kBDQyPajJZBz2+zGNG4+98oT70XV+T4gnMyBmXikxSgAAUoMAEEJGsowWpTUxO2bNmCAwcOIDw8HPn5+VixYoXKtkp2UTabzQb7/Qlw6ad0CccbtLW1obCwEJs3b4YE/7GxscjOzkZISAh8fX2ZhR2gzMB1AAbvUoACFBiKgLliPf7viafxnw1VQE87Djdb4GUBAsID4eXuBi+/IJz7kxdxiXkXOpAP/VAOyn0oQAEKUIACTiQgQVZrays6Ozuxbds2FZBmZmZi0aJF8PT0VENgZUjwwEB14H0nutQRberxBv7+/pgxYwamTJmCrq4uVFVV4fPPP1eBa3p6usrIMgPb1wUMXEf0o8iDUYACriDgm7wUP3tiKX7SWoFdJTvx8UENQss7sfiaXJSVVKFX4w5dsh7psfmuwMFrpAAFKEABFxKQjKHMXz18+LDKFMow15ycHDW8VYIwmbN5fHDmQjzDvlQ3NzdlJm4yD1iyrDK0WjLZBQUFKoBNTExEWFiYem3YJ5hAb2DgOoE6k5dCAQqMlYARtdt3Yl/JFvynKQ5XXpCDmsadQMNuvPj8SnRrPOG/xAzjjKlYkB0Or7FqFs9DAQpQgAIUGEUBCaZkjmZ5ebm6RUREID4+Xs3PlCwrt9MTkCBWsqtykyJOU6dORWNjI8rKytRQ7EmTJiEgIOD0TuLE72bg6sSdx6ZTgALjIdCDpvJS7Pz4A5SGzMetl5+BpOAuFGYmwC8tAy+/cjFsddXYW1+It8saMYeB63h0Es9JAQpQgAIjLCDZQCm4JEFrfX09IiMjkZWVBb1ezwzrCFvL4eSLgOTkZBgMBlRXV6u5wzI0e/r06cp8FE7p8Idk4OrwXcQGUoACjiXQi64OLRJXXI7I+iKseeUPWNl1tIWbPpTKE9A0NiP85l/gpxf6OFbT2RoKUIACFKDAKQjI8GApIrRv3z4VtEoBobS0NJcfunoKlMN+iwSuMgRbst0lJSVq+PDcuXNdckg2i10O++PDN7iuQBvKV6/Emvc34ohxcAVrVzvKvvwTth0BIGt1mcywxzQwd8HcbUHPYG/ttaCp/Ev8eXPtYK8e85yxdCuKGozosdmftqKz9QA2ry6Dyf6U+tmK5pZ2dHYe8+Q3POiBpduMLrN9ly40NLbDbB7Q4vY9+PfaSvsO6mdPWwNq9u/F4f73AWjai5c37cWBlv6rP+Y9gz3oqtmB3WWlqDuB7WDvGZ/nvBA5JR2paTHo3LEH5bV1MFqt6j8U+U9Fbi0N5Wht7++g8Wkmz0oBClCAAhQYIQEpGiTVgmtraxEXF8egdYRch3oYyb5KoSapNixDhzdu3KgqEA/1/RNlP2ZcJ0pP8jrGQKADFaU1qNEakHmCr3ys3RZUby+DNROAxoSaLavx5j9Xo0Ra1x2GvMu+heVnZiHk+GkgvT1oKfoSf329CRe/tAJRfVXjB70mt+Zd+N3jf4NXTw/c1X69MLtZ4Zb2XfzlrIFv8UDrvjfwRqEH5iw5BzPjzdj48DN4q6oO9thQqw/Gwu/ci4sydQCMqFr3Ad56ZQ1K1aRMC1oN83DrDSuQn2SAWo60vQTbNkZj2YJY+B89laarCdtWv4wXNzcj1D6Zs+0Q9qVdi6y4BCQG9u3YsvUF3Pvc5oENPOZ+aOIkJKVMwxzfYBh8DXCOX05pWHzpdORNT+n3sPVaUfnmE9gV4XvM9fEBBShAAQpQwBkFpHqwzLGUNVkzMjKQmprKTOs4dKRWq4XMcZXsd2lpqRo+HBUVpYYUj0NzxuWUzvG34bjQ8KQUsKK1vhYV+9sxKT8dKgwxTEJEUAwCvEXnMD7/+W4E3zwH6dH+RwMtL3j2xsNc+ynerkxAREc7WgMysDA3DPW7KqHVdKJ3kKDXZutFW1Ml4JaKk+XpvH2BoKSZyA33glZFkz1o665DldUX2mM6TYfQuMmYqelBhL8WbqjG3mIbJi3IR5C/FujpRvPezWh3t/8asKClrQs2n3jkz0uAFnXYvN8bXhYbqtb8CzUpyzBdAwSHhRxTbEje7h8ejtTcKZgSerQBR7bCQxcMb3fVQPWkNjQDCxf6AlYzaiu34r1tQF50CJJnpUEG1AbEZSIlOgIRgdJWZ9kK8I9HX8HTGn/0fxdhs8HacgTnTb4TiHCW62A7KUABClCAAl8XkFFEMp+1srJSVbWVOZc+PpwG83WpsXnGy8tLZbylQNb27dvVXNfAwECXmWNs/4t1bLR5Fgo4lUAvzA2FeOeJX+DTBwzwhBlN2iAk9nri+T+1oQkdOGw6B0/eMAuS+Oze/U8sv/NFtLWbEecTi7OaX8Ujb26FPvcSzIpIR8UXr+LJB9/G8x9eiwdvvxz58YF9WUwAvVYLWms/w5LJ56O6FYg+mqUclCthKS4Iuw9PvF4HU7fs4Q1D5MW4+efB6GgD/AYsGqrz90dYiB/8PX37gsGIKVh60TmYFKKDrcuEQ6vaURI0INxtr0XxF+/g4H49PGDEkZTLcaGHO9rKG2FK75Hpm4Cf7rgAGQiMTMQZU1dgacLRFu/3xcHdAxoCwCduNi6PzEHx6ifwYeNi3PXDSHiWHkBDZwleWrkRmHoebrvuKiT7SvbXGTZfZKy4Fjdm16Jt4DBpAB6eWqRFOcM1sI0UoAAFKECBEwt0d3erzJ4EsFIUSKrdcqmbE3uN9itiL30g1Zxl2PahQ4cgwaw85wobA1dX6GVe46kLeIUhJf96zJqVC7+G3XjmiwqEJM7AJblh0OAg3v2XBcEebipw9YhfiPvvi0Txe2+j1lqGN9cH4qZ77oZOA5g6mhGetwS3LvRBZWciAj28jskqWq2tqDuchpxvB6G9uA3IPzbo67+AQx/hxnufQuJ5N+Kun4TBU6Ume2GqKcVH370Vr11xP357/VT4mSrwybPP4JmX38He/Bvxxzuuw1n2sb39Bzv+TgBSl16Bu4OC8GmtDbqoKUhPjlHZ5Aro4O3lBs0gU1a7tRHw7v4MGx7Nx8+3Hj1m/kW4439mIFFTidK6aCQEe8MDhXh+6Z2ovO03uOuieARa6lFyOATTZ09HYvYywFSJ1z5cjS7TApw/JeKrDObxzXSYxx4IjMvFnDiHaRAbQgEKUIACFBgxAXu2VSrZSgVhKRLkPmAk1YidiAcaloAsmSP90dzcrALX8PBwNXTbFb5QYOA6rI8Kd3Y5ATcfBEZmYsasHDRs0eDqWVoUfvo6/rdoFh66Kw+T/Cr752LWrPkdbrjnfZjdfJF604+wIuElPPS/hZh31lW46qJGrF/9Kj5aH4Arf/5LBBt8VLBr97Qc2Yp11ktxS3Q0mr78FAdnXYAEzSATXU2N0C26BSsWn4GsCCM+uPe38Lr7t1iUHYdA714UaCL7hjRrI5B35Q+QNGcmPqwIRoR9bbV1f8Cls++D2d0NMjxZ5xeI21+5FQhrx/4P/oE/3PEnfNJjgtECuHn6wNsDmHbTY/g2LAi2N1b9tKBp3/v4w4of47OQEMxdcTnyr30G09I2o847EJlTbHjm19fhl55TcGlQAs5/aDkaf/c5Jj3zMOZppyI91g09lgAEhybC298HKd5HUG0Jww2TgxDtq+s3PeaUfEABClCAAhSgwJgJyNzWqqoqmEwm5Ofnw8ODYcOY4Z/kRJJllSHCMoS7s7NTrfkqz030jZ/Aid7DvL4REOjCwS8/QcneFmRcfCm+e+b5WFHwItYdLEd1Z//MRkQsfRCffHA7tv7tL9jU+Q/87LnP0Ga0YeVL67Hq9V6YTSaYuzR4/PYoJCVH4tvzYvuCTNjQtON9JF71JFJCjdgd34v/vluO286fhMFiV9/gaBh0nnCrW4+39Ofgz8EauFv9EBwXioCGo/ND3bzgHxoFf894RLdp4OWmQck+4JLXX8P85nYEhhog39hp3Nzhp4Yl+yF+0TX49dqL0bxvM3a32RCSkQfbmvfQkZcM3w1SJnng5oHApKX48dppuLxwE9Z+UQ5deCQiI6PhpQtB8swcPPGILx54zx1XnTcTkwKC0HvvdbBqKvDSTVFYuGbgsWSsdC9SL7wDD9x3F7KCvzI9bi8+pAAFKEABClBgjAQkcLVYLKr4j68vCw6OEfuQTyOZVqPRiKamJgQFBSE4+NgUw5AP5EQ7Ok8NFCdCZVMnkICxGB89/X389IVqpF56JbKDveGrD0TSmT/EVfOnIHLAlAJ37wCEhYYhLCIZV/z0P6hrqEPRhx/iuTt/hCf//mv89vXPsH7nYRypeQQXpoXDyyIBWw86C57Er90ewA/yveGuNSA9KQWpxtfx1w1H0NVtPbZYk5sHPGVosq0HhzesQuaZ+YDZCKMR8PfLxYLZAcfh22C1HMHaP12ED/c0wFT5MS675By8UOKDwqdzsXDJv1Hc04NeaOCh1UEfYkNtszu01kmYkqiFtd0bHtZONHhFIkLj1T8nF9DAzcMb/gFe8PLuhm/qbMR7e6DL8hn+cu8SpIREIOHWDTgjVgdzpC/g5g5vvQ4eNh+EhP0M71dUqG8J5ZtCuRV//AZ+9T8LERuqql4ddw18ONoCMhxMljqQxeUdb2tCXVUHOsxWADb0dBlhMjWj+L8v4d7L3kCZ1QJLdzd6evvKmtms3TCb5N+EEZUHa9HdYwVsPdjz8g3IfXo7Br3Ctl147s+v4f2NFehGMXZtb0BTU98x2tq+wMq3jxz9d2hDb083zMYKrPtyLT556x28u/pLFBQ1o7u7Hh/84n/x0pclaGiX93bBerJKa46HzRZRgAIuJCC/++UmVWqP3+T/AxmKKuuHynqtjr/1ynfgfVtzCdZ88hb+taN1wN9Qtr46HSe6kPZKrHrvOXz3xU9QsnszdjR1w2o/3oneM87PS5EsSULIMkUtLS3j3JqxOT0zrmPjzLM4q4BvOpZ+73n87LL5+CoktMLc0oJWYz1MGs1XRQpsXWivqUFjew807RXY9dFGbF1tRs7NZ8Fm6kSqew1eeuhvCDjrGtxy+XS4NzXBVPYWztw+C0W3RvVnV7XhkzFrWgW2P3w1bn7zVtzzszORptfBZmxBi34Obp4O2Pa8hN+73YuHQ9/FTal34lOJgSNSsPDuP+Cly6fCy/6VVEcn1v7zU/gvvg9XpHfiL+vS8NnWUgT7ewHzD+KzZW/jsfNegfbja5Bs7EDFllL0+vshc3Y0zPV7cKjXBxnuMZh3TRaM9c2orW2EzV0OboO1qw0H9x5GRV0U8pL24env/C+2d83DFT9/G7/JT0P/LN1mIywe3vBSjbKh19qB5vp61A9IJxubW2Dq9YfNNsjwaGf97DhJu+WPE1lQ/p133sGyZcsQExMDPz8/9Q27Y8yX0WDXs8twm/8vsfWmBLxy30V4Oetx/HV2AAIuiIFt7V/xx/UHkXbxA7ggQ4fy9+7AHb97E5tKrHD3vAkvbv5fzPXZhdUF5+PZ86qwtW4SpoToobX/G5F+stnQGxYEX48uWMwmFNx1Ia4sOYBWNw0kENZe/jcsvvBcGLqbUPjmk7jn9qfQFJ8MP50X9pcUo8Ocge9+dx6++Hw1Kp7+K261eiNIdz7+uvk5nBvuJB8ENpMCFHApAbPZrJZUkWydrMsaFhYGb2/v/jmsEtA2NDSov3FkyRXH3izobCnAxq0JSE+Xlvoh3MMATdWX2BOaiyDV+Da0doYiLtYAPx/5D8CC9up6tNmD9u5m+Pe4YaoN2L/93/jo+ecx9aKf4aIZ4fDz9TymLokjWUifyZBhVxgmLO4MXB3p08e2OJiABh5eWvjpfQdkGqWJNVj3mwfxx/fWI/TWp3CJvq9ib093IV66+Fa8bbgQi423YH/9XXj42XMQdugLbKkwwzvlMjz173Ow9W+voLCgEhsf/zs+WPAjFNw+oz9otQMEpZyHe/8wCS8+8yc8/kQd7vj+t9H9wQP41XOfoKQBwFWP4vM7ouDrcxn+XnWZeltnbTkKN36CovapyLVH2TEL8IeXFqBt6/P4/hta3Hb9HARJ0CqbmxeCJ5+P2x/cDpOlGUXvPYf/fNmFZff+Am47/oQH/vgcPBc9igXxYfBsWYenvvMzrKyqx/deuQ6wdqFu+wd45fE6nPf0bcgKXIg/fXgljB012PDoX/DzX/wQe/vOAiAf9/3r9/hWdiA07r3o6v0Hbl/2j/5X7XfmXHEn7shZZH/In2MkIN+0yxymP//5z3jrrbcwY8YMLFmyBDk5OQgJCVHLHoxfMY4utJSbMePHa1Ck84RxcwFyfroSgf9ZheLGMJg2fYLPYlqQeeHdWJRsH/5wDu77603oqe9E4tQs+Bkr8cFv9mHJk99B7KF1+OdVj6Dyt1djikGPsJAgmFtqUV9VhurKRnQVP4cDzYvRcNHvsPaqKfDsqkL52v/iX2H5MEh/eAUhY9m1ePAfuThkCkdmbBjCdFV4Y2cd3LpjcMm5Z0HXU4RXu87F/WfFQcv/YcfoU8zTUIACwxWQYcBbtmzByy+/rALWs846C4sWLVJfXkqWVf5vOHLkiAqIHH1uq63HisNrP8Ht973ez5C9eDEWhYfj2dv+B59bveCjC4I27wY8/dB1mBMnqzoU4am8C/FSoO7o33i96DaZYDK5wd/gowLVj1c/jLaH78S1F6QOSF70n8Ih7sjarnq9Xo2Ysg/rdoiGjVIjNHq9/uvjA447mVQT40aBiSiwe/du3HPPPXjkkUeQm5v7VfZ0Il6sE1+TfPP79ttv4+mnn8aqVatc5pvFsegysRXTFStWqMIbEqwmJSUhMzNTFePIy8tDbGws7r//fiQkJOCmm25S/0mORduAQ1h1/fOo/fZNuHKOD7bsqkJQ4aO4/LlDMHj1ZectnZ1Imrsct9//S8wK02D/f99BXYQJjd05SAlvw+7X3kXX3EWI8/RQQ4ZNNTvx+ScrUeG9CNddvRz7Vz2Jlz7YjdqWbpx/0724+JwI7PzXQaTlB6Hg6evx8KdX4Jk192D51GQEeRpRWbwXG//7Gdo81uK/a6dhWoYWicvnYHJwMmy1n+ORYl/8T6oBgV5uCEvPQ8oYztmWtRalgMqbb76pvngYmz7iWShAAWcUaG9vxwsvvIDHHnsMjY2N6ve8/I6fNm2aCmDj4+NRXFyssnkLFixw6EuU/8f2l5UgKlCLHaU1x7S1q/pDHPbOwuy5lxz3+7gSLz+wEct+cRlCenthMTfgQFERdm1yw5m35sOjogKtVl8YYqKgc+DSGxKj1dTUqC+ZZc6rZGAn8sbvgydy7/LaKDBBBOSbYVlLTm6ybpmrDIkZi+6T//BlHpNs4iy+dXV16g+WXbt2YfPmzTjvvPMg/zmO/RzYeJz7x4vw/l5PtO77HN0B58Fbl4hLb7sCMwP7AtfWg82APgxRoQO0AnKQcLgEH71ZgLSrb0LwGz/Cr1eVox6TcN1tP8AVd5+D4OhUNUd9dvIvMGPuKjz3cTMitc04YgqFefsn+L/VFagNnodFs7fh6fv/i8zX7sKMQF/Epk9Xty7TFcifV4JDu8vQWVOOQ80HsKozDY/OOoIHf34PPq4JxF1PvIY7Zn/ToswD2jxCdyVLIsP7pB+5UYACFDiRQEdHB9ra2tQcV6kJUFJSooYO79mzB4WFhcjKylJB66xZs050CId53g1W+Jt24dmn/467Hn//mHblnnstli2Oh0fHv1E/7QzkJEVAp6YuHcHhddvw0bs+8OuyorfLE7HpkQj0q8SRlnLUvvUS9rnPxtnXrIDOPortmCM7xgNPT08VtEprxv7/6LE3YOA69uY8o8sLdKN21xoc8J6CqUkR8PYYZF6ntRPtnSZY3ENgsI+AVG7dqCmrh39sGHRazwFL6thgNhvR2mpFeLgObdX1aLdoYIjXobPBptb38vV175e3GQ9h/U4Nps+OhkdPOzo7AxGgfjGb0doqi7XqEBAw8NdDC/aVWJAU1Yl9zeHIjPNGd2czDu+rgG9mLsK1/YcelTvyn6t8o3j48GE8++yz/XNwRuVkLnZQ+Y+urKys/6plXqsMC5MgVuY+ybfyUvxBbuOyBUzFOTlVWPV+CPLPB2o31OKL919H+dEvlbtaApAxbzmOzwfEzYlCV8lCRJSuw56I5bj0/AKsrcpAYEcpiosOwqCJQGRsDyqKP8O7H36ILZvMKFt6E86JCUb7hbfhmWnAJo9ETG16H5/5XYIZKv60oK2qFDs+24YKAObKTdjd0ou20q1Y05WAq87qxpfdPlj8ne8iM3DZmAet0j9SZGvlypX44osvxqW7eFIKUMA5BOR3xY4dO9RSKtJi+d0vXwrL/7fyxVdycrKqdeDow4Sl7b3WblTufg/bGoNx+YXno7G+Bp7RqfBobYHF2oxDOz5H1Q4g1SMJSTHh0B2dMWVtKcQHr1XB0mWFh3Y27pydjoDwQnzx9gYEJy3EovnLkODAQav9k2avR2H/aX9+Iv4c+JfpRLw+XhMFHELA0liGL9dXw3tSJqZmemDPWyuxbWYYMhPC4T0g/OxvbHcjytZ/gtUFHfDpqypw9CUjijfqcPVvr0ZejMzRsG829BgbsGvrXvTEpCG2sQpHOjyRpPHGwVIz4rKzkeDr17+/rakA//dGAP6cHwZTzRa899e9aFZFZNpR2xWGGbPPw/K5kfAw12Dzqs+w4/AulFSEI8ZvNz6vmIRz83ORkdSE537zMgLOPA/JOn/EZ+Zh7vxMBI/CMmLyy9gePA0sHmG/ev48dQHJ0MkfK2IsN51Oh5SUFDXUVOa5yrftMmz4o48+GofgtQsVG97Gx1+WoTP3BizVuKHBMwCpUxOQ5d93zR3VlqNfunxl0FD6Hv61NxjauGTUrXsCv96cjvmhdTjY2IkN7gGInvl9XB9oBizd8Iycj2/fNgNhM48gK2saJofVYwu6gbhQ4M138USjD77/E3upMSnMVoPSggKsb25Gd28v/IKD4ReTh+UA2soLUVAOYNGN+Hnu0QZ+1awxuyf9OdGHi40ZJk9EgQkqIL/vJSiVn1LHQIryyTDh6dOnq5/Z2dmoqJCv6Bx/c/fyQ97VL+Plq3vRWF6E7Zt2IP6Ci2HZUYj2Xj9Mnpellh9sam6Cv1ZKBbsDne3Q3vA7vHxzKprq9mLNqnZkxARgb3EdijbXYv4VZyPBpw2tHZ7Qeveta++IEvIFhHzZIP0nfTnRNwauE72HeX0OIWCzdqGjYheKoUdMYijasQhnZMbCt7/879eb2Vi4Hi//4jnsPv6lxLtxXlUtqqP8EePmDo21G/V7P8Uz7xeiNyIKPvu/RL0sDeLejuoKDdwDA1Gxcz3e6OzE5Au+i8VZ4fDUALYQbzRs+DOKrak4sGcvLG4hQGctynq6EJl3dBkemwXGmu34eL0R+fmxaG2JRYbfNjz3ny7ccEEkfOIM6Cz6BKs88/DtWDN6Tjpj/viLGdpjWZ9M5lnKnJsf/ehHHCo8NLYh7SVDhd9//31VmEn+YJE/VmbOnKn+cElMTFTZejnQ+GRce1Vmv2j9HmSd462KmPX2dqOtsR715r7LMza7wyvy2Eu1mtvQ7J6Db6VosLnre/jphctxQcAneGH3PFw7pwWfrCnD2oY8XJoRg0SJL1t3HnsAAMbSQrQEauDlbcMrv/8jpl94M5Ym+yIs+0zc8Nh0zNu+CZvWFqLRZELHwHcnLcaNZ2cg2Hd8JkVJwHr99ddzjuvAPuF9ClDgawIymubFF1+EzI2X2gaTJ0/G/PnzIXUNDAaDWr+1urpaDSX+2psd9IleUxOajpSgK2Y+4nyB/ce1UxWb8vRSmeTOombEzp6CktW/wuvbehA/9WaYD1Sgfo8WeTP9UNO6FZs2RyA0Ngph0dFw1JmjJpNJLYUjgaszZMeP65JhP2TgOmwyvoECwxNor/gSH7z3JjbsqED5l5tQ8L4Hanc0IqxyHQx67dF8qwf8g2bhyjsvQbpf3/F1ydNx4d1JuD76uF+XsbOR3FiBGksiYrw0MFZtwRt/2Ib2PAPirC048Oar+He1Ge7aVnR7+OGMK2/DFI0vfL2t6Cl7Fw++WgpTwx7s3B+I9Wl50IV7IemS7+HceZ1Y/Y//wj1gNvKzwqD+7PbxgX/cGVg2Zw2MbmZ0dMzCjdeHorc0H3mx/piarMPq9hjcOnM2pkaO8njh4bFz7yEKyDe08oXA9773PSxcuBAZGRnqjxjHyGz7IHnJLbh6XxFKVCZfAx+/FFz149uwTFeP7WtexfMfN8E9QgefASMXwidficVpASh6ZzN0yTnw+udvcX/HQSRefj78RAw7kQAAIABJREFU9XpMm96NXT19yyEc2f0x3nvzn1ivWYysabP71Da+jre7MxA3/zLcF1CMZ95sQnvxRuyLWIxU+fdpaUb14WocbtHCEPzVuAegFhu2V8NyrhUYp8B1iN3O3ShAARcXkLmRU6ZMUaMz0tPTIbeAgAAV1NlHOAUHB6ssnqNXq+2q2YCXHv03Duh0yJy7CPmz4qFFD4J82vDZuyvxjzetahmVpqYAXHbHTViScAhrK2Ix/wJ/mFoCEOhjQXfZs3jq8wzMmj0P+ZOB/cWbsOrtvYhfeCYuiop22E+LLGskGVfpMwauDttNbBgFnEfAwzcY0YmTMdl7MiZLs2u3YIMhC1mxwdAfHVZr6dqPTe/XQWP/G9hLj6AQb7ibi1BYeFzmprAQmysrkeSdhumLYuGuC8OU5Zfg8nMNqF7/LprmXonvT/JRQOZDe2CbFI/ZC+chJdADlpotMHV5oaOmHds6QpEalYjiI/UofvYZ/OfVBuzcWAJrVDX8IkIRu3w6wrVaBMZlYV6UEaXV5Sgu8UTd1mJkzb0S/i1f4M8VXojp3Iwn3/47wrIX4OJvXYm8GAawzvPp7Mukylym22+/XVULltL6MmzMkYYcxS3+NgIifOHm5o7gGUuQo5dhzVoERUxC3rxkpOSmI+DoCKmw3Fz4B+jhAxsMqbMwLREoyc5GjiYHM7J8IN/IxCXmIE51Ug+0+nDEZy/GxWEzkBzhCyAS8y5YgOrEuZidHggv99n44a0z0FFdjnb7V71eIUjJWYjoqUFISggasK5cC84t6Uakn9eAMNqZPg1sKwUo4CoCMqVAlj+TKSHyRaX87h84skbuSyZW5rvKkOFJkyY5LI2btwEJkydD529AVs5cpKgpVh4ITUzD9Dnt8Kmwr44SjuhgP7h5WhE3PQGR7l7QLLgT38trRtmWj1GeOgP5SxLVOvRJIVEI0O5HT2gU/MapxMPJwGWqjxStlODVFQoziYf9v+GT2fB1ClDgFAV8QjIwZ1kG5qj3G1H0Dy3C4/xR+tq78L7mIVw6Mww95vXobgYS++JNwF2P2PR5mJN1BN7NvQjPSEcgavDlF23IzIqHweCNiKQguGncoA1JxpyLpCpLPSpaG7Dvy7XYUdQX7FoCM3DxkhhEBnrBzR3QxuRhhv453PevnThQFYS/ls7ADdnhaEzLR1qOPxZf7YbWQz0I8wuCTgXReiTlyPy+eMRn1SLB8nesczsLbitvw8Nx/4Pr5s1CSnsBnqs/go6wVETr7ZH3KWLxbeMi4OPjo/5wcaRgdSCEIf3oOqqyrHx8JvoGJQRg0szzMGnmwD0B/7hY2GeXpqb1vTb56mv6vjQ6dlf1X2Bg3DScGTdtwCuBSDn/IqQMeEbj4Qn/uLT+48LDHzFJ9rMM2BGBSDt6zoHP8j4FKEABRxOQwFSGl55ok9cDAwOxf/9+VVXekQNXz6A0LL3u6798PQLjMOvMOHy9LrIeWQMKX3p4ByF93mVIH4ihC0feGar4x8BnHeq+zG+VQoqhoaH903ocqoGj0BgGrqOAykNS4EQCnXtX4ROLP+bF5CL5O6E4uO1mrCj+KVaeWYdDfvHwMjdh2/vP4u4nPlCH6G5rg9lmg3dAALxgQt0RCzZs1EGrdQfmuOO1B89HmLsbrJ112PT6A/jh797BvuJKtNsb4Lcexds/xd/mXYNf3X0l5vSux5ee38KN10Sh5fMY3HhGPuLdSnFg7kLk5XmicGMjcvK8EJYXDz/126EKn/z41/jr5r2olxGSDcWo8YyHe/U2VAeU4ECUHxCZjNyLb8QP5mYgWs9fKXZ6Z/vpqEGrszmyvRSgAAUmgoD8nyBZWMnMyjxKucmXnNwcR0CWspM5yjLdR4Z5u8LGvzJdoZd5jY4hULMRv9lmRWbOVGTERsM7MRaxCQ8j0hoLW8WX6IzKA7z8kTL/Svwx8WwATdi1swq9vRHInRoGoAIfvN+CadOTERbmC3Tr0OvWNz7SDTaExCTjW4/8F0sTunBo9360mj2ROiMF3lVrsbo7F6H+/nDzzce5EYEIamrGK4cSMCvaD2q5R3c/hHq345BxB4qsF+HHfelWAKGYdsud+OW3O1H4xVoYZuUj1Ou4ssHefggMj0Gs/rghzY6hzlZQgAIUoAAFKHAKAjIPVgojypDUQ4cOITU19ZjhxKdwSL5lhAQk0yrLBEoBLZnuI18wuMLGwNUVepnXOP4CtZvxq7WViEqegwuyo/rXbvUJzcRk2FC5bjdS4m+DjOf1D4lDbkgcGvasRV2QJyLnnonJqgCMDns/2ouopDRkJAfD3WqF9Wjpc6vVgi5TK+IzcpGbZoJPtzuajD3Q7H8djzz6PPRXvgAfTw9ofIIRImueNR9L0l1fiq3by+EVkwPTRw/gvP/k4md3/wALEnwQlJSCoMa12OjWg8++8x18aDJBismrzTAJC777azx1S3L/Ujv2l/iTAhSgAAUoQAHnFZBiP2FhYSpolTVf4+LiVNaVI3TGt0/li4S6ujp1kwJb9iJa49uqsTm7g043HpuL51koMOoCpgp8/PtbMfuG5+ETm48bZsTA17Pvn13Tx/cjOyUaQYZgzD94HW6d6q6qle558yGcFRSESx96De6TL0Wm4at5oxprL3ptNqhVZ9zd+4NFD/8oZJ7zE1x8dGJeXx7WF5nL78cLq/fh8VuWIlZNyWvCqnuyEDv1RmjiY6AqyNSUovQfz2Bn6DW44bwluOuB/8Pfr8mFraEElaajQlYzdpWE49bVa7F9507sVLeNeO+Vn2JpgP7onMNR1+QJKEABClCAAhQYQwEp3CQVh2W+67p162A0Gsfw7DzVYAJS5VmyrYcPH0ZERIRLDeFmxnWwTwSfo8BICfjEYck9T2HJPV8/oGHJQ9hd+tCxL7gHIevi+7H64vuPfV49SsEV9w4sGTNgF40b3D29jwayPkjNm/HVi14D56QYcO7v9+Dw7796OXLatXh4y7VfPeHhgYi8sxDx1TNA2FL86YmBT8j9AAQERCAr8/jn+ZgCFKAABShAgYkgIEWaZC31qKgolXmVeZUyLFWGEXMbewEpyCTZ702bNuH8889XXyi4UgacgevYf+Z4RgpQgAIUoAAFKEABCjiFgASpiYmJkKCptLRUtTk8PJzB6xj3nvgfOHBAFWSaN28eYmJiXGLt1oHMHCo8UIP3KUABClCAAhSgAAUoQIF+Acno+fv7IykpSRVq2rNnjyoKJIGUzLfkNroCYixrtZaUlKCsrEzNO87OzlZfHLhStlWUGbiO7meNR6cABShAAQpQgAIUoIDTCxgMBqSkpKjKwpL5q6ysREdHB3p7+0s2Ov01OtoFiK0sRSRfFpSXl6uhwdIHMlzb1YJW6RsOFXa0TyjbQwEKUIACFKAABShAAQcTkEBJhqdKwSYJoioqKlBVVQWpbKvX6+Hu7u6SwdRodJNkWa1WK9ra2lBcXIza2lpln5GRobLfo3FOZzgmA1dn6CW2kQIUoAAFKEABClCAAuMsIMFraGgofH191XzLoqIiFBQUqOGrMg9Wqg+7YiZwJLtFAtbW1lY1n1iyrU1NTcjKylLrtcqXA668MXB15d7ntVOAAhSgAAUoQAEKUGCYAhK4pqWlQYo0bdy4UWVfe3p6oNPpEBAQoIJbrVY7zKO67u72eaxStVluMn9YMtqyRqsUYpKfrh60yqeDgavr/hvhlVOAAhSgAAUoQAEKUGDYApJVlWrDMu910aJFaq5rdXW1GtLa3t4OuUkgK8GWBLM+Pj5qiDGDrz5qyapKNlWcZG1cCVwl0Jf7Mm84JCQEZ5xxhspsy9BsuvW5MXAd9j9VvoECFKAABShAAQpQgAIUkIDKz89PBabyU4Kxzs5ONDQ0oK6uTgW3MnxYgi+pTMz1X6GCVIvFopxaWlrUsGD7/OHIyEgVwIqX3GQdXW5fCTBw/cqC9yhAAQpQgAIUoAAFKECBYQrYA1j7UOGgoCDExsb2B17d3d1q7isDsT5Y8ZIsdFhYWP+SQjL8WoJVDw8PzhM+weePgesJYPg0BShAAQpQgAIUoAAFKDB0AckcylItcpO5rrLJki4yNFaGw3L7SkCCeAlgWczqK5OT3WPgejIhvk4BClCAAhSgAAUoQAEKnJKABGjMtJ4SHd90nAAHTh8HwocUoAAFKEABClCAAhSgAAUo4FgCDFwdqz/YGgpQgAIUoAAFKEABClCAAhQ4ToCB63EgfEgBClCAAhSgAAUoQAEKUIACjiXAwNWx+oOtoQAFKEABClCAAhSgAAUoQIHjBBi4HgfChxSYCAJSwU9u47FJ1UA5N6sHjoc+z0kBClCAAhSgAAUmpgCrCk/MfuVVDUNAAixZX8y+xtgw3uqQu/b09KjFrKWCnyz6PdZl1o1GIzo6OqDX69V6ZCOBJGX05bq4ja+A9IP938r4toRnH0xAFrTnRgEKUIACFJioAgxcJ2rP8rqGJCBBnfyx9/HHH2Pfvn1jHuQNqZHD3Emup6amRq0NFhUVNebX1NLSgqamJrWotp+f3zBbP/juksHdvn07y+kPzjMmz8q/laKiIrz11ltq0fQxOSlPMiyB9vZ29QXPWH9ZNaxGcmcKUIACFKDAKQowcD1FOL5tYgj4+/tj6tSp2LJli7pNhKvq6urCgQMH4OnpiaSkpDEPXBsaGlTgHBcX17/4+Ei4yiLds2fPZvA6EpincIzs7GysXr0aq1atOoV38y1jJbBgwQI12mGszsfzUIACFKAABcZKQKPX620nO1lra+vJduHrFHBKARl+KhnCiTTErq6uDs8//7z64/WWW25Rmdex7Jy1a9eq4ObKK69ETk7OiJ5aq9XCYDCM6DF5sKEJtLW1QYaBc+7y0LzGay+ZIhAcHAwPD34vPV59wPNSgAIUoMDoCPB/ttFx5VGdRED+uAsJCXGS1g6tmTJMUIboyhzTyMjIMQ9cJbD09fVVrnJ+bhNDQD5PcuNGAQpQgAIUoAAFxkOAVYXHQ53npAAFKEABClCAAhSgAAUoQIEhCzBwHTIVd6QABShAAQpQgAIUoAAFKECB8RBg4Doe6jwnBShAAQpQgAIUoAAFKEABCgxZgIHrkKm4IwUoQAEKUIACFKAABShAAQqMhwAD1/FQ5zkpQAEKUIACFKAABShAAQpQYMgCDFyHTMUdKUABClCAAhSgAAUoQAEKUGA8BBi4joc6z0kBClCAAhSgAAUoQAEKUIACQxZg4DpkKu5IAQpQgAIUoAAFKEABClCAAuMhwMB1PNR5TgpQgAIUoAAFKEABClCAAhQYsgAD1yFTcUcKUIACFKAABShAAQpQgAIUGA8BBq7joc5zUoACFKAABShAAQpQgAIUoMCQBRi4DpmKO1KAAhSgAAUoQAEKUIACFKDAeAgwcB0PdZ6TAhSgAAUoQAEKUIACFKAABYYswMB1yFTckQIUoAAFKEABClCAAhSgAAXGQ4CB63io85wUoAAFKEABClCAAhSgAAUoMGQBBq5DpuKOFKAABShAAQpQgAIUoAAFKDAeAgxcx0Od56QABShAAQpQgAIUoAAFKECBIQswcB0yFXekAAUoQAEKUIACFKAABShAgfEQYOA6Huo8JwUoQAEKUIACFKAABShAAQoMWYCB6/+zdx7gcRVXw361Vdqi3qslq1hWsSXbstxwxbgRMJ1QQwsJhNBC+BKSwEdC2kdCSUJJ6L2ZYozBxsa9V9mqtprVe92Vtv/PXGtl2eAE8ttYWDPPI90+d+ade/fOmXPmnK+NSp4oCUgCkoAkIAlIApKAJCAJSAKSgCRwJghIwfVMUJf3lAQkAUlAEpAEJAFJQBKQBCQBSUAS+NoEpOD6tVHJEyUBSUASkAQkAUlAEpAEJAFJQBKQBM4EASm4ngnq8p6SgCQgCUgCkoAkIAlIApKAJCAJSAJfm4AUXL82KnmiJCAJSAKSgCQgCUgCkoAkIAlIApLAmSAgBdczQV3eUxKQBCQBSUASkAQkAUlAEpAEJAFJ4GsT0HztM+WJkoAkIAlIAiOWQENDA+3t7bjd7hHL4LtQcY1GQ2JiIr6+vt+F4p6VZbRYLNTW1mK328/K+p1NlVKpVAQGBhITE3M2VUvWRRI4awlIwfWsbVpZMUlAEpAETh2B9957j507d2IwGBCdPZmGHwGXy0Vrayt/+tOfSEpKGn4FHCElKi8v59FHH1UGD8RAgkzDk4DH48FqtZKZmcm99947PAspSyUJSALHEZC/qMfhkBuSgCQgCUgCX0VAdMb1ej0zZ85UhNevOkfuO7MEuru7eeCBB+jt7T2zBRnhd+/s7ES8LzfddBPBwcEjnMbwrb7QiK9bt46SkpLhW0hZMklAEjiOgBRcj8MhNyQBSUASkARORiAtLY1Fixbh7+9/slPk/jNIoKWlhd/85jcITZJMZ5aAyWRi/vz5REdHn9mCyLuflIDQtop3ZteuXSc9Rx6QBCSB4UVA2nsNr/aQpZEEJAFJQBKQBCQBSUASkAQkAUlAEjiBgBRcTwAiNyUBSUASkAQkAUlAEpAEJAFJQBKQBIYXASm4Dq/2kKWRBCQBSUASkAQkAUlAEpAEJAFJQBI4gYAUXE8AIjclAUlAEpAEJAFJQBKQBCQBSUASkASGFwEpuA6v9pClkQQkAUlAEpAEJAFJQBKQBCQBSUASOIGAFFxPACI3JQFJQBKQBCQBSUASkAQkAUlAEpAEhhcBGQ5neLWHLI0kIAlIApKAJCAJSAKSgCTwnSbgcrmw2WxYLBYcDgcajQa32638iXWVauTqzgQXUX8vE7EuQmjpdDrUavV3ut1Pd+Gl4Hq6Ccv8JQFJQBI4ywl43C5czn48GiNaHw9KFFEfH3xEvT0ePN71oRw8HpyOfmw+eoxqDzanE49Ki6/m33dm3E4bVrcGk+7ff9w9TgdOlQaNaqAcSlGcOGyg9dUcLZtSHjcuF/j4+KBSKSUeWsqTr3tc2OwuUGvQaVT44MZhceLjq0WjPj6fb87Hg8vRT59Hh0nrg91hx+Wjw0/779mcvLDyiCQgCUgCp5+AEFb7+voUQbW/v5/6+nqKiopobW0lKChIEWTF/sDAQHx9fU9/gYbhHUSc7draWvR6PSEhIfT09GAwGMjMzCQ8PFxZF8fEnxRiv9yAUnD9MhO5RxKQBM52Ai47Xf0OfDS++Ot9cLt9FMHFR5E37FitagyGfy8YDSJy99Pv1KLTqhmUezxubJYOOvAn0qQdONWFrcuC3aPBL8CAZqhs47LS2uEhKNSIymPH4dCh04nL3DidLtxuNTrdUKHFQW+vG4PeRa9Dh9mgAbcDa2cPqoBg/L5m0Qfr8P+50lu3i42f/AXOe4tF4RY62tvpdHlQitHRjychluhAI7ohdXb2NrHm3f/jxcBb+FduB8+vXk/3mKv45fSYk5fG7aBh4xPM33UOe++dfFx+J17UtelNPlJnMSkmiKNN6aSrbT+r3vfn5ofnETB4QQslB5voU0WRPiYEnb2Flo5+HK7BE8BHhdYcSmSQLx67hc62NnqbCnl6dRn6mElcMy2V0KAaPrh2H6N+fwFT0s30tzowhhoVBpbG/Wz88Lc4Fyzj/Agrne1tdAzlEx9DVJAJ/QAft8PK7td/xgPa2/loLry74m32xF3PX84dNaRQclUSkAQkgeFBQGhU7XY7XV1d7Ny5k4qKCkUImzhxIhdeeCFarVbRMAqhTSQxUDiSk9A8iyQ0rYKJEOZLS0v59NNPcTqdJCQkkJWVpQj7UoA9/kmRguvxPOSWJCAJjAQCrQd5edMhVAlzuG2imvoDjbTb7LgVYbGENbvGcceN6WgHvq0uey9tDYep7/gKOI4aqnpSyc8bTYTpqCbPbeth3wcP8QffO3j/4gQsPb1YHZ2UvPQph/oTmXvXAhL8huTV8jn3PGjnL09diMGyh20rfQlKEce7qW2xojdOZO7UUFQuKy1H6mjuKmTVWjcTEqv4uCKdK+akERHYzMv/8wRBP7yP/CAtxoBwYuLDBoS2Ifc6LasxBBkX4xfSQZu7l4K3nuTJZ1ZSadTS3xnHD578A7csGIvO+8XxuOizNGHVL+WZ78XQUthKvF8WcaYW9u1rGShhIDFJUYT46xkqsjs7u+lfVkjFvXmMGaI3PbFageHw8h138n8tXaiVDDw4jSZir3+Ke487OYJEv938flcpbYZzid92F3c9V0BDh5PWZjdGTy+eyHCivvcYyx+chq1sFY/d80MeK/Ejc8oUEl59kfl1GfzwgRz8b5mAureGon1tbH6jiwt+exGxyrhFJIHG7+EbKvhYKHzvHzz+94+pMGqxdcZyzV8f4YeLs9APjHG4rFVUOi/l7auT6KoowM9nAleHdbJv376BkvsTGR9FWLDf0cGB4+ojNyQBSUAS+HYICCFLaAyFZlUIXsHBwWRnZzNlyhTFDNZoNCrmryNdUP1PrSEEe6FxTUpKUrTVnZ2dFBQUKAJ/YmLioCZWamDB2434T0zlcUlAEpAEvvsE3Ha6Gqo5tGMXPk0W8FRRGu7D7qef5r29pbT7acDeSk3mb7j+xjGEDAhG/R2HWfPKXTy75isQZF3OdZl9NOVGEErgwI+qGn91NOcGmbD2NXFgyyYKLFEkJo4iVh1P+FCh1ZtlUhSq6k1U9lv47FcPsj3KBA4rHaZk5t+cwHRC8eurYcOzj/DYJ8Wk5U9k9edV9HU9z2vPTOPB+1JYdqgI1d1X8CdSWbzkWm7/+SWkmbw3OA1LjwtLSwUbt+6jsmgfVrMaUz8020OZ+fuXeHZGONtfeZWq3gK2FZqYNjYGs1aN295C+UevcSDjARZ21tLWUExJcTnP/241HRGmAWFsFj/+480syYvGi0uY3LY07SJ+zmR8HT6gDDScpF7GCG6+/5cEq7UDAxAe7E4HHX06nA7QeBXhgD56Aj+cp8Ls708953P/4z+CnsO886qVRZk+GKdGUFafSQBaSJ7M4it/TMnjK6gqO0wFLnJuSEeXkIX/ur/w8NpdlLt/wZsfzMLS5abPU8HGLfuoKN6PNUCDoV9Fe38g0377Ak/PimLX669RYT3A9iJ/pqXH4q+zUvXm0+xO/S1LrU0cKd/PkZZmXrvsQVpj/AfY5HPN/Tdx6XmjMZ+k+nK3JCAJSAKni4DQGAotYWNjIwcOHFBMXjMyMhQTYGESLOZqyvT1CQjNqzAXFn9CAxsQEIC/v7+ixS4sLFQ4Cy1saGjoiDWx9tKUgquXhFxKApLA2U/AZaG+YD2v//MNdlud4FcF6ploZtzIn3+WTmJiADQu5y+bcggeos0zRoznyl+u5YpffhUiMYeym6qDPdgMZjQ6Nf2d7bR11bBq/SayQtMw+HSj0vSxa2slNtVhOlyl6EJGkxPjpry8ju66bRwpNLN+9X46M28h+e5/8uDlYZRt+pxtzSaicxKOCm+mOKZecT19Y6sxmkUJE5mcuoeHN0cxOiGG5x5P4mCXG23CAi7NPJ0S6wAHl4P20vU89fx79Kj8SAqKJ7BoA/trWons9yfZ3c9HB3dS/dkKmpPsvPbIpYwJ9qO3cgerPtrFXmMlVfoW2s15zJ8dR/qYS5l7dQ40NWHz81MEySHyJW53P63V1Vw03pdD1XZGpZykc9Rbx6YK8K16k5fXdmDpF+XVYjbP5YKLeli9L5h5k8LQOi00lBWx67OP2eufw5LFi/DjCCW7DrDhi0r6e23UnnsVwbsL6ImaebTSKl+iJszi8rtiOFzfjtY/lNEREfinp6N338iSqDGY51zNuNggtB4bDds38NRz79Dt0TEqOJHQ4nXsqWkjarKRZB8Pnx3YzuGaj2lNtPHiby8nxbGX1cu2sfOKGmqD6qjWT2Hx7CZijHNZ8ON8tG2t9KnVGIOC0H/V4yj3SQKSgCRwGgkIoVVoWSsrKxWTYDFPU2gFw8LCpMB6CrgL7bRXiBUm2EKr3dbWpmi029vbFdZm88gdspSC6yl4yGQWkoAk8B0hoA0ifeFNPJqbw5aSaipaxpA31kLFgRbWf7ac9b5OMOuIjR3Q8Xmc9NYXsWHVbpr+bRWNeDpdZPpfSG5wA6s/KSEoMo0r7kinu7AJp68Bn6oVbNrZhtPHREVjIJrR5xKc5+CLz3dQf6SE2nI96lsfJtqnnL1bNvB0cysrX3qfpqgf8PO0bDriUgjSWmlsCSJev57i2j0s/3QChsuLychbTIamineLuinrNjC++R3erk5g/OQZpIYOFf3+bSW+8UHhdEkbFMeic+dRV3mIHkcPbSQyc/YswhJTMfjtIyJ9EiljdPhmTiPGoMen9SDr9/tx3gNLMdgicfdYyZodTcMHeyjZsJV6xz4CPR7806eSN85I6JC5xm7LYQ62XUJOXizqgmK6UsYNmas6pPj1W/jbK58x69pf8+z1ETRt3QETphHWvYNXf/Yku2ckM1MIri4LDSV72LC+juClcwjx12GlBmvMYm47L5sKex+H3jiIe+kBegez16Lx9FNXsZPPt1SjyV5K1rljiT9ykAJXO2XqcUzd9SGv7/VhwqLvEx4Qy6L586k9VEKvq5sW1yiFT0RCGka/IsLHTCAh1RdDxnTibFWs3eZm9kOX0e+MxtrYRu6CeCwbCqnc9gWvGooVNgHJueTkmIk2y0/4YLPIFUlAEjjtBITQKuaxVldXK1pAoQEUczGFsyVpDnzq8QsT4pSUFGWuq3DoVFVVpfDPzc1FmGGPxCS/eiOx1WWdJYERS8BGW+leNr31Dmv6VGh8rLiL1fhGujjSsJ3N29pInjOHyTWv8uRuLedccjPxvS1UHDjAoZ5GCkpKaTMmM9bfB7XGD7WnD63ZH5NpHtf+KBm1jwYc3fRogohDS4AxhvHjLHQFX83sJfNIi9+LVZ1AVqYDiz6cqMgoMqLULPu4jwO9Bspri0hODKO/qpQjHh3RCxcR3tZC0d5mZuWmgDaUnHmh4BnPhN5SchO7hqlIAAAgAElEQVQOUN0RT+DBV3hFF4UzbCp3RWzmgSffwpJ8IfHZUxVN42lrbrcLa0slRaWlNLZ34Beip63wXV5+0Y8JM6YyMbWJz1dtp7wmhEW3JDBnWixj+lrpTRlPvL0EXYCJUSlTMNBGg8NCW81hakxdjJ89mwT/UHTOo448vOW3lK6mZdyl5IaEU6n+jI2lcSxJC/YePm6Zev5tLBgfg5+tkLfe387CcecwKjST7/3ySkwNcRjE2fpwci/6ISmjU9lj92qopzElQ8XBh/ZQ5tfN4bYMLsi7it2lgL2HirKdLNtXiTt+LEvHCC2shsY1u2irKaMsJoq4YDVtBw9SLRxszHRhaq2ksKSExpZWfMMNdJW+w4Mv68mZNo289BbWrt7KoepgFt4Uy8yEMDqTx5PYvwu1n5ZR42ZiopsyRz9d9eXUHLCSkT+ZUaHR6B3Hszmu8nJDEpAEJIFTTECYsPb29nLo0CGampqIjY0lLS1N0Q6e4lvJ7E4gIAYIhOmw8NpcVlamLKdOnarMgR1pAwZScD3h4ZCbkoAkcBYT6O+jt6mBeouVPlUCMy7KJ2v3F2zRJXLN3TcQ+66NpfONbHzrHcpaTNjREZw2l9v/NJmq/Rt5b0M9iXNmEt/RjMcQQnRQG7s+3YQ+fzJjRiVgVJSb47nyMgvVn+6jSW3AoPXj8PZneH17GTUljThUAUw6Zwyjxs8nyNHIzopm2nr6cdp9sEXPYHpyPY2X3sEPz9Wz/4iTYHUH6jETiVIiB3RQ8t5yVu0/TCtgPfwZB/QT8d31HGujr+auyUU87+dHxpV3MTVzMvlxpzfcgI/WQNLsW3kkuZa9K9/hSJw/lZoAEkdX0dRcT5vTQMqMq7kgNpRAkw99vW6IncWVUX107FKhVhsxeAeNfdRoff2UWHbVO3dS3aDCeP45ZPibj87rrN/KBzWxXHRRFkEmG/b0WA7sWMNWw/lM+Tf1tBSvpjXvErL9AacWg188qYneWbNDnvX2Q7yzphd/q54ZGj06nR9GkxO/7GACvad53Dh1gcSMGktIbwHrG6z4BBlxlrmYdMnVXJTSzK9/V8Alv3qAH4eYjjqVSvwhv0+pZ+/ytzgyyp8KtZmEJKGtqKPNbiB52lUsviyUYLMaW8BkLo8z4trhg8rHhNFrDeajQqM3YDSZaDhYSEObFtXC2QQEB0lHFd62kUtJQBI4bQS8nm8PHz6shHKJj49XNIHCpFWmb4eAmDcsHDgJB03CcZPQfs+YMUMRXr+dEgyPu0jBdXi0gyyFJCAJfBsEfPyIyJ7N99Piya7sRhUdh+lIH4EGAzqtL2x+gYd3uHDqU8i4bCl5kaJQdtqbyjm430P+3MVMyjZTsq4FOxAcl0RM3BGqC/7O2/ZbuDxvNAbtsbihap0OU1AkgUcCCQsLpqfeil0VRPz4GWQlxWOmmoS8W5idO5oS/2B+NiWG7u560OrQGX2oLdxKYeJUboryzmZUozMHEBQWRkNJCf7jL2aRnx+q3D8zz8vPFELsmFzy479COPOecxqWWnMUkxcu4RzjTvboOzDGWbHFh6Hq7mTX5i7yL8knOdB3yMzhEwqh1uJnDsJXzJMSh4JMSkxXxbFz3SZ+ub6R6ROXMjlKHNQTFp1JfnwZy17+E8Vpl7L0knSCvFmG57BYE0BwxzbeORLPxZktPHPHXyl0u3Hrg0i64jYmjTrGx2opYV1pHf1qK4a0CYQYI8idXEVfZw+RqTmYKD6asz6A1NQJpKYCjQZa97diTMwloueffPD6Ot5UjSFnXCyOVhUeUZgh7pA1xggmnXcB55h2slvXhuH8fhxxwdDby97NHUy6aDLJQQblkqGReJQbqzToTYGYw8JQhiKCzPhp1Sdn6eUgl5KAJCAJnAICQtNXXl6uxGRNTU1VNK0mk9dK5RTcQGbxtQiI0DiCvxBai4uLqampIS4ubkQJr1Jw/VqPijxJEpAEzgoCej2+4m9gwmrfkRKajLH4lC9nuSeJTkMs2VlhaIyjSIwXH2Un3UeK2Pi3ckKvm8GkjHB0WI6h8I1k4oVXkFxu4c39dlxON2iPD6KqNoaRNfNysmY2svn9vVjUCUyfOpauxkacAQmM9TNAoxLYTslXCGouayeNpeX0RkbjKP+Mhx89yKWXf5+8WH+S5l9A0pRiln9koHTddvb19+H0lsgviMT5s7hhbNi35LjHSU/dTl6/8wW2qUJIadmFvSmf+UsnEu/ewZ5+E6OTY1E7q2lZuZyCS77PVKPXM6630ANL/1iy5ucozpm8Slh6inn7V8/xeVg2k6fNY37K4BFUoq5Z57Go82Pe/fw5Hu2Ywg8uXYRn9/O8/OE2KkXooglzuWLBBUyM7aIvLw9xdb+tH+vBTylLv57UgX6XKSmfWaZmWg7rSE2MJcAQQvg115NFJe9f/yD/4+km/0dLlOeho3IbH770DGsK22judaE2BeM5spUdB6tpt4aTM28sYe+tICLsYh566QLCm3bxxh3PsdkTQlrnbvrq8znvwokkqPawz2Jg1OgEtM4qWlatoGDpFUwxDep3jwEyhZMy81LFOZP/QIimYwflmiQgCUgCp4+AEJKEcyAR8iY8PFwRnKTQevp4/6ecfX19GT16NFarlf379yvzX0fSHGMpuP6nJ0QelwQkgbOIgIPm4jW8+eQ7VPklET0llZyMacxMiqW6qIrDE2r5ZNXHWCwOtB8Z6Pzty5xjcxB04WTGZfhR9/krvPz4G6yNyefmG35AzgCZwNGXsdSswaAbomID+tpK+fDVe/nXF+LEBMZPnEC06wve+GcxCbkTSFl4BRH7/85LK7ZjXfAvFBWapYOWD55nTerPWTIrGW1nIoWFlfTWl1IXmk2MULnZmjhw2IfU2QsZY9ZwdLajkx5rLWWNtn8bJebUNqYKfUA8U35wOanGEPz9u0GfztjMMLRdGiY6fPEPCCU9JZXm4jIcQuMqBC+1DlPaYs4d/AKZSRqXQ7Rw4jS0gPpwsucvxj8ojdljIlGfELRe5x/LuHOvwj+xmEZHAMG+Whg9hXO/l0CX8CScMJ45yQFoNEHMvnqUkrOr30JHcx2qIQ6JjZE5zIy00hhmwz/AhH6wGYPIuPQy/LR60scKrbcbv+BRTJh3OaEThxb0Km4buqmMQ6QShAqdKY786y8j2RBKQEAXbl06GVnhaLt1TLDpMAWEkZmSQkvJIezeuKxpS1ni49XcG4hJHocpVI1BCq0nUJabkoAkcLoJ2Gw26urqFO+2EydORHi0HWnzKk8342+SvwidIwYOoqOjlbnGQusqNLEjxWx7sNvwTaDJcyUBSUAS+G4SUBMQM56FN0fi0JsxhJkJNIcS6BtNRHgaY+w5pGW04HC48VGpSYzWYlKNZaLRiAEnPlnncMnPE5kbEEHSqIiBmJqChJmI8GNEfHS+RM+4kAC9if7FPyckTxwzER4VgZ9nMhPnt2MODcUQHos+/AZ+knU5xqRkfHzUGEMnc83/RUJyFvGBWnwiJhITn4bF4UbrdRAckMP3r80gNDoIo14zYDLqweHoob1dI6KNfktJCGYxZC+J+fL9AmKJHtyrJTw9Y3ALMZ81aBTxg3t0BISGfdlDsC6EMTNmM2bwvK9Y0ZlJHJtHovfQqFxmjMr1bn1pqfY1EhovbH1PTAYio06crxVI6uLFHDtbhW9ALFnTY8k68fKTbRujyVpyjMTgaf4xKFbPyg4tYWPGDh4iMOlYfdBgDAzF+BWK2GMXyDVJQBKQBE49AWEiLLStwpOwCHcTHByszLE89XeSOX4TAmKea0xMzKCHZ6EJ9/PzGxEDClJw/SZPijxXEpAEvuMEVOj9I0nJUSavHlcXTUAAwQQwOSzluP0ghFaRNBgjEsiISDjh+Jc3hdDrGxJ1VHuYNp2YtKHnRBGXPGQ7OIeIpGPbGn0ICRNDju0QCko/M/7HpmSCNoBRg5Ka91QftFp/IiK823IpCUgCkoAkIAn89wREDFERhkVoXfPz89FopNjw39M8tVcKLWtQUJCiDRdmw6KtRPicsz3JJ/Bsb2FZP0lAEpAEJAFJQBKQBCQBSeAbEhDCUH9/P8KrsNDoyTS8CERGRmK32xXNqxBixd/ZngZn8pztFZX1kwQkAUlAEvhqAqJTIjooYnlqkoV9rz/L2x8u550//4m3NxbSIdwwe5PbhcPhxO0Bj1i325WPr/gA29v28fyyz9la1OY9GxpX8OPHt2I/Ia7rsRO8ax5cTseQ/Jy4PND4/k2MemzXsXvYHTicroG5wUBXAS8sW8O24nbAg9vhGDzXZqujoc7tvcHgsnHXU7z91iPsGnD0Ja5zNa7l+RXldFuP9wvsaK/gvZd/wQ8+Kh+4vp71v3mTD17Yj7jjcUmE3Bnk4cDhEve2UbXpaZ77y/1sqTvubLlxBgiI98T7981vb6e2toKdO8pxutx4RHs7jz1vyjtgP/puHMvbg9s55B3xPh8tO/lo7V5K68SE7uOTx+0cfIaP5tlD2ZrHuXH6Iu7563aaB053u5xD3pevukcp+7evYE21e+B9OcLOHYc4UtuH+LnwuIe+b97rHUrdxC3E++102LFXruEnf/wXz22upFfUz32AZyf8nc1tfXjEuyMc24lks9Pf2ka780QGQPsmHp7zBCuLWhWv7sr5HjcuhYeV2r3rePsvj7KptpPONm9ZxLKF5qY+7EN/g47ebcT//3fPsXDK1NnZqcQPFfFah38S7+VAKTtK+WLtB7xZ0H3sd/4/VaCnlpWfPMcPX1xLWeFuDnS6lG/Uf7rsTB4XWldhzi1i63Z0CI+EZ3+SguvZ38ayhpKAJCAJnJSA6Jzs2LGDm266ic2bN9PS0qKYhYn9Xye5nf10NzfTfNxfG53dViwWF2lXXobZUsGRgzX02kSeHjo3/JWc/F+yrr6Nwvce4rzoOOJiooiMjCBy6T+wdLnwDXHRrnRC3DRs/UiJY1vS2kxzSwttVjuOvp5j92zrpLffiaf7AC/9+FJyI8OJiI4hNu4KXtjbhtPh4rruVcTFxhIZFkZ03HguuP5Z9nWJGrrprOogOSGUqCg1fbYCnp93DtmxcUqYgfiEXM7508ovCZgeVzxmw2jMwlWxy0ZXzRf87tpiVH21dGmGCMXiFh5f0sMzuXHa6AGkHlznJBCfHUmwy4bF5kCRT8XRhve5KipeuXdMei7n/e4LOj16jOapjM2YQ/xXTCceyFQuvgUCDoeDsrIy1q5dy969e5WOvdj39Qd9dMQaXZR9/hF3/G4z5cUfcPf3pyntLcJaxMXFEhG0lOcOdg12mvvaynjlnhgiw8OJVs45+mzGZSzgut++zK7GdhxD6u6wNLH7+esG84yJFnP4J/OzN3Tc8Ooz/HRpNPamXvqdnWx98jKmpJgw+OkVBy+iI3zc3/Qb+cVWHdGdB7Aq94gnTb2B+5Z/zLa6Hgr+OYPMsbHExUUREhxJZGgIEWMncf6jm+kWAy4b/85NUwMwLL6dQxU7WHvTItKCb+WFl1Zg/b/5xNl6qK/ZwFP3r6BZ/Dz4dFO8+gl+d93dbKgdUimxGhxKwrWTmBCsob/VgsPjxtr2BQ/GxRETk8mlv9hE1BVXY9j+InefH0Wsl1V0CikPvszB9iEe4U/IeiRuCvNfEQ903bp1VFdX09fXp4RZ8bIQ34DW1laEMyAxn3J4JwfW7m2s3zDwLXIEEaMNJapmE8WD36ZDlJW3Y+nzftscWAaPNdPc1U2gR8MEHzVVBe/ywsM/4Y2tDVj6nXivGG4MhJMs8b4Kh1kjxYxbmgoPt6dQlkcSkAQkgW+RgOhwC+cby5cvV2L0jRo1igULFjB9+nSEGZLwVHjyD6KDrqpV/Pm823jVY8SgQ9EWuj2JpCbHEp34Jv98Ko4li85lfc8WJhh/xoWpwQTOvIcDW2zYnR1Uh8Wy9LUNPOV/mKKmbtxRuWT2bmTT/hBMk8IINjSwu6CcD966hCf/14/gyDCSb/sjD6je4+L//QyzzoU9Kp/rfvoL7rswmxue/YCLrnmHLcF5TElNwN/HRUtFBtk33Uv17T9i77JlBNx0I15XSM6+GirdYUQHRNC+9n7W+ufQeslf2Pz98YSE+GE/8g5P780j+CvbxE1/VxM1pet5YLWba566glmjQxj8sHrc2HtbOXS4nOraBrqCSyltFRk1U1NTT1eXB2PbHl5on8BN504kOeTo/KSsB9/jofkBdHSVsn2/EXtNKeXVVRxpacVeWooFEyFRoQT564c4CPvKAsqdp5iA0G4cOXKE119/XYlrmZuby3nnnUdGRobiuEaEqviPKSiZ79//U65EhUoFT7x9EU8MXtTGx3e+TmC85qgHbsAvJI1L7i9g3Py9BC1exOAs+849LN/jQ2qEmb7uPlQGPWqNiqLXl/B25Fvs3vBrLDhpra3mUGEzAf7F/H7BOdQGhGFafCm/uPImFt25jBf8z+Pmpyro6LDS0edHkFGFw9qNw9eENtBIlCmYuHHjlHBSopimjIv5e4oWs9FAMTfwrw2zCe3ZzwtPO1iQ1oIjP4m2jkz80eM/cREXLy2m8plPKFy5Cg12cu8eh80/kfC3L2XBygp6/f7ER1/MoL0DwkNCybnyIXKu9GC3tFFf1UqPzQuniobGLsqLqnj/gXYu/vQWJvplc/WG1cxvKmbHDjPh9m5agrO4+I7nuSNnDIpxa/UqNuhmEaWMMnnzkksx4LJv3z7eeOMNxUvtnDlzmDp1KvHx8RiNRmUwpqmpSZk3qdMNccM+DNF5nC5q133Grfe9OVi6zLlzmRsRwfofXcN6lxZfQyD6yTfz7O9uZFpCIGoKeWL893je3zDwO+rG3t+Prc8HY5CfElP7kxVOWn9/D9cvTfuy88DBO53ZFWHC7e/vr7SXsJw6+ff6zJbzVN198Pt6qjKU+UgCkoAkIAl8twiIznh7e7vyV1RUxOHDh1mzZg2iUz5z5kySkpIUs8Mv10pL0KhZ3LniH+QUhBOfAG1HmtEEhxPlKeeI7kayc5LZtWwLaedcTFpCMGpLA9sLKnEeqcE2Yyq6yiKefPx5XvExEhiuQWN8nPbKTqIu/BWTxmXQVVWK+cb32XrTap7cOoW7L47E1d1IQ/EE/rLyMS5La6WsrBmbLQ4/bHRUVFFUdIhSfx06j4cwtQ9hQ7XHbifW3nYa7AaigtU0F9XTeaSRnsADFJhuZn6Ohs07D1Cw24EhQI+zuRwrs75cdbHH1kHh6n+wuj2aG79/JefE+yvnWRr3UuwazcRIHU07X+eG+16h39KN0/gWRpUwZ3NhsdhRq/UY1T3EXPg7+uflKqP6wgyq7B93cv1rKhxmE4HTzsfnt2/w4qZe+mxuDGFP4egazw0P38kNl2QM287UVwP77u8VAz1CM1VVVcWWLVsUEz3R+U9PT2fy5Mnk5OQo75F4p76U3A66WmooqaqjX2UkIjqDMZEumquOUNfaNWD+2kVpo42JiorHg72jhr1lDUezCg2hcft2JeyzssPdSm+vjsqydrZW+zB9QR5JkSbG3byDpMLnuXrB4zRF+OEQsYstTkzBZlwaI7nnXcddt99G1uBozBxu++M9JPl2UFATT06sE3tDKa1hMbhbG+kNTzgqtLqstFQfofSLN1jlO5OrF84Amihe8xSv/HM7Ko2epHk/JWR/Lf1el+EqX+LOvZx706ZyuMlNVJAblTsQQ1Y22q5fcG/mOnxm3cL4SBW4HfQ01VBU1QIGP2w1m1n54lO8vbMPjcFEoNlDW4uTd478jNdWXkyYTUX34Xe49o7n6Go8Ql1PIK/sncWMiaMI2LWczx/ztoCLOT/KRT1J+AeXMaW8VMSzLEyBxW++MDMVlgSrVq1iwoQJTJkyBTGIKczMxWDMcA9/4/bRQtpl7N54HQcrvIbwR2uanu5gkX4s+dMuJTVkqNgTQtwPH2XLby4l1O3GaWujorCQgu0q5t42BW1dDd1OA0HRkQMOGr3khtdSCK7C27NoI/G7IwXX4dU+sjSSgCTwHSAgRv2E+3yhyZNpeBMQH7qenp7BQlosFsUEUnRmdu/ezcGDB5kxY4biWTIhYVDXM3g+Gi12aw/bHvkTz0f5YekyM3HJ9dx0bjhuh4Heqp2UfLGMlqgcEmJDMNRt5jcPPYvH4WB2yHguT5/E799+jEXq9Wwrb8Iw7jImW1fyflM8Rn0/xS0q+ho2s7ZzL+2t/ny26gBmjQ6jxjuZ6VhRoJOyD17jX28t54B2FYHjZzN73vlc4/ZF3VPG6i0FHC4uxLE2nCh9BhefF45+VCDWjz7lA2so3799IakhdWze/RFPfN5Bv06Nj7ODMbffePQmzn6aa8rYU1pPR+keylvb8c+ZydJoX6xFW/i06OhpriPP8S/tz3jrB3nEzbmTTZ9dxqGd62gfv4QMtQW7yk5hQQOBwSnkGtbz+jY9RZurCDk3CeHvetzDy3npkiBamvfw2Up/rv7Njzh/yx4OHbEx7spxVH20D02M4fiYtwMYRGdUvntDn4lTuy4c1XR3dytzwsW709jYqPwJ4XX//v2K4Cp+/3p7e798Y3sPlds/4MHH36c1IpPzf/grfh3YyWfP/o1lm0vpN3u1Whcww0cNbhc9Zat58MG3Fc19U10NurjxmOyddFnd+E+6kEvGWFixJ5SlV2TS6AOxHvAVsplWT/DCH/Kj742io7GO6sM9pE7PoK+oEd+UFMIHhVYwxzSw+pl1tMQsYXbqdn7/bj0zr7+F0E/+zBvtqUy9YirdXYEEaJvZ+9FrvPjWIbLuuZBAo5Y+dlAT/iue/eUCKvrtHPpoE9X5FcDlR+uv9idI3ckHX7zDu1ubMM26kT/dmUdCbSXlEd0s3z2N22pWsabZj9SscXTu+ogH/7qMnoixLPzRQ/z+xQVMfnM3+jHjmDnVxbsvdrBg0TjCAwZCV4X9iI2fL2L5E7/iqZ15/PrHuZj8/GhOn8D0wRbQ4HIZsDv7RSRmRZMmDol3RZjDCpPZkfitEs+o+L0XDMT6gQMHKCwsVJ5j8dufnZ1NYGAgInbrcE8q3Pjbinj+Dy9yx19WHFfc3MU/YOG80fjaltExbgZZiZEYtOIlaaJ2y37WfmrGZHPh6lcTkxJOgLGW5q4KGt55gVJVPudddyGJAcdlOaw2hDZcWEZ5n+dhVbjTUJihQw+nIXuZpSQgCYw0AmK0T3TsPvzwQ2Xu5Eir/3etvqLTUlpaelyxxZwm8REU810rKysZP368si32fSmJkWqNH4HnLOW6qaE0lPcROjqK6EQnO97dTWFvC0m3/ZYF2UkYhSVs2iV8snwx1Suep3S0P70ljWza+iYWVRU1Hb3o69xU9uyjKf58sseMIjPSzQNPL6P6wBoaIjs4vMvK7Pz5xA8JB+QUzpRswvNKBJPv/l/SJmUdNRX27aDcP4mOj8uJsu3h0TfeoaPDTvbEa7guz0wvvqiarVgMBsYGuagtO8SRAB/cqVO5KCkIrUmHu2MXXpdKOCzUFG7kpdc20ddWT2dSLgtaSti7bjOrdvcTGhKAwahlyT1P806iRpkT6BVFcPXRWnmIApuLiAQdKh1oQ8042kGX7o/1L2soGBtGqAFatnzIm04jPbYW6pmvzKF1GtXoo6IJpJduqxN/m2awAz60TUQn/N1331XmKw/dL9dPDQFhXikcodTX1w9mKGIqCu5CiBVzvYUG5CvfFd9gxn/vblZOX8jnuw9SH2AGo5PQmdfw22tSyMgMHczTuxIy+UZWrrye7tqdbP1sBfpz7yP0yHYKDtSjiw7BcaSR6+6ZSV52MgFDI2HYrDQ8dTsLn/Lm5F3O4NZHfs/084GeWtZv209DRz6LluaDrZll9hlccZENn55myLmO61DhaalkT4mOnNxE5t/5MJPzP2K7n5jcLdL5LJpiYfXFz7E5yIOtewZ33zmd2kZhkdBN+aFdfFLSTMjUJdw6MxA/lZ7WrTsp/2I1m8bks3Sciu0vv0yFfzDfHz2TuYvvZOXURRSUltAYFYFQdU2b0ENnkB7PwCzbgRsfXbhd2LpqaYlOYVK6lTbx3QkLZ/ee3Tg7mmj36DAFTGLh7CnEuVMQ0cK8zl2ENlGEESkpKeHZZ589LtuRsCGe2V27dg0OsgiNnXiWxTNcUVGhzJEOCAhQ5rgOdx5ul43qfe+xpd7MxUsW0N7aiCY6BW13J47+Rsq2f6b8jqc5Y0mIDsegVStVcrXt5oOXDuPod6M1TOee36YSGFXIpg+3Ejx6JrNnLBzWQquohGg37zf7K393hnvjfcPyScH1GwKTp0sCksC/JyDmxwjz0rq6usEP4r+/Qh49kwSE4Cq0SN4kPoDC7EgIq8JUeNq0aYoJZHl5+VebIHlU+Hl0+DkOsX79ISAOH1MDhzv80W75mFXaeTxyRQQB7n76PHp8fY431evv6aRo52EsPq20WWxoa9so6SwmZP40RAxdU/YcHvvHVApe/iNPto9mYaCbMXPnYq5byZaBQlutfVgtwvGKUCN1UbP/IBubyyiJCCEtsZR6VSJXZOfx8j/POzrH9apJSgcWeqioOURtVRWi5GX2KNLTE3A3lLGj0YFTr4b+WgIuHLiRXwgTltzGG0tuo2H7CvY195I0+3LSTC0sWbOPgsMOxi+eQVaMGY0PHDUcHrjWbafb7sasMaPq7EDrYyYyVIelCkz+MeT9XE17gB4fB3QXb2NDn44+LajGTqeusJCW7h4MSdn40gJBJgxGX4bKKd72Ex0X0Rn/So2f9yS5/K8JCMFVvC9eU2DxvojfvEmTJil/wsRSdPyfeupLEuOX7ikEq8amdrqGelYaOEsMGoWGhg6YaKoxBY5SHI599M5raK06osNVtO1dQ2fi+eSnnSC0CoVr8FgW33oribix9nTR0WIjLCkSndWM3tRLZYuVCE8rBXt3UFTZTFvhm+yf8ALrbtHw4KPLaSrdjWv0VGL9IklOzmTfJ/MAACAASURBVCN5Qh8WFwR6H7qOcj7c3IMZf3J81BjS8pg+xkNNWwgiIIfiV8lpod7uhznQH3rqKO+00RdkIuR9O7N+9Wuu8t/Hlb+q5vevvEqq2itOfgkTYeMSsaytpcXaSItLy1AjbKejkbKD3SRPO5cA30CWXpVIS+E+xphNHK4p4YjbQGhUDESHEKTWHJt/PkTjelIN+ZeLclbtOept2j44yCIGXMaNG6doWMXvf15enmJpM9zNhEWjqHUmJl/7Bm9c66atopC92/YRf+HFOPcdoMdtImt6hmLuK0yiTXphh68Gaw/6mx7ljVtTaW8uYd0n3YyNDaC4pIkD2xqZccW5JBp66LJo8NX7oR+mEpMYgBBWU0LrKn6PzvY0TJvhbMcu6ycJnL0ExHzIW2+99eyt4FlWM9EBX7lyJR988IEywi46LmPHjmXWrFnKXCdhKuYdif9S1T1OemoL+PyTAhzx8Ryd1mZE13WQ91/QYoo5h6tGadhUWkmkwY4zN4NEXRtb/voKlXER6La+hT1+MY8+kU+aqp7G7i46O2qpPVSMOzmdwAE/N017PqUscDF/XAAfP/EC6x0pTIyo4cN3/kBFqIU6dxiTpsUys6uSFasOUt/sh9HZTWtZATuKMvnBXUsxA0fFczeW5kYOVXURlhOOU++HyVt2VwWrX9nO7m436WPjMBg0uDq72P7u4zzRMIrZl9xE1nFKMTuNBSvZua+JqLRouvra2PvJ03zeKcLwqJhz3c/JE7a/ImkDSMrMIaOnlL1FLiIyEgjT2zjU4ERtBv/MqYRWruJvr35EdXAs0+MD0WpjCVEX8N4qC4nTzmVGvC/0dNHjdhCgH9TlDtzg6EJ0Pm+//XbFzO+4A3LjlBAQ81vF/G/R6RcxE8W7IkwphWOb5ORkRdu6adOm/9iB7KouZFNVM7EB6Tg9J8bHtHJgUwF535uJumU/H7ywinpfLX5GDf1tFvrV0QSk5XL++Vkc3L+ZD5/bRmjORZyfl0KAr7CWaGD7yxvpVZ5rNz3trWg8fcTFx6MPMGML1+Gw2HCOGs9P7huvcKnflsKqqnZe/LCZ5JRkpmREU90Wzejxs1l8SboijHoBWi2lbC5x0mMLIi5zOkt0/qSEruGzJhVhucn4eYPtGKOYkRvFDKbAkbU8us/NnHFjoekZ1rz7N9ZqE1k62UBHkw9EH83dZW2lqGQ/66ra0bZ+wCafuUyPd9LXVktxcTOBSePQGwakZxHGq6mOuuAxTDA3iSEdxUu4vbeD5iNHqG1qptnti90JvX6J9DuPhvTxDp2JuZvCqY0YoHv44YePFmAE/RfCzosvvqjMyRYchIOx2bNnK7/9QtMqBHoxAC2e9e9Kcvd10N58CFvsDOINIIzWh6bGpkbitHGKwylrUQex+dkcWvsH3t1jJybrZvqramgr1pM3yURz73527gojJDaa8KgY9EMzGkbrYqBS+KgQv/1CY362Jym4nu0tLOsnCXzLBISQ810Yof2WsQzr28XGxnL11Vcrwo7QlouwHCaTCTF35j+2pTBTUquPemW0NLKlvASf6InMT0wlc3oOWUFVrNhXwOMvryTjzkeJD66lXu9LSOYUIso/ZmfxVjZ//P4AHwfNxRso6jSRPLaa3qsvJGzHTpqCoxi7JJOgUD1XPBBJ4YZOzOETGR+xH6HXjI8bxegkMQmpHZUqlOwF+WzfuY0en/nMz57N7KAiXvz5G5Tr9aSOSsPnmc8ImToecx/4qFTHyq+UIpK8yceaSx0ynhkhoFapj3Pr4usHh3cX0GqIIdwvmJjwLG75yTk0bnyNFXvb6HepjjufvnYKPl/Blko7U+dPxt+xmZef/IzGvnzOzQvGoAaXjwp1YDYzx4n5VlbK971N9eJLmZ05mrHxgRQuf4HlZV2MmjCXSVFeU81jZfWuiTYbCSPv3vp+m0utVqu8H0uWLFE6ikIrJbxvi06jmCbxH98XUVhDOCmp45gaZGJU/DiS3QWs+PhZXn5Fic8EWImOnUdktw9JHDXf1JlDGZ2ZSpT9PbZ3BqAzBGOOjiXb2kxd/QGsFXspSoxigs8BfvdMJWnmgXcSNYFhUQSGDVASGpmeCra+WoltahI9xfvYf6SBPiA+I0jp+Op8DYzOm4t+/TZaSvay6ZV2ci6ZRuyAfO2bkEGanxtjnZ7EjAT0OjMzH3yIqZZSPn3waZ7f6SHzonkgPBof2syqjz9hf1k1Fb2+FH0egHXf+3y6s4bO/lHM/8FkIrYUsSp9MTfdl4uuqZQDTWaiE6II7tnP5+89y/JG4Wyng5LtrQQnb6NknUEx9513y/8y15hAfn4AjjoRULmPpv1b+XzZOsTkh7DsyWSabTTUttF5eC0HKzKI9Tfgd0LPd6S+L+L3XQir1157reJcTKyLgUoh0IvfD2GNIwZnRBLC63D2LGxr3M6rf11GtcGP1MnTyZs8Cl+cBPn1sGHl+7y13KNYqLS1mbn4JzcwZ1QNG6tjmXGBmb6NOnxVauyVz/P0plQmTJxGfraHQyU7+Pj9IhJnzuECobUfpkkMpglNsviOn+2OmUQTnPD6DtNWkcWSBCQBSUASOC0ERKctJSWF+++/X+mkiJF20Tn/Wh1wHw3m+DyuvC/vaNn62ymsr6e+L4BJMSEEBgoHKuFcZQzCz+omOsgPtV8ic+7MQ/Sj3WlRBBesZ42PabBuycnpTB3YiggIJCA+nqCceYwN9lUEQZ1vLDnzY4FM7ht/3uB1R1f8WXjxKOiqoKWxET/fMZyfH4/WdYSo5GRURiOZE6eiLm0hJD+dYI2OyBnnkzJDTPj7ZsmckEXedB3WoDQmjovHPPA1TZp1Iz85wQmx2hRIVPY0xjfZ6AgPID0zHn1LI5GxGcSMyiM5MhBFfzp6Hj+5U3T4wWXvpeLgCor85rIg0YweC/2hUST7jGbK2NHEB8jP9zdrsVNztugYivdFdBLFeyIGeL5xZ9E3hOxzlpLtLZI+mYzmdnzr2r17GDc9h1CdCt+gXC67L1fRJFpay9nbOIac0WmkJUcoHfHA5IVcmbwQW90hGo1aVI5AkkZncO71Vyvv2GCG3hVrEzsPH6LGr4+woCB8Y+NI0hkREWfiJl3A/DHBqLwqycm5dFVXUXPIhn6IBWJQ8iK+n9zJoTIbscF+KH5uxFw7tYHQ1LFkBIaRlyzMJVzoDIFExidjMSWT7C1DViZzrvFuiKUKP2MAOh81+sB48vPDSYrUgzWVAL+d7Ck9anSfPJjB0WuDDSpUkZGE48ISmMSkyaDzgcjkZMVDc9DosYw2Wgj0rabFAmH++mN1G3r7Ebou4n+KgRdhFiwGXsTf0AEvsS7M1cXcbRECSlgUDNek0vkTnZyMxhzM2OwZpCrytoawxGSyJ7ajrj46KJScHEFEkBGVxkl0bhzRah0+s+/jJ/ntHNr5GYcSJzPlvCRlmsfo8GgCdOW4wiMxDXn+hxMDMTVEDCqI6QtioOFrfbeHUwX+i7L4+Pv7f4W3jeNzEh4KZZIEJIHvBgHxkXniiSeUkdN77rlnRJiOfDdaZviWUnz8xN/QTsuJpb3rrruUzvrNN9+smNedeFxun3kCYl5kfn4+y5YtU+aqnfkSnZ0lEO+KSCfrJG7YsIFHHnmE559/nujoARvYsxPFd7pWwsTypZdeUhwUPffcc9/pupyOwovnXITL2bt3ryIUzZt3dFDtdNxL5vnfERDzW4X/CaFxTU1NJSzMa1rx3+X3XbhqmI4hfBfQyTJKApKAJHB2EBAd8H8ntJ4dtZS1kARODQHxvpxMaD01d5C5SAJnnoB4xr2aWKHNE0KSTMOLgBBYRSgnMUAm5imPhCQF15HQyrKOkoAkIAmMMAIVlRXHeUt2OFrYsPH4sD8jDImsriQgCUgC34iAMIP3zuGuqqpSNK/fKAN58mkj4I0jLULWCadMw3kO8qmEIAXXU0lT5iUJSAKSgCQwDAh0c+S9u3lpUwU9Aw4x3bYe6j98kQ1tQ4rXVsQ/H/qBMmdRzFtMSbmYP//fn5g7d8aQfSlkTZzG79Z3DLlQrkoCkoAkcPYTEIKrMD8VHog3btyICAcl05knIMy4xdQQEXpLRAIICQkZMVYg0rvDmX/+ZAkkAUlAEpAETiWB9oNsNN3M5elxmLQF/P1JOzfdGIEudiJpR51kHr1bUCpX3/s4F124ls8b/YlNmkCO5SMM45/hvHQNm57bTN4t52EseIVPAoTXYpkkAUlAEhhZBIS5cFZWlhK7eNu2bUq8YhEzVKYzR0CEKhImwmIOck5OjmLSfeZK8+3eWWpcv13e8m6SgCQgCUgCp5WAh7aDm4np2875cyYR5D+FdduK2eu2UPPFj5k/45esrrXQZ3fhUanRaXX46bRotFq0WpXidfTN/7mEiZl53P6HnzA1PYMZt/4T9QgI7H5am0VmLglIAt9JAsIMNTw8XHHO19raSn19vZzvegZbUsw13r9/P8IJnIhBLEIYjSQfFVLjegYfPnlrSUASkAQkgVNMwNlGYVs88VPz2HPbr+n4+Fl2511GjrqZhnOfYdn5Qbz7yFLezP0dj92USNnzj/OHh59lvUuFRqvjigsWcs49r/L3CSq2vrSNiTfMw1j4JhtOcTFldpKAJCAJfFcIiPmTiYmJSugVEbnAaDQqoXJESCiZvj0CIvRNdXW1EqJImAiLmOvfOBzXt1fc03InKbieFqwyU0lAEpAEJIFvn4Cd7tLDaDLH0VvdRmdzD5tbk5kZrhYhJQE1gQkz+fk/Zg4WbcKtD/POojmsrPcnPmUCGd0rufqe+7nm9/V0tfRiXP4UgcER3PXM4CVyRRKQBCSBEUVAeBgWmj3hC6CwsJCioiLS0tIUTezXjvs9ooid+sp6Q9+ImLrCYZYw3xYDCiPNw7kUXE/9syVzlAQkAUlAEjgjBNo52GkmLi6Gqcl7+eDtdbTNuJlgjQaPIrievFBtNYdobuml1d/AzT/9JdDFhrf2kXnpOQTr9BhNvYDp5BnII5KAJCAJnOUEgoKCFC2fEFwPHTqkeG6PiopCzHkdaQLUt9XUwhGTEFoPHDigaFsjIiKUAQS9Xv9tFWFY3UcKrsOqOWRhJAFJQBKQBP57ApFMnRYJ9jZKtrnoPhhEVMQaVjZoSJs8lajESHRDM3dZaCgrpuhQHQd376Ck5MiQo3bqD7eypW43emMgCdc+xMRoKbgOASRXJQFJYIQREMJpQkKC4gyotLSUw4cPK55tMzMzMZvNUng9xc+DEFq7u7sRrMvKypR5xtnZ2QSMYGeBUnA9xQ+ZzE4SkAQkAUngTBHopWbzdnbXNVC1w8iMh/JpfuxZ3m/vptXRgaYXSl8qUgoXGJnAhAljaS7axecVBs679dfcbS1g24EaOvrFKWa0Tht+ajvdPuBr3U955yhGB56pusn7SgKSgCRw5gkI4VVo/cQ8VyG4FhcXK3NfvQ6cpAD7/99Gbrcbi8VCXV2dEopIxGqdMGECY8aMGfGDA1Jw/f9/vmQOkoAkIAlIAsOCgJ3uIxWUtISx6N65ZEaaUT36OAs9HkpW3M0zm44VMjIFUibOIvfiW8lVdvdTub6S0sKD1PeIHWlceksuJf96iwNuN+aQKJKmwuhjWcg1SUASkARGLAEhuKanpytC7M6dOxVBS5i0CrNhk8mkxBb19fUdsXy+acWFdrW/v18Jc9PV1YUIeSMEV2GePWvWLIKDg0e80CqYSsH1mz5Z8nxJQBKQBCSBYUogmIwrbybjxNL5+DBmyV/565ITDwzd9iVx5o387JjfJuXg1Efzhp4k1yUBSUASkARAEaKEc6CwsDDOOeccRdCqra1F/AnhVZi4ilA64k94vhVCrNgvtmVC4dXX16cI/EJgFYyE8Nre3q6wE3OHJ06cqDATsXQlt6NPjRRc5dsjCUgCkoAkIAlIApKAJCAJSALfiIAwGxYCl/A4LMxbhcOg6Ohoent7ETFfOzo6EF6HhYArNLTivJHqVGgoWK92taenh87OToSGVQj1wtw6JiaGpKQkhZfYN5JitA5ldLJ1KbiejIzcLwlIApKAJCAJSAKSgCQgCUgC/5GAELDE/FZhJiycBwkTV6FJFPuFoCZMX6Xn4aMYBQchwAtNqghtI9iIAQCxLYRVsS5ZffUjJwXXr+Yi90oCkoAkIAlIApKAJCAJSAKSwDcg4BXKhmpWheDqcrkUraxYl+moqbUQ6oWQKtPXJyBpfX1W8kxJQBKQBCQBSUASkAQkAUlAEvgGBIQwKwW0bwBMnnpSAqqTHpEHJAFJQBKQBCQBSUASkAQkAUlAEpAEJIFhQEAKrsOgEWQRJAFJQBKQBCQBSUASkAQkAUlAEpAETk5ACq4nZyOPSAKSgCQgCUgCkoAkIAlIApKAJCAJDAMCUnAdBo0giyAJSAJfn4Db5cRmteH6mpd4XDZ6e+248eDxuHANXujG6RTbQx1FOOnrcyCu6bO5lTt4xP0sFhxHN7/mXeVpkoAkIAlIApKAJCAJSAKnkoB0znQqacq8JIGzlYDLSnNNI90OF/iYiRwVielU/Hp4nFg722hp7caOgaDwALTWLjp6rTjwIzQ2kkA/DT5erh4bLcV72by+hczrZuDf3kKPzXtQLM2Ex4bi773G46b78Hv8z7+CeeTP03E1lVB2IIDQUeLcJooqVCQkZDEuRUNHQzMdfQdY9j4smFDOa0V53Lw4HrW1lGV/W0bkDXcwKUiLwT+E0DB/9HLYbyh4uS4JSAKSgCQgCUgCksBpJXAqup6ntYAyc0lAEhgGBLoLePmu+3l6RQXmydfy1/cfZlbooDj53xfQ3sqB5U/z2wdepZhzuO3xq0nc9TqP/f1zGmPm8cBrf+Cy7FB0ipDowdHbREtrFb5zZmBd9xZPPfcEn5V58NGb0fQ20ae9hIdf/RkX5ETg6y2VWo1PbAA+TUVU7NvPyz/5G3uCfcHeQ2v0PO65P5axUR0s+80veXJTDZPnTOWDDwuwW/7Bu8/O5cc3hPHixtW41q/Eokrnwqtu5Sc/XcJoo/cGI2fpDWkgwhrINPwIuN3SLGC4tIp8V4ZLS5y8HN7wLCc/Qx6RBCSB4UZACq7DrUVkeSSB4UggKJ97338MdcRq8tfczRTdKRBaRT31kf+PvfsAb6O8Hzj+lWRZ8rblveMZ2/GK7QxnEzIJGUDYhJGWXdp/gdKW1RZoC2W0rEKhBVo2NJCEkED2IHs6w3Ecr3jFey/t/3PyiDNJGI0hv3uexCfp7r33Pnc63e/exYgb7+S3RxMoJYKLLhtF4GVhdOzIwPeJOYxP98O5x8NqbqUo9xAF5mFM9qxnO8HM/vXfuQwV+tB0nHMWURc6jKzk7qDVVJPLhr3ltJTvpSy3kDVfHqYq6CamPPkhz07QU7BpLes7w8mICcTZy48ZP/s56gkNhPj7Mfey+0iN2MDj68NJG+THf15NJa9di+ugi5mVcAFGrHSPOVdYWMiqVascA6QPxNP0Qs9Tc3OzY6xEGbj+/J4Jin9nZyfr1q3DYDCc38zI1k8rYDQaOXToEPJ9OS2RfCACA05AAtcBd0gkQyIgAicL2DA1lpG3oRR7RBMLV7mjdQ1lqHMVZW0utFcfpFHtQV3+AXZrPRgxOARL6Vf8+601tDceodw4CM2t9xNWc5DCTdt5ffcePnp7N+5j7yQhNZmOQBtFxd5EOy1h134biz4bzuP3FjB05EziVcUszmuloM2Tkc2fs7QmmpS0dMK9LqzL5+DBgx1B63vvvXfy4ZF3BozA8OHD8fDwGDD5uRAz4u3tTUxMDAsWLJCgaICfAGq1mtGjRw/wXEr2REAEegUurDuv3r2WvyIgAj8sATtotS5ET45j5cP/ovOSn3PrjZlo927j8NFiTKGexPu38+WCpeTZQkmJCcYv6zb+cq+GDz7fQsOhIOpq83ExqqjesYmKMBeiJqXQXHeIfftqyIhOYfTlwcBwslr2MnxQAVWN/uiNC1igMWD1y+Im3XIefW0Z+szr+HVsygUXuM6dO5epU6c6SvR+WCfPhZVbJycngoOVc1mm8yUQFxfHY489htlsRqkyLNPAFVACV3d394GbQcmZCIjAcQISuB7HIS9EQAQGqoC5q5E9n66mJEiLT8sWViy0EOOjQq+yoPP2wMs9iUlzYxmcmYzBRQ3VO9hwsIgj5TW0tLnT4ZfFOEMtup8+wPxMd6qr6rE66wlOTMDg3EDuh0tYU3KUNqBt/8fscJ2Adttr7Iiaz8+HF/Glq56LbvsNI5KHkRmiG6hM31u+fH19Uf7JJAIicGYBvV5PeHj4mReST0VABERABM5ZQALXcyaTFURABE4p0FrGyhVfsLLci5mXTmJEtIHv+gKjdXEhJDaue/PtR2nyMeCelE2gqYBFX1URlHIx/t5u9Hb4G3nRH5gyYgEPfzmYu4cFUVhYC66u6Oz1bN2VR/Co8WT6ao/bncqDubgnXMYEJyeIfoi+SmSu/kTHppIZ0tft03HryQsREAEREAEREAEREIHvT+C7vq/8/nIqKYuACJw/gdZcPnjqRRa25rLpXm8e+uNPSfc6oYMmjQ4f32CCj+SwdV8wQYZsYry/5hJjaiB3zULe/fRjDjEc6yg9kXmf8VnuSlr+3AB/uYeLY7xwUqnQePjj41LM2txuhuLWOlJC5nC5t5VVu2spb67CXlNLe3QQns4aCMxiuN1Gc+HxbOaGSiqP1uAc7kneuo8oKhrFtZdMIOnqG0lqPcCC//pQtiOHvP4953oEMWToMKYk+XPhlbUe7yevREAEREAEREAEROB8CHzNXeX5yJJsUwREYMAJOBuIz57NPW9NBU04/qfqVdg1gMzxl5KaOoTCVmd8dCcEtqfaKY0eQ0QGM+/1YTyBJIQE4O40nnnPJtJGAIO8dN2lp3Y7ttY6GDSRkZo6yg/n0uVnZPdbD7M+ZARpF8/mlmlpNBZs5M+/3s9Vv53FyHDY+tLPeGFdNQFXvd699aoCDq/cQscdtzFzXCDNg4IoLq6mtOooBo8IvDvL2JmnZlj2WEK6x+ABjNS2NNJe0YFGaa52Frt1ql2V90RABERABERABERABL65gMrT0/Nrew5QutiXSQRE4IchUFVVxQsvvIDSs+V9992HRqP5YWT8jLm0Y+tqpV3tiYuti7amBqw6C5V5eRzVhpIQF0uElw5zYzG7ci1EpEUS6A7V+zZwoFZNWMpoEvw1dNaVU1rUiFtCMmGe3c/tLM21NKtdcXdzQ2ep42Chmci4QFydeiscW+nqbKW5WUtg0IU5FM4ZD418KAIiIAIiIAIiIAL/AwEJXP8HyLIJEfhfCvw4A9f/paBsSwREQAREQAREQAREYKAJ9BYpDLR8SX5EQAREQAREQAREQAREQAREQAREwCEggaucCCIgAiIgAiIgAiIgAiIgAiIgAgNaQALXAX14JHMiIAIiIAIiIAIiIAIiIAIiIAISuMo5IAIiIAIiIAIiIAIiIAIiIAIiMKAFJHAd0IdHMicCIiACIiACIiACIiACIiACIiCBq5wDIiACIiACIiACIiACIiACIiACA1pAAtcBfXgkcyIgAiIgAiIgAiIgAiIgAiIgAhK4yjkgAiIgAiIgAiIgAiIgAiIgAiIwoAUkcB3Qh0cyJwIiIAIiIAIiIAIiIAIiIAIiIIGrnAMiIAIiIAIiIAIiIAIiIAIiIAIDWkAC1wF9eCRzIiACIiACIiACIiACIiACIiACErjKOSACIiACIiACIiACIiACIiACIjCgBSRwHdCHRzInAiIgAiIgAiIgAiIgAiIgAiIggaucAyIgAiIgAiIgAiIgAiIgAiIgAgNaQALXAX14JHMiIAIiIAIiIAIiIAIiIAIiIAISuMo5IAIiIAIiIAIiIAIiIAIiIAIiMKAFJHAd0IdHMicCIiACIiACIiACIiACIiACIiCBq5wDIiACIiACIiACIiACIiACIiACA1pAAtcBfXgkcyIgAiIgAiIgAiIgAiIgAiIgAhK4yjkgAiIgAiIgAiIgAiIgAiIgAiIwoAUkcB3Qh0cyJwIiIAIiIAIiIAIiIAIiIAIiIIGrnAMiIAIiIAIiIAIiIAIiIAIiIAIDWkAC1wF9eCRzIiACIiACIiACIiACIiACIiACErjKOSACIiACIiACIiACIiACIiACIjCgBSRwHdCHRzInAiIgAiIgAiIgAiIgAiIgAiIggaucAyIgAiIgAiIgAiIgAiIgAiIgAgNaQALXAX14JHMiIAIiIAIiIAIiIAIiIAIiIAISuMo5IAIiIAIiIAIiIAIiIAIiIAIiMKAFnAZ07iRzIiACXytgtVqprq7GbDY7lq2rq6O5uRm73U5paSlqtRp3d3e8vLxwcpKv/NeCygIiIAIiIAIiIAIiIAIDTkDuYgfcIZEMicC5CVgsFnbu3El+fj6dnZ20tbWxf/9+9Ho977zzDr6+vmRmZpKamiqB67nRytIiIAIiIAIiIAIiIAIDREAC1wFyICQbIvBNBZSS1YaGBt59911H8Gqz2VCCWWXauHEj06ZNIykp6ZsmL+uJgAiIgAiIgAiIgAiIwHkXkDau5/0QSAZE4NsJKCWrEyZMICgoCJPJ5Ch1VaoNK/+UAHbQoEHEx8c7SmC/3ZZkbREQAREQAREQAREQARE4PwISuJ4fd9mqCHynAv7+/tx8881kZWWhUqkcaSt/ldLW2bNn4+Pj0/f+d7phSUwEREAEREAEREAEREAE/gcCErj+D5BlEyLwfQsopa4ZGRmOdqze3t6ODpkCAwMZMWIEgwcPRqfTfd9ZkPRFQAREQAREQAREQARE4HsTkDau3xutJPxDEFCq0zY2Nvb1yPtDyPPp8qj0Lqx0wLRjxw5H50zp6emOtq3t7e0/iv1TSpCVANxgMEjp8elOAnlfBERgQAgozTSUHt6V67JMA1tA+W1RHv72PvQd2Ln98eZO6VhSGRFBF7ZNhgAAIABJREFUpoEtoNVq8fT0PG/NzyRwHdjnh+TuexaoqanhjTfeoLW1FeXL+EOelE6Z6uvr0Wg0jp6Elfaua9euZevWrT/4QE/pgEq5EQwODuaee+6R3pF/yCeq5F0ELgAB5Vr89NNPO65VMgzZwD3gym+L8gA7KirK0dzG1dV14Gb2R54zpTPJxYsXOx4g/Mh39Qe7e8p9pjK0otIMTSkcOR+TBK7nQ122OWAElNLWFStWOKrUBgQEDJh8fdOMKNWDY2NjHU/5lUD8hx6M9zooF8vc3Fz27NnD3Xff3fu2/BUBERCBASmglBwtWLCAG264AaUPApkGpoAStObk5FBYWMh1112HBK7n7zgdOHDAUWNMOQ4yDUwBpbBHGX5RaYImgevAPEaSqwtAQPmhUi6Uypewt2OjH+pu9z49VqqnKUHrj+VJv7I/Cxcu5JVXXvmhHhrJtwiIwAUmoFyDb7zxRkev7hfYrv9gdrerq4sPPvjA8fvyg8n0jzSjyv2XMnTfL37xix/pHv7wd+vgwYO8+uqrfUMuno89khLX86Eu2xSB70lAufA7Ozt/T6lLsiIgAiIgAiIgAiIgAiJwfgSkV+Hz4y5bFQEREAEREAEREAEREAEREAEROEsBCVzPEkoWEwEREAEREAEREAEREAEREAEROD8CErieH3fZqgiIgAiIgAiIgAiIgAiIgAiIwFkKSOB6llCymAiIgAiIgAiIgAiIgAiIgAiIwPkRkMD1/LjLVkVABERABERABERABERABERABM5SQALXs4SSxURABERABERABERABERABERABM6PgASu58ddtvpDETDWsH35x7z0xg7aqKK8vILqajvKeKl2+yFWrS6lpdVy3N5YLBYaahuwY6R08z9547kH+KriuEW+3YuD7zLsl++T29KF/UwpOfLYm1e7Y9n6lQ8x5LlVNHdZevah+/P+yRzd+jwf/vev7Kk99q69ZhX/+ryEDqPt2JvnOGffvYtdSp561us27Jc/R37PMVFZXAREQAREQAREQARE4IIQkMD1gjjMspPfXMCO1dUZlY8rzsY28l5/nGvjDfj5+eHnk8Wlz77L/tYO+sI5u5W2ig0seuZq3t/TSIM1noCwaUS6NNDQ0EBDWycma2/o9g1zZTWRNTQW1/Y2GpU0+/9raqFNCUrbC1j0u/kM8/bCy9sHg+80/rwoj6ZOM7fbtpIQFY63uzvefpFkjv8DG+qP5cVujcTDNRI3V8BqorV8FY9ccQAncykNmr49PbbCWc7ZU6ysHBTHr7+opqF4FY/P9Ot2VCwd/67kD//OoeEs05PFREAEREAEREAEREAELhwBpwtnV2VPReAcBGxWOltqOHq0jIrKKo7kbGKhqY2SwfP4y8pHSY7XULfrc15rHU6UpxvdT4DsWJqrKcqpIGTek5S9MYrZH5uxWO3oXHSolM1PvotXfvUTpsR4n0Nmjl/UajWz66XbmPiHlu40+38cMITpd/6eJ2/MYPZjbzJxznXssAcQl5RGiLONhuWxhF12NaW//C07nnsO/a/uY2j/9fvm7RhbaqjIW8O9y+zc+c48xkb6oOn7/Nxn1E7D+FX+AUw6HToCeXRJPY/2S8bS2UBduxUnJfDWO528b/2WlVkREAEREAEREAEREIELS0AC1wvreMvenqWAzdjM3k8f4+4XN9He0U7E8FlMuHo+UbsPUZZXw76PXuTJt1y58ul4zHYbNrsGla2Zw588w9NtM7g/FPyuf4+XRhRTXWNl8KhElAJMx2Rpo6nTDS8X7TcKzpqqK5n/wlLmZQbjqu1NVCkc7aKjtQm1VxBumGk7WsnhvMPk2+rp0nrSoHPCYDQfWwE75q5GKtr0hPq59HsfMDaw9/Pn+Lw5lv+7+Wqywzwcn3dU7yXfHk16kPvxy3/dq44a9hwqx5yXR8Pk6aQ2FlHZcvxKHSWf8H6OExMuv53Z6SHojv9YXomACIiACIiACIiACFzAAhK4XsAHX3b99AJqFwNZ1/+FhRlfsnBtLoebDFhai6k+lMv2JV9y2MeV4KSjfPq3d0lMGcyVQ/3RWEr56r291LKXXy8+Ie1F/V7Hz+bB+69nbLSBfnFnvwXONGvGqEsmoG0PG9fn9pT0di/fUXOUypIyUm//LdmGVopXLuBfL73DFpxxTR7HuItncYOTFr2xgnXrdnKw4DCWdSvRNCfwk8tjaS8vZF9hNXUH9lLY0Irn0PFcF+VCx6FtrDrUvQ3j4ed5Vf8H/nvzUJzPlM0TP6vYxCMPv4qxrYYEdQg1O5/gXxs7aW9twznAC7XRRuasn/HLW2cSHKA9br9OTEpei4AIiIAIiIAIiIAIXHgCErheeMdc9vhsBGxm2sq28/mSf/PJygaawiaSedlYkieHMnL0DFQxwXg17yPHnMTFiQaclbrCulRuXbmcG1sqOLB8K0UnbceL6NQ0EgPcsLrpHMGZsbKS9qAgDOqzbW5uxBKdSdDSv/DKujo6zXYslkZqa10xuGnx8JvAMEdEaSBl3r08OSSlu6qwt5ZGN3+M65sJs+by1L8WcDSviKChN/P8JZ40mlop27WCV9/fRGddBU2Jo5hVsYtNezexcrcJf38vXFycmPPg2yyMhDY4t8A1bg6fLZlFx9bn+bd+PNdflsXEAzvIr3chadJgLIcPsL/MCZuzHRed87eqknwSu7whAiIgAiIgAiIgAiLwgxeQwPUHfwhlB74XAZsZVFrSrv8naeO3sKsxmRtTXVi75ggEeGApyeG/u+oYf+MIXF37t/y00V53iGUvvsGh+NB+1V3N1B1WMeIWV4KvG02wUtTaWcaKF55n42U/5/EREV+zG62UrPmK7YUVNCtLajIZN1GZUaFSGTAEBhARpqXwyyoC+mrxtlNTcIit+zayIySMxAgPao2hTIuaxDvvXMGWZ55Df0c2/j1bDrv8l3x8+S+p3LSQPU024sZfTpxbNbO/zOFgmZ2MS8eSFOiKWgWeyjqWLqoOb2fJ7nqi0kcxLing7EqQbWaaCnfwxXvvUzZ4GIX/3IdeVUlueRtHrFoCLsrAR65MPUdF/oiACPzYBUx1eawvMBIVF0eUr+spa5yY26o5WpaDPXQKkS4WzHY7Kmctjktllwmj1gmtRn3cunZzJxXFu9inHsKUICO5ZRV0esYzPLTvR6KH1khpaSuhoQY0mrN9iHqKo2K3Ymwt40hLMPFh37Kxh6WV5jYjVq0fBrf+2zJSdrAKn9hQ3LX9fyhsdHS009pqIzDQjcYjVbTjjG+kC83Vdrw83XBx6f9b3T9Nmf+hCRgrd7Kk1o+piWG4O5/6uHbW5XG0sQW30OEE9rbV6jpKfo0rkcGe6LSOnkdO3vWuBsrqWjC7hhJtOJt6cTY6GkooLS7BLX4i4d0tq05O91zeMdaQs7oaz6FRhAe5O77ndns7hesXYk6+nkTfMyXWTMGytbTGjCYpxg/dqXmOJdB+lM0Vnfj7hRBr0B97f4DO9f/WD9AsSrZE4DwIOLniFT2WkcZqtpQfv31TdSVmp0bM4c6sXfAB5aMuZ9bQUHROykVQjcYjivSbf8ldt0zGp2/VNnb9ZxV14W7oeq+DLftZ9O56ypNvwT4cVKe5hnYnobRZLaf4UD79RqlRIlhcXSeTkdXGkfoWcjwHMUtZob2KzRv3kHOgC1tXO/W5q8jZN4iZ8y/CR6/cUCg9G9sxtTeSv7Mc33EpHH8dNFG1dxnb99YTNtif6oZKdix5hRUtdlBrmXDtL8gwWOhsriY3ZyflnWa8fGeTFXiaCsTVu3j+g3VYAw342F/mrdYA3D3S8O06xKEjEJ15EVddGoSzp3t31vrcZEYEREAEfswCJiq3bWdTqQvuEVEM6t3V6sPku8YS79H9w9DVWE3+llXoZ00hUtdK2aavWL/zEHXK8u3epF45kzEJgbj2xZ12jB317P1qK4XpUYxQVZKzKxf34VG9W+j310pb8RZeWuDDFT8bjvP+xfxnVXG/zz0YlDyK8Rel4N8TjzbkLWTJ+gJq+vdVYLPQ0VpGTeRdPPPTIXyrW2BTLQfXrmT1zhacvfplhQ4Obvbmjn/MJ9PPvV+gbsfSXsvuHfnYw+MJPlpKk9oTi8XK4WIbcekpRLic+qFA/9RlfoAJmJsp2rGJdRsP0D34QSCZUycRd3QRn+4O5cDyDlxVVse9l6tnKtNvmERUT5DaUppDTn4pET49gWtXBZvf28A+9xgunZFGsNa5u58RuxVzWwPNGn/8lHWt7ZSVl9Hh5k60wa8bROk80uKOl5szWnUHeUtfZ0lub58hVloq95G7dz9ew28g0dBrGMPomePIGOzbrxCj97Ov+Ws9yqaVB0kJCSSsp08Ru62Z7Z8tJSDuehLPuHo1Wz9eiea6aDTFn7Amt4Xsa+5jePBpbjIb83n/nTzixk/l1osHfbvv7Rnz9d18KIHrd+MoqfzoBGx0Nhbx1Ucv8VmpOwmTRoAy6E3hdrYXt+F/yWXcmmjmy+XraT64lf2Rl5IRoPQcbMPaXs7BT95kdcHafhcAM1X7tAy/OZKsXiv3eGY98DCh0+K/JmhVVjCQfN2tJF/Xu3L3X5ulkW3vP8N/F2ghLIH48dE927RjtXgQM3o4blX7aG+IZXTiGCaH1/Lls/9kZ2sH8YOT4OmFuA9NILMdfHueautdIH95Dq1u/ng6GQj2S+ee+8ZRvvpNFu1qwqqy4xjRR+tO1Mi5PD1kNIWlJXTazzDMj92G2WRGFTaGkaYFfNbcRZexguqjzjg7Q/m+jXy8r3ufUiZdw5TsFH4AD/6OPxjySgREQAS+VsBKc9luVn/2KTsc43ub8PIIJdxsYs3LT/FZ7/pxg0nx6yT00lS6L80+uBFJW9NedrToqCksJL+wHvdwD2rz8ghsHo+VwN61wWbGWH2AltA53JrkTHlOGa2VrVS99QwP9S2Vwoybp5AVZyApIYTlOzsdjzRtNgsmk6lnKQsNxdW0dfiSdlEy/j1dCtptZsq3bqU0MI4Q9+4SIewWTGYLtjP9FvRt++tn6nK+4p0n3ubgiYvGPcSNZZWU+8YRoTzxtXRQnrOCV5bn4hQ6CK+CDVQrebA3UpKvQ+vtRdlrqyhvbyfr2vuYnGRA2xfgn5i4vB5YAnbsVgvtZfnkmzR4BhqwWpXx4H2ZnhhK2aFDFK1cBeMmMNhs5fhTz4CLzoTjWX1jPh9+dYD6ej+yMn1x1R07AeymDorX/4tnVrbi7wh6LTQ0tGC1alnj31N8GhBOZOJorhqdgLcb2CwmTCYz2IzUl+9n7Y5OYqMGo+8s4khNGMGOgSMs2GxnuC86FXRzCZ8v+5JN+3I4WNRB7j93cjgziSMlRzCZmji0x0jEyw+xGi/C46Zy5c1pJxQ6KIm64ZExhbh4H1R5ZswmExZrOZWV4YSEnLxRU2cr5poaOjuMWE7+eMC9I4HrgDskkqGBIaBCrdHhGRhPpm8kmUnKIzQzcSnJqKK9iU+NI8jDiZtuTaXryAEq9L0XQTWuXiFkTR9D7gk7EhoaQXpi2LHehd1imH5PzAlLndtLlUqDm28ooUZ3AlNHc2lST7mpWzBjLgmG1jJWr6+m1T2EqcOi8XapxTsoiFBPI4kTxqOiAMPFQwnozT7gMSiNzBF6LIFDyEoNx6PnKhE3+S7un3xy/jQewcQPCT75g/7vBGVx/696QnbbLwmJyWH158buam79l1NCdE8XnPrl54SP5aUIiIAI/KAFNM5u+ASEEkoz+fkNhKckkupmovGTT2mIiyXM2xvt4AwydHrU1i6O7v6MR19cQkOnmUEad8Iqd/PFhsNEjr+Zqyd6s6T4dRa+8jhf7biBh26ZQLi7M5b2PD5/4u8sv/JvTG6ooLRGhY+HivJcO37DwnpKgAy49Q49FhjPT37ihodSfTLzah7M7CU2UrxuOweKOtD3q1Djm3Qld/wqFVNkBP4uLt39EtiMNBQuY2Gxgba6YvLK3EgfGtCb0Dn/9UgazbUPDcU35IRqx+HZRFQWUZUaQ4TaTnPBdj59+SCacYEEm46y94MP2dpoAXsDFncfJl9/L+mufgR5eODlovlGvfmfc+Zlhe9GQOtNzJiZ3Oztze52Z0KTRxBEB23VnngMHsY9My7lgFJt/oH7GXbKLZqo2P4xq0oqaTdkM/eWZGL8ji95t6mcwCOS9LjGnhTasJhtmM3ehIb6QF0t1b7BhAd79dSscyVp1q9ImmGi5uAKntuYzL2jdejajUSM0rB9Rw0RWbOZmhp8bn2BKFvXOONl8Cc0NJDqqjaCgoLRO+sJCgrCatVT69VBcGgo7rjj7+eKhnZKNyxn0QcryevbfyMV+dW47QjA003vqJVQ+pfVZI+NZNyVEwjtW657pqm+gIiAWjw8nVEGnnDvrRV4wnID5aUErgPlSEg+BpiACp1nOCPm3IVS1to9ORM6YuJJX3p95BCOhZ9q9D5xTLgrjgm9q32Pf1UaT1IuuYuU023DI5yJM8JxNId1LBPB+JvmM753+XknXsJA6xPF2Omnqk7Wu9K3/KvW4hWZxWV39ZU9f8sEZXUREAER+KEIaHAPTGTCFBfaPt1Ec9J4pk7JIMqgx7W1jaZx40gPC8Xc2IKnj6ej5NTkH0121jDKCw/SUFbMrgJnJk7IRBXkRG3ZAeyJw5igbmSv0Qm1TWkFYqd51yGsSWH4WKyU7i3BPT0dHxdXXD1GcfH16bTv2UOznx+h6v08/sD7FJRXYpz0MB/epDyMXcULD7/FfgepjfZaDxJGzyVNeV23j1fffJ/1u0tOBndyxiN1IiPc3uNPXwQw+YokPNoDiDmujerJq53yHWdvDD7QWbOZr4pOvFX9ilUV5SS6D2X4OD+cDRFkXxNO/DgXijYsp2nGbYyN6a4v2lG4G0tCDKOyMxnk5YT6rDtCPGWu5M3/uUArRV8u4u0X/s1XFjWuGdOYMDyb6VZjv5zY6arezJs5wdwypa+yfffnDUep0/vhlzCe2UMSifTqfghyZPl9PNE2j1fnpKHW6glLHseImjd49hOlfN9IQ30rVqsrVdWu0NZGSvIUhsZG4NLzDMVuO8xHNzzOMjIZ9Zu5XBrpQmt1O3r/Vio3r+bjPy3hHXUql8y/mdnj4/E+22DQPYQxUy5nzJRUPvqglhTPXDboM7j+iljcnGr5pOsrRlw3nLLPN+E9Pg5vjNiCokgeMwZHpeb2Aj5fkY9VH0yE3hmXzAyiXVzQqlNITXXuqb3Rj07Z1xo14WF+2Kw2uprN4He2me2fzv9u/sSrwf9uy7IlERABERABERABEbjgBFopXLuY9Z+XEDoNPnj2n2zYXUVb5VEs/3wdT72eoelpDJ33BHOjuyjd/gkffLqZNq0Xg0PjCWQXSz4LYvQMNaqkNvJ2baGiPIBLfxOFt4sWDn/Ca1WxXD+hila88PMahiFcR/66HJY8s4iX3/Vk6PjxpGVejtfgMKbPvJymvQv4q9UJpRKm1cWGxXc0N0yP7mnG4klQ5GD8lWq5bsGMumgGkcmV7H7nUQrj7uGSDAM7F65AnTGVUSlBNCzbRfyUKxiW6o22XyntOR1mJy+i0y5mQn4z+006QgbH40U5q1a2kpUVjZe3jsBYD1BpcAmIImsK0HUUY20Ze5atZ71X9+2txT+DG6cEEeDljMSs53QEBsjCOnwTMrlo5lHcurT4BgTgHOCJtT4Y38aV/GTeQsp2H8DFGM4jY/SUdHnSuPwtHnp1JaaWOpqDY8lOb0F9+B+8U3NslyZeN4/Z0W60qMBHpcJZY6V830ref3/9sYX65uIwXNKvEm3DZp65bR/xN8wk+qM/8PZvv2Rh37JW2pz9GDpqJhelJBMf78+59QnWScGK1/jHu5+yMsfEyKt/ytUXH+G1mx9hfWs8c2+K5q+3/IzSMdfyrBK7e+gwxKVzUVy60uMnhxavQjcvi+YyIxmjXdhTGMrcSxLRn66Hps4qChp8cArOIqKjhNoWHT5+/WoG9u3XwJmRwHXgHAvJiQiIgAiIgAiIwI9ZwNTA/qVrWL2wCb8Z6YQkjSIjO5EJl3ZxZPkKWoemE+fvT5DBB48QNSqtC5GjrufXTsPJ3fQFe6tW8NHnayirdSKvYA2LvTqpKK+hpU1PUU0MGat/zriQbK7ydsezaBPOrj4ExzrhpHRt4zOIYXNu49qpcYSEhuDtEYi3m47s8AjwyOPjfHdUKhVqNy+CkscwfXrayf0vuPiRmuVHKhZGhenY4zyGETGVVCzrIsZnGy8+68XPHruXmUMi8PomBTftVWxY+Cq/fnm54ywwtrRgUqvRu7ujpZPaGgvr1rui1WrQXGRn8R8vcXSCaGkuY807v+OXzy6jpFjpUbhncttJ4a5lvDT2Vp5/6DqyQj1luLVemx/EX2e8IhPJGFOHSqkqHDcEP1cjez4pJTA1gXvvi2ffm/9Be+1ksoP1WLRafIbP5hH/bBoPbedQh40h46cTZtrP4i8aiI0bRGioO8HxQ4lw12Dt6xVTR8SQmfx92ZOkezVxMLccozHAUdW9/cBuGpN8jz34cB/MZb+OwG+IDuOaq/jd+weOl0yYybibxzJletKxpmHHL3H6V+1NEJLNnNtC8FrVxKhJU8ge4kbE/SpMy9uYNDYNp20rSZwxnVBHO9pjSVVtX02xxonkEWkcacrB1W8Ik5pWMut9M1/cNNQxIsSxpbvnuqoOYzPoCE0aSrpmO2/uKMHTzUB0XzfMJ65x/l9L4Hr+j4HkYIALGKty2JuXiyX+WrJP0bD9W2ffXseSB59G/4tfk6U14N3XvW8Xne1W7Ljh2q+q1eEF17Ax9M9cnRWFy3HfYDPVNVUcrbSRnh75zbLVWcqqf2ykwi2BS24d2l31hGa++ut88rKe5frsQSdsE5pL1rBtx5e4Zj/J6JNqHjezfn05w4bFO8aB7WrcyQfXHiZ72TUMdvxgNJH74ZfsPuTCiPtmEdtvP7/ZDshaIiACIjCABewuhKUPY1Z0ADuONqJy9ScmcZCjuYl3cQlNGZmOqsIufbvghGdIEsMzPdC3NjFi8q+579ZG8r/cTn7RAUgzUNc5lCnpUYT4anGx6VC5hRCr76SxSOmt3gmn3gCyNo9Vr7/JMx92jyNO2g08+/vbmJLg39ffQPWXb7ItPqlv670ztXW1WC1WR1u77vecoPkQTzz4GGW1SWTMmcKsybdyb/OLHNWdELTW7Oa5557j9YJI/vDwXcxJDzl92z8XX4ZOu403Mq8Batm+rQK9PpSUVGXgtiIWftrCuHGDMfi6QKczvf26atQqQuKzuP2VB5gc2UnBrnw6VO7ED41BX7Kcz0wjCHB369cLce+eyd+BL1DLwRWLeO6FBezT6RmWkULSnAf5qV8sgwdpYNU6VLG+jnPKUcAfFEN2UAzVujbUR6oIjRhMkkc04dpl3PPoSob//C5SvfSonZRxIHonE1VFG3jyjX/hqrHS1WXCZtPi6uqErbONSQ9EMzIlCUfjcGcDscPA3NFGUOQjLDp4HfG9ydBFwf5KXPp6FlZO28+56udPsy/0Jj579npi3c9QDcHFj8jB/kSpDVSU1hIb4InOxZPozInc3v4SE2Y8yaUP/5uH4rxx6jfMTfWu19lY0kr4yNuJ8q1id0UXIUZXoofP5mX7+2QOu537/rONG/p/tRsOsam4HVPEeIZFuqBXDeOSgld5b7Oe+RcPJdij3wb69u/8zxw7Zuc/L5IDERh4AsZaSmvqKLVlM9i2m08fvoWRwcEE9/t39Stbae5SGhZ9zdSyjzfvuJw/vLSUstZDvDd5NAnBwYSE/pL2G39CZG0Rb97eP+1BRF1zP6/tO3pcwl3N44geVMK/hiYS1i8fwcFpXHftixxqqCLHMdjrcaud3Qu9M/q0UCJifTl23bXR7nYlo+K8cT4uUO5O0mYKwlUdSeWS33HlcflR9uVGtu/YzNIqM2arlY0vTeXnK+9gTEgIwakTufLRt/lw7Yvc9dSNZMcoy0/mobe2Ud2/+crZ5VyWEgEREIH/iYDFYqGyspK8vDzq6hwD0pz9dp31eEWEERmklCCeYapeys9+sbhnCJDu5ZS2eIYgD7o27qa6wpvRM6cyNGUGV8YW8cyv/8aKahd8/bWnLFlxpBA8lDkPvsayNWtYo/x7+R4mxvr2Ba0rH7iIPzSNZbTvicNmdNF4pIzSgjo6mvfyxm2XkR4czI1rB/H0G4tZu+ZRpns74+ofz6jLb8XyWjApEy/n1e09Y+X4JXPrb59n8Z1BFObvJ7+mt8fiU+y/Wou7bwgJCQn4dHTg56slZcpox+uEhGhCzHoMEdHEJySQkDao5+EqWMxdGDubCYtOICFhMFERg4iMDKB9+0vc9+vfUVDZhN7p3Dpmslqt1NfXs23bNqqrq7HZzuJ3/hS7JG99C4GGg/zr9//h302T+dPmzXy18BkSx17H9IxIAt2OBVam9jI+e+jNk3ugpoMDnz7MVSMv4cmtPvzmpbuIWHsL2Qnd91ov7Oh+9OHkGcLEn73J1vXKd+NT/v73l3j+bx86vifrtmznTzddRMiJwx9jpLbieX5y0UVc1PdvGre8sZi9Gk/6Hj5FXMwrb33Mgov38Nzy8u5RGU5HotaidXLi5OGUm/jq/V3Mu3kyCzcfwdS360rnaS+zZEMJAcNuZ2ioG1qVFYvZjl05XfU+xI26iSULXoHXH2BV73iKTYV8uHEryy1DuDQ5AL1yb6dxIXLcbUxpeoSZIx9leVWbMpbGgJtOcRs64PIoGRKB8yNgamT/ltV8nuPLpGldlNT6MPP3rzHjEZtjyIDuTNmw2Z3Q6dTYrSYOvHUDY+9f0Zdfu93u6J5drVZB8lwe/8OT/DTFDz8nPXMWLOMS225eesHCjMhQutrURE18kU2vT8JHuW+o3cvOinacw4Ic6TVveYnPjGPxb3PBU5vM/C1buMFsobV1J//92IVb5qc/c4uYAAAgAElEQVSgUjvhrNejO8MDvb7M9Z9pOcLCfz7GLY8vwGpVLlVq0jNSqa+rp7KiAovJivoBJ8cNkYvboywr/yVDmsvIXfsG25yuZYg6hIz5t3DJtb/EbCtl2dIq4uLiiI0z4OSsd7SvMO38Owenl1F0axkblxQyYm4yNYfzKLcvovjONawrtROcOovMUO1xTxL7Z1PmRUAEROB8CyiBa0lJCYsXL6asrIzs7GzHjeugQYNwcXE5cwdAKpWjOi4qNZrWPD7+1Ws8sXkjSldHVz/+ONFXzmVeXh71055m5x9TKKs2YW9cxOPZj7ExeiRJS19CFfAojz85Ee/977OiwY3wYfewcHU9qx97lmX+DzAn0bc7KFY79euhXYXKWY+Hrz+BQUEnd9KSdhuHD81H7eSM1tpKttcTGAzHuhjMmjibn97/OBGaMG56+UOuf9GOStPG2j/M4Io3DjHiyR3coOxbYCo3PV3ClUdLKTq8jl1NM8nw1uLhZcDjojv5lV2F5kyNTU217Proee6752W0c27n0cf/yGDv3jIWNZqeqp2OQUbU6r4SM61PDOmX/op0R8ytjAqgRq1yJ/26v/LpVc+icvr63xXl91oJTtvb2zl48CBffvkl+/fvx2Aw8NOf/hQ/v54xPc/3CXghbd8ngZsfjuPGyq387uGbeaUogeefup8UrxweHfVz3swr486PP8Yl+Y/ErXuMACUwUwrnleafXhq2L1lPYehcHlv2KLGeTmg0KuIf/oLJv+0epkaj7Xl8pNKgczfQPWSqE/5+bXR1BfSrYXA8+vbnwpnyeBs2i/JQ/oSSgvXv8rtNH/LY0Hn89akHuG54GL5+egxzn+V5uwbNic+Fjku6nT3vPciDT/0b06V3k/vcL3j/8GFqmMSLm9/k3hgVV21+gxt9ruFo1sX8/m//YFjMNCalRhLu3X2PBio0ykOa3q+N1o3QyAyufToNlb2JvEUv8/M/bSTmkRd4cVIMTsr9ac+kdnYja94iNqX+m9QxScz/9yEeGN0Xgvcudl7/qjw9Pb92kKHm5hMOynnNsmxcBL47AeVH6f777+fPf/4z6enp3TcUPcl3NDVRtC8HzxAVB1ZuoCF8DmlDDSeMmVXK4hfKufiBGcT46E/oZt9Iyb6DlJZbyJiexXEP6/IXMGX+E+w9mE9NowbfQYEE3/4rfrL79zzV1zeAnazZd/Dbhx8hO1RN06ZP2eqRiu6r9eiumgVvjeDyv3Uoj5rp7FTh6qrB5p/ItLue4qXbhx2/vbMmq2bzpiKsJn9iE7xwc/fAw72TL/+1kbg5YwlysqNy93Z0NmBprqFg4xfkeY8ksCYPgit4/4+P8NEODeYuG07KU0MnK8aRD7HmFxqu2jeMAz9NoqaxzZGbliNHyN9/AP9LphOpMlFY1IDBP4TBcUEnXdiVJ98LFy7klVdeYenSpTgrg7/KJAIiIALnQaCzs5MNGzbw/PPPs3r1aiIjI0lJSXH8hihBbHJyMjU1NcyZM8dxvYqPP1aR8DxkVzZ5BoGuri4++OAD/vvf//LMM89QVFTExo0b2bdvH3v27HEcxxEjRvDHP/6RkSNHOn7XzpCcfPQtBP7617+yd+9e3nzzzW+Riqz6fQooD3ReffVVxowZw5VXXvl9buq0aUuJ62lp5IMLXcDV052oOB/e/WwNu+2pXFO9kGcmvcd2wNrRSqdah153PX99ayptSr0N5RHQsQdXZ+aLv4LlX82hdMHdjLo3mLc/v4okg4H6mWM4NlSqjbY2NT7mZiyO7idOTPJuFpb8jKSOHbz3jiu33xlNRUURpaWDvkHQasfc2URdVT7FxeVYjq5lX30CcWFJRHh00YmZ2qKdfPbPj4l5+CUuDe+rp9IvU5lce98n/HZ8BNsXHXVU14offJSlyzyIHerJqsCj7PjyZeY/+Ha/dYC/PgdEOEosRl02AbXBk1hfV5z6WSpPwXv/dXR0oJR4yCQCIiAC50NACVyNRqPjOqQEPocOHSI/P5/Nmzc7qpUqwatSSmcynaFK7PnIuGzzJIHeUtbi4mJef/11R8C6c+dOGhsbUT7TaDSO3x7lOCu/PcoDWZm+HwGzubfF8veTvqT64xCQb+CP4zjKXnzXAnYrXY1FrNi6ja8aA7nGz5nYWx7irVsecmypadNCtronk5kQi983LfzrKGN3py9Tf+rNkbvvZv/sy/jgow+wm410trdhc09mVMbFXH7HVHzx6akS1UkbLnijpuu73GebkZqDy3n9+Wf5ZHcXURffykMzBlH01l94bKmZeY9fytZf/IIlc3/HKl1v/RMlA1bMWDDj4giWT9s0tXkPr9/zBNtveZH9+39zfE+V5nYqmus5XFpGzbJVHLI54T8+A99+rm1tbY4n31VVVY6n43Lz8F0efElLBETgXASUgLSgoMDRzrX/esr1SWk7qrSHVErp5AFbf52BO68EqEqbZaXq99GjR1GC1N5J+UwpPV+xYoWjNFbGge2V+e7/7t69G71e/90nLCn+qAQkcP1RHU7Zme9MwGamqaWWdo8J/HFmJ4UFHXh+Z4krCbVRtqMA34umE1+p4aZVP8fSWc1FsdEUNlVTXlKIKXYU8UEBRAT646UMUecThL+1gA1eCWRr3Ch2hI09mbKZaCzNZePuYjwCegbg7mog92AexR0epA2JI8Rb39ce6KRdsVrxjBjDHS9PYOreImy2CIYnhjL8qRdImrObyvpmPK69jsmXTcc/oLsoVOWkw93HHQ1VNHkkE0eZo51WX9rtR9ny1XaKW0cy1ncsv/nPM6zaVcTSpUV9izhmmgpZXd4GfikMjRjJ4KhIPPsFrcoyypNu5Qm48m/dunVnbkN2fOrySgREQAS+UwGl6YISzDQ0NPSl6+XlRXR0tKMToeHDhxMeHu4IhPoWOHHG2kF1VRNmjQfBQRq62p0cTSC6m9y1UFXlTGCgvt9DPgvt7a20NVvRuaqxaTwxeEDTkVI6XA34+npz3DPF/tuzWDB1tNLurEPv5IrW3IlVrUar6+ldGBM1NZ34+Xni6I+h/7pnNd9M0fI6fKfEOH6rvn6VNso2HkGVGEuIj+4UnUnZ6OjoxGxW4+X1LdvXmZuoatbg6eGG6ymAlOF/lFJV5djNnj3b0aY1NzfX0YZZaeuqTE1NTezatcvRnllZXqbvR0B5GKRUsx9ok6Wpmia1O57ubjj3PLe325so3tdFWGrQ6XvI7qihuFWLr7cXnqc49xz7aemkur6WKvxI6xmCRhna6Ui7M34Gf7z0/QsKBprM+cmPBK7nx122OtAFNHqCokZzfVQnxXv309Xx9Rm2tRazbvEmKvsWtVBbVkF9g43DDYc49hzRj+Q0D/K6QrnEu5WtKitgw9RWyo7332d5VxstjQ1Yco6wMzKdma7BDArywC0xk9DdK0lKC0Hn6oxvYgK23h9RSxe1Bfms317LzJt7OhvoqGX3phUsPtDJuLnzuGZUIr6nuwhq3fDwc8ODakdA3LcLaAls3c+z/3qPvJQHWWjQ9dWG1rh54pc4gpjcPKzJwbi0deBnUspee6aWUlauyEGTPRyl0WrnkY28//5msJtpbTpKSZMXKVFe0NWAb2g0NCWhSXPDNah7iIP+PW4GBgY6bgiTkpIc1bmkjWsvsvwVARH4XwsoVYWVdpB///vfUao3Kp0yDR06lMmTJ6MErcr1Sql6qgREp526jrJl4y7a3NO58hIncr/YS2FDG1ZXZY0jbK+6mCf+bzjuahsd1YfYuGoTh5vraaxSY3NqweScxvRxgeQs+pD99gCSh8Tg6RRE1tQxxPnqsJsq2fPfNeQpyXV0YMOKc+Y4EtXtWJoqsQZnkhgbhrsjiyYq9m9hdVUQE68aglPRBpZtP/ZLBm4Ex6SQkRmDd/8Lc9/OFbLg8b1c4QhcrXTWl1C4/QheoycS7tG3UL+ZMlY89QmBj91BoI//KR6oWmmrL2PXtqP4xA8hMbSVnJ37KK3pG50VCCF71jiie4bssHTUU7DnC3YqT3T7T+2FbG9N4YYrJpExyOMU2+peOCwsjDvuuAOlds/atWsdbZeVXqOVzreU350HH3zQUYoutX36436380qbceWhwUCbTCVb+WBnNRonVzx7oia7vYjVu4bx/HPTjgWuViNdRjNWrTtuyvek7Qjr99gZmZaMZ5Djiw2d9dTjizKak2PqqCVn53K+0Ezjuandy5gbD7Fhn4qsjJF4hTrR2GTDy1P/DR8qDTTNb58fCVy/vaGk8KMWMDm62G9t7P71bavYwoZNOzmwpZ3QucnHdVluN9aSt3kzJwxF7dBp3FzVTykKL7+LyBgXg4vLfke5qcVYwZ6Pt9Oenc0EJw2enk50mrroaFOhb6+iudGZys17OGwL4aJxXijDgLlfMt0R8Lba7Ng61URM/AkvTey3GcNgrr/7d1xesp61dWpMZjv9oud+CyqzVlqr8ti+fjEbqz0Ip5jKnEZq8MDdpufWX9zPssPNrHrjNdqcNIy6/CdEmXJZu6Icz2GZjA8EAmPoHg+7BNo6MUZn8uAfpx+7URh5N++MvBtsXdRW5rGj3JN0twrWf/455b4JZM+Yw6jTjJOrPOXu/acErRK4nnD45KUIiMD/TECpPqoEp0p14MTERC6++GKGDBmCj4+Po6qjEtwoVUq/tnTOwxVL814KC7Ts3bKd3KoajF7OULef1eFpPKp0nGC3YWwqZtvSRexSxzB0sB/VZcUUVByhsSENnU2L6cga3tyfS2JoNqGjRxDrq8Nmqmfvf1/hgWpfpvh1oh8xk0vb26it+opKs5X2/bUcKc9mQnYCfq7uDI135aMvjjJsbiLOVXls3tz7S2alpdJMUJKR0LRovLUqaC5m6arNFB9t7DEvZZOvFdeXX1bG1EDd6YyHtY34IaMJ99CBqYHyejM6V1/8vXpuO5OTiAvUOzris1vNlO15l1K/axgTqTzi1RLg44GOEgrLW4jyruXwgV3sKugt4e6ieJ0G94mj+gJXq6mVkp1f8umyOlyjo4/VkDLWUOQWSJvZ0m80gJNPFeVYKb8rERERXHHFFYwfP95R+rp+/Xq0Wq2jR2GdTnfmhxEnJyvvnIPAQH0o4OoBpYcPUdPYhXvvgxtVLZWR0+n/XMbaXMbWtctZX2TH4AhMOx2dTlbsWo+XZ0+kavAjJG48l2V1jxah8PjoNfg2FbDyw0Uccoyu1UV7h4YVhXms03phMEQzak4WES7OfQUH58D6o1tUAtcf3SGVHfpuBXT4hkaRqNI5nqp1Gdtoaqii2XUI2b4GXPt9gzR+w7nzpeHnuPkgRmZbwWaktaoKJbx1CwglNDwO/b6VFFWBW3g7ZouZjkYLoUMCcXXT9duG8mMbSkaa8bQ/yi6DxjG9p/ZwvxVPmrWZO2mp78DDJxw/lZ3yPCU/GsbOnU1GcjBjsg7x6YsfU2iy0262YzV2YTM5ExmtRK39J2/iY0NwN+hPnSe1Hv+wdKYHtVK66yD17Vq8YkMIO67b5f7pybwIiIAIDBwBJZCJjY1l3rx5juDU19cXV1fXs2rCYG2vYd/Gz1mycR8HS+rwCfTDMziFrqTJ3HV7PKrypXy2OIjIucPwUoaNUdnRBcWRNXEWvuZqbNZEEmOSGRNopaMrkVE+R9lWk0V2wGguHxqBd0+tGo1bAjP//AgFawvJiMkka/QI/Co38sWhanItkQR3ttDZ1YFZqfCjTGGZPPyoC27OKhh3Jy+N63kfZZzI7Rwo6sC1t9qQ1UhjQx1VVb2DQtbT2majqkq5OXdG75lG3NQZpPr2DFphrGLn4mVsO9SCi0G5869l18Ya9tpy8FWewlotVOasJemRqxgT2bNd90DGzPTDbtfhrItl/v9lM783S9Sx8M63CXCMG9f9ps57EBOu/xtDJlbhPiTpWHeGjdtYsENPpEcH+3a3k5AQhN6l3w93X5rdM0rwpFT7dnd3x9/fn7S0NEdHXMrY7dK+9QSsC+WlTzwzLqpg+756eps/q1TZjB/hSUcbuPbcu5htaiwmI6bmBqocg7E0UnakHZPRTGeHHqqrqBw7lxS9BWxmmo9sZ9Ebn7K5opImzxS8ItqprqqhqMpC/JB0OguW83peHI/fGoWt35A1Fwr76fbz9N/e060h74vABSWgBFkx+Id177QuehLX3j7pOxQIYfSY7uSmPf440/qnPGY8c/q9Dr0+tN+r3lkVOpdIRiiFr99q0uAVnsWcO7NOn4r7YC777cNc1rfEcGbH9L3oN+NNwojustd+b5486+RBxPAZ3DV8xsmfyTsiIAIiMEAFlADG09PT8e9rS1VP2gcVGq0OF8d42874+sfh7hmKfe9yXt/4DgX7P+OL3aFM6fIjJ+42Mgyg0rjiGzoEL20D63dW01ahJs4/gJhBdnYWt1LWbqd9+Zs8saCdhDn/x03ZoWhsZmpK1hPlm0xbXR4vPvoxBn9fwsNjiLSBqclE4ZoP0VoKOXzgMM0NVXQMu5sX5g7GVLmFt5//lMOOvFtpLlcTljKFNOV1Yz4ffLqM3XkV/fbMiMVsQ6lCDa3U1n7AprUbKLzmRubOS3EMIafSaHHWueDiogSuOrROzo7SaRcXHVituOkHExPiCl2NHNi8jDc/34Y5OIUpl1zBjEFtfPXxIlbvLabFsdVOCjYHcJ8y5LjVRO3+ZTz19oZ++ek36xdBTLALb292IizMgDFoMpl6p+N6re+3dN+sUs279xgrbZrPqgS9b22Z+dEI9JzvdeYOnPUu/dqcq2ld8gp/Lr2V316fhFLJ18k7ghFjJ2GyfMmqPUoxhBGTyYixq4vOTjt0GRmdNYqxiR6OJlMqtRqzsY6KA1uwpI4gJHEckSm1RBLNjBRXdm824Dk7hZmjk/DTSbjWe06JRK+E/BUBERABERABERCBsxA494C1O1GNmz/RCYMZtGchX5Q2U6oNJdYch5t/CBE2cL3xUSZdfYi1h73xcNyhaXDxCCNrWhhWazqDwraxN+cwVUcKWJpfhC5+KjeM0XKgeSfP1/iS7aZUJ2xmyxu/Id83E42pjr1dAQxJSsLZbsTUVEyxNojokCgSAgIICQpR7q/pyM3njXql5o4dEw2U1HiQOD68+0Y9ycCgpGQMSp8KWjdCwqNIUildBgLNe/nPQhcuyfajNT6WiK4mcnfs5UjISCLCPPra/7knjGDmhBQyYpVb/IO8UZ/LmNunEBvsgd3UyaYX/49WJT2NFg+/UJLCfcjpbKaiwwaaNkprrXgaIgkLcnNsNikphVhnJ1DZcPYMIikpnqbSneTs3INhzC0YmvIpa4Do9Bj8azZT7pTJ0OwkvD2051zd8oxtlR25kf9+tAItJeQ1WBg04hrmZgdR/OkiOkbPIiuona1/3cL2NqVyfPfkaCLQeZSNn/+bZz9QmoGdOA3hmbus2O2gUmnxDEtm5nWTaNT50hieQrDORounK13LFvDMBg/ixk7jYtunLN2t4/Jhcbj39gx1YrIX2GsJXC+wAy67+x0LlJVSHBhEuLMzrZsXk58wixE+p9hG/UHeWl+KX1w6U5MD6W0m4VjSfpgF857A7fF/My2qe93WtlY62jsc7ahOTq2VHW/8hrJhf2J2spejmlVLeTlOg84wfmtlLnvVocT4e+HWe5U9OeEzvlNcUkxEeERPGx8b7e0NFBZ2kpoafsb15EMREAEREIEegY4aqitLaA+ZQObwCmwR4xgdF0JOuRvjpmewr8aTyBonwmdNJcZD6VHUQkvZZt79v7+xUilg7KijoaWZ1rZOjrZbCRu0lu1eOsiayo3XT+KSIb44qc2EZV6KX1A2HVvfoivtEuYne2BsqqEsbylNJa7EpE1jUmJPX/kjgD2NfJXv7aj6rPHyI2r0HObPT+tXwtSTf/dQxk0JxVGTuGwt9y504Z7HhjE1qZ6P1zqT6v4izbP/wKsZ6Yzp7ZlJKYit3sY/3v8XdVX1jlLZkgMtfJjzH9z0SvCpwR51MX9RKupo3YlIGc/8IB+W7C6iQ+cMznrcY4aRlZRAfPyJP7BqvKJGMD9qGF2148nPy8M+eAymHdspyMsl98AuisKGcc01Exgc5NXXK6ycjyJwtgJ+CSMZEhOGe+c+Pi+BWeNUqNUBpF8xhj0H/OnfeAs8yZo2n79dGkm4SzVbNjcRFR1GYKAbLTt2o/XV9n2njJ0WGqqMRA5NQ+87hKHD3LFbCuk6GIXWOZGxrnvIbY4mIsCAs0Z6s+49XhK49krIXxE4Z4FWdix8mEddbuTt6yfg6tlMpVJ76sTfVSXdrnrazUYMah0a2tj1nwd5ZsEBqtuUD2dx/yPzCdcojSK6n2Kbqrfx0SuPsHB3b9dz/TOXxNw7pxHeVoZykbRb2jm86inuey//+IC4/yodTYTNe5o/zvt/9u4DOqoybeD4f/pkJplJ7yE9gRQIITQpgiAINlABUVHsYl9X11531V27oq66K66uiquuFZVeFaSXhBYSSiCQ3utkynfupDBBiPqtGojPnJOTO7e+7+/OzL3PfdvpmNt6YfRc/OPTNeR98AdWj3uL6f39UKtctFQfIfeb5bhibqFf+1hBpdm8+to/+O/y9o49+nLNtel8+J/PqKk52iOkd1g8F935LDMyPLs2+PFUyBoiIAIicEoL6C2EJo7k7OgarJZd2H16E+dnY6uSKZ9e9Dn0AX882IuXQ01tw8So8fJPYvRNNxFRXkZpcQkhKa1VEzs5hCXTPyoAo05pF2ukV9Y5NDfWsEnrpO61SYzZ2bZ2WF8mTL+SjJjWkstO+wDKVnzI5tj2hqZHlypD/yhVZpV2n1DI8gef5o2SYgqtU7hjRhRmaxADDO9y777RvDRjCPHutqxt21uj6T9sIpboLGpqlCi2gPlvHiBtchYR/kr1SzWG8FRiOkcA7o0b921jm7aGI81Weh9Njntq1+5d9E5un6tGo3KRt/Yznrn/XYKjBnLR9CzGhn/PDu8gLD4StB7DJ29/pkDtzhXo0s4h3Le1yrBe14/ThxzbLKqR/Tmr+GDdPMzaRkpLbHj7mPHy0mIrO8SEs/6AK8GMyl5P3d7l7DBlEqHPpthggPJtvL1gPbaoMYzWfMayA0EMOG0qmVFW9P/PAoefmcVTYnUJXE+J0ySJPBkFaja+z/aYS7k3dQAWgwZN/ESCly6jKm10W++6nVNt9m5h35fvs6Ayndq6DGbcdgFBvhbUhJLcPwyDvb2XDMDmT2LaxcwaaueTl2czd/l+j52tY/fBcP655DT303GXy4HRy8XYG57mHHeb00p2bD9IU1MImQPaOk46sJgVpjA0Smcf/59XxVaWqS/kqigvHPZsPvxIxVljDBiskQS19uDeulffWM677CaG9PuGRZXRpMelMkC1kOyL7uG8xHpWzt3CgKkD4cBaCjSeG/5/EiXbiIAIiMApJqA1YrIYMdW3ttb0TH3NxrksVqdxZ/8CZk44gyH3fcJfzwpBZw6h9wg9hm2LeH/ZDubPmUO+54b9LuOZBzPw8TZ2qgarM3gRn9qfXRt20e+yK5iRXMXW7QdxoXH/ee5CmV71+FSevucf3NavEeWx6NFXMxUFB6lq1OHTks+Tf92IX8Y53H5uEW9954tRXcniR6ZSeNa/uaX+HaZcMp2htz7NKxPbqhAZzPiFxpMV2t4pwk72L/ZhyLCR7qrCJ7oqHfzuEz4sTCDkjrPx19mOJsc9VcnupbsJTozDseU/3H/N8+THpnLuVbfxyhgVhXvKsfiHknnGdVgXPMKfLr4Z3wte4YnpgwgwSRRwDKa8PZFA2FCm+aowlyznzeIBjIsv4KXzbmBeWTV2rRfhf5zDvGnJHVsbo7KYdtPjnH5JE3CIpUsqSEqOJTKy9SF9SLyl9YGU1og1fjij6hvIV2oVNxWSW9xERPIA7AvfYLk5keTEGp6/9TEmPHAXF2eFcqLRDDsO/juZkMD1d3KiJZu/sEDVRpaX92fogDTiw0zuLv0x+JIYWMiT497n6oWXkKQcsvEQy998kSeeeo8ttgSm/OFG+hjNaFx+JKT0Iy7Uz90+QnmSvWvPblJTUtsSasQaEE+vBCuWPz3PNbP7EtMR5+Xy/rsaBvr6dNykaA1GontnkunevBSH3URDQySZIQf403d1jPXxI9CqPMH//1U3qdq2hECXnnNPH0CLrYEzJr5A9Ah/sr++n9dWF/Hn2bPIVAqLdd5ExiYT6dxNXmlv0lKSCNm/nC//dj1za2toqGnC+JmRkF6J3P7a3b/wSZHdiYAIiMDJLmDj8OZPmf3QnSyzTOOue5RKt2XwzQv8K3QCl18/nIxAJ++kjKdm3ScsLJnFuGBl5DM7lRUtqGLP4y933dXRdlQZ8/XrxXaiVJqOtnauI/O4dtitLMWF02Gjoa4Bh2EJn+kdNDU1Y+dJHjHq0ajP5oF/3cW0kb0wp1zGki8m4hUYQYC2mkzzc8THt3fF5yJt8FguvekBosyx3Hx/b/Q+ZnzqV/DBLXcx7MVU7vvwn0zu1wtT35v4b//9bFj8LhdcG8bDz1xDv7bmsD/rzPj35tLbnuZcuw5/Px9QLeDGey5k5Zb2h7gOrn5gDtGlOtJTzuPR/w6nRa+h7sBK3n74Qdb4TeeuP92N2WQlddxDPD+wnupNK1lbnMLYaCl9/Vnn4ne5ciO7v36Bvz7zD1YoH7kJN/P322fSJ8ZI2Jtvc7ndQUtzA9kL/sXK8icZGdCKpDb4EBbThzD3SA5W9u0tJjW1D3Fxx5TMqjRozYH4OwrcD6HK937Lh4sfYc7K4Vz5h2u5+qqhRBjspA3O4fMFBbSkBGDsGIvnd3lCOjItgWsHhUyIwE8UqN7M32+6m6e/WE+FRhmr7+h2Li8D3udPp9HvJhb2HcXtT7/F1dfczWMWGx98t5tDNh0WsxV1+ctMHnwlhTWtG3t5eXH73Q+zmVQuS2nbn3tRBYvefow3Fuw7Oh4qDr/bF9wAACAASURBVGwz/8l1nbpHb6Tw+7e4Yfgd/AcXDocTl0uNdtw1PDV9MpFWJ3lHk/kzp6rYuD+EjPHnsfKaWZR++Qo5I8eTZCig9JxHGNOngbdvm8jb457giUuCWHffQzzyyn/Y6NKg0ai54crLmfzEV9w4qIFvXl/L8GtG4NixgE0/MxWyugiIgAic+gJ6QtMn8+D747lXpUf57Qcz57zwJuPVSk+7eneJTK9oC87wq0huLxw0BNJv1BRSRqoxGLQdDy0hmuuucKLRajrmqULG8cKmTdh/FEuHl9mrNQjW+9Arur3phj/9pz7ApnPu6tiDRqvDYPRCq1GjtrY1YfEaxeOLlvKQU4PJx9zaDs/gT2yyL1GxfTjLrsbU8cC1Y1dAEpc9mIDWoPW4rnkuVzpp0mPxDzk6HmvyeF55eyQtDqUr4daX0eSNTqtCo7YSFtsaHTtDpvDwe+dgV7f23KxcRnXmYMLNEBYSQYJGh1KbWl4i0LWAkYQzb2f28FnYlY+czoi3lwGtWkVgVC8ClY1dLmJjH8SlP9GeYjj3vPZ+QU6wjk8kmSOnkT7MhWvqVO60azF4eWE0tH6fw01DueoyF3qlIzJ5uQVEQj4IIvBzBGpyeGduPrE3z2Hnu1HoXSV8+cZaMi49k0iTltrvX2Ku+Q6uf/W51r2qVLhqcvH2T8LU/xwu9a+jsaWckrA7+ez7wcSE+rHx6SsouPRtLgqHjjuPtjSpNFrcPdUpD9xbWnBpNGjUGvePmEe8DHgRMeRK7q2YySsl2SzY8i1L98dwfu8UsoZEYTxwmI3tY7f/nPzixJazBdfIsVTmFOIVH0R2ZRpj4nRoSjRo9X4kjZjKi8OvwIXKnfxRj/+T5Vedz0elyQxOSaLXwXfoe+EIZpdU09JsR/ucjojkTB59Z9bPSomsLAIiIAI9QUCt1WPy8bzbVaEze/+gjwK1zuAR2CnD6Og7SlWPOqjRHdvbqFqPt6/n/o+u/dOmVGj0Xvjqj9fHgsceVFq8LFZ+sJZKjdbghc9x2qy2bq1B79UekXvsr6tJtQ6zT6duDY+7tlprwHSCA6t0+h8YH3cnMlMEUL5vXnjrfvDpPmqjUqE1HPfJTNs6anQ/9pREpUaj1aNRojGD4YffJTTKbHl5CEjg6oEhkyLwowKWNGZcn9ZRymor2ERZTDoBegMq7JQfzkfbR9WxXBljrvCwHXR6oqLA2mc8o6PyeTcnAB+NF1pVa7CnDK1wtOTWiQMnTnRYEkZx/4uZ3PmiiSNLl1DTN5EIbysugz/+PxhE3Ym9sYrc3Q34GEbw6PlNPP/Yxyw/dCY3ZHrkzFbDgSMVYA4iMtB8nBshj3U5wIJ8C4OGhBOSkMeH7y6lZNSfCMRFledqbflQZrmHiVBBfWUJhwr0OL1H8Pk3y3C5yvjmzQ0MueYs/JUbN/8W5TGm515kWgREQAREQAREQAREQASOKyCB63FZZKYInFigPcB01BWx+ds6Mib4YTCowaHGaU8iKsxj29oCalqqaQ7qg1eR0puik7odeXglDkDjc4IneY5qqlzV1Bli0B7cwn9ef4vy4DPoa9Fird3Oe4++z9e9p/L4+NMZMCii7QmdE1t9MdkfLmVrjprBD0/H7AMPPOBgZbkXDe7ei9vStfcbLrvmBexZ1/LGo5eTbu3qZyCWc86LReWo4VCZmYoPvEkeuIVt2Vos/n5Y/C102trRSHnhYYoKG1j1/pvM3uHZxUcLVSX1eM//J9rgWIbc9gyvTmjrvMODTCZFQAREQAREQAREQARE4FiBTvecxy6U9yIgAj8UaCzPZXf+IaoPbaYk6SLGmc1U7vqWnMJmKqtD6NfWSN+9pW8CKb4JUPgt2UV2qgt3s6bUSt+hPvgeN2510FRVTUulHe+QCj5Ysh/zmTdxUYidDSuyMfuezu3vTeXe/C+56M7lPPrRJfRROiFubCB7/hq0hQ7Cp4VRtH4pRR1JbyD/UA5VYX1b5/SexqpVUyhc+hQfb68j/bRjOg3o2E6ZaKBk207yK/ay5FUbEz8bQc60O3nRy8wFs24l1hvWL13q3sIaEkV8mJb1H/6Dt2uTuPnJt+jTspedh2potivNQdSU5B4hLDkEpcmIl6Wa0gY690rc6djyRgREQAREQAREQAREQARaBSRwlU+CCPxMgZoDK/jig/k09b+Nm5IjsBoaWLtsDq+vaGDkH17nguPtzxhAdKiKipw8jGmZBAf6dZRU+idl4TC2b9RCjaOZWrsvPqpm+mWNYVRCPYv++TaLbX2Y5R2ASSnyTTiXjz9trZbrdOnR+qShbfYi7VoNK558hTXtu/P4f8a1dgztzYpUaiLG3MNtuHD9sGmtx1bV7PniI95xDOCO1yeT7Gcic8FCLmksZ/X71/PSN0dXTTrtbGbMvIqz7vwr411K2urZ9p//8s68XMoaQKUeyI33ZbLyL6+4xywMTezH5bdlSOB6lFCmREAEREAEREAEREAETiAggesJYGS2CJxIICTzWh7qfw2ujnadFgbf8CZzb3A38Dz+ZgF9GK2UxHq2NW1bM+H8W0jo6GnJSHBwMsHK8AcdryDOvPVhxrqDwfaZR9vEqvXepJ5/G8+d37qTrI/Pa1+p8/+O9HrObm1j6zmn83QYwx/8K8M8j61SoTMFcvrVHzPyao+1PfbfWp3aTN9pT/LaVCU0bn0p7V9Hf3xm+5tj+6JqX03+i4AIiIAIiIAIiIAIiEAnAQlcO3HIGxH4iQIeQZp7i2Pf/8TdtG/7U1Zvb1t7/HU7It/WzpGOv9L/e+5xj/0T8+zurMnjyMe+91gkkyIgAiIgAiIgAiIgAiJwXAEZzeq4LDJTBERABERABERABERABERABETgZBGQwPVkOROSDhEQAREQAREQAREQAREQAREQgeMKSOB6XBaZKQIiIAIiIAIiIAIiIAIiIAIicLIISOB6spwJSYcIiIAIiIAIiIAIiIAIiIAIiMBxBSRwPS6LzBQBERABERABERABERABERABEThZBCRwPVnOhKRDBERABERABERABERABERABETguAISuB6XRWaKgAiIgAiIgAiIgAiIgAiIgAicLAISuJ4sZ0LSIQIiIAIiIAIiIAIiIAIiIAIicFwB7XHnykwR+J0JuFwulL+e8rLb7ahUKjQaTY/IUk86Nz3ihEgmREAEfpJAT7u2tLS0oFar5dryk86+rPRzBXra9+Xn5v9kX/9kuBeTwPVk/5RI+n51AYfDwd69ezEYDL/6sX6LAzidTurr692Bq7e3929xyF/9GEqeDh065M7Tr34wOYAIiIAI/AICyk1efn4+yoPEnvBSfodramrQ6XSYzeaekCWam5s5fPhwj8jLqZ4J5WF7dXU1O3bsONWz0mPTr9wrt99fdlcmJXDtLnk57kkhYDQaCQoK4qWXXuoxT5CVm6SysjJ3fpS89ZSXctPUu3dvCV57ygmVfIhADxZQHoTGxcXxt7/9zV1C2ROyqlxbioqK8PLywt/fv8f8Fiv5ysrK6jH3AKfqZ035TBUWFnLzzTefqlno8elW7sOCg4OxWq3dlleVxWL50fqRyhMQeYlATxRoampyl+Q1Njb2mKrC5eXlvPfee1gsFi6//PIec9OkVE9TSpCjo6N7zA1TT/xOSZ5EQARwl+Tt27cPm83WYziUa4vykDclJYXJkyej1+t7RN6Ua4uPjw+RkZESvHbjGVUeuB85cqTH3It1I+WvdmilVFx5KBcSEtJtwauUuP5qp1d2fCoIKCWuCQkJp0JSf3IalSfiyhMxX19f0tPT5UL8k+VkRREQARH4ZQSUmzulhkhPehUXF+Pn50d4eDhpaWko1095icAvJRAYGIjyJy8R6EpAehXuSkeWiYAIiIAIiIAIiIAIiIAIiIAIdLuABK7dfgokASIgAiIgAiIgAiIgAiIgAiIgAl0JSODalY4sEwEREAEREAEREAEREAEREAER6HYBCVy7/RRIAkRABERABERABERABERABERABLoSkMC1Kx1ZJgIiIAIiIAIiIAIiIAIiIAIi0O0CErh2+ymQBIiACIiACIiACIiACIiACIiACHQlIIFrVzqyTAREQAREQAREQAREQAREQAREoNsFJHDt9lMgCRABERABERABERABERABERABEehKQALXrnRkmQiIgAiIgAiIgAiIgAiIgAiIQLcLSODa7adAEiACIiACIiACIiACIiACIiACItCVgASuXenIMhEQAREQAREQAREQAREQAREQgW4XkMC120+BJEAEREAEREAEREAEREAEREAERKArAQlcu9KRZSIgAiIgAiIgAiIgAiIgAiIgAt0uIIFrt58CSYAIiIAIiIAIiIAIiIAIiIAIiEBXAhK4dqUjy0RABERABERABERABERABERABLpdQALXbj8FkgAREAEREAEREAEREAEREAEREIGuBCRw7UpHlomACIiACIiACIiACIiACIiACHS7gASu3X4KJAEiIAIiIAIiIAIiIAIiIAIiIAJdCUjg2pWOLBMBERABERABERABERABERABEeh2AQlcu/0USAJEQAREQAREQAREQAREQAREQAS6EpDAtSsdWSYCIiACIiACIiACIiACIiACItDtAhK4dvspkASIgAiIgAiIgAiIgAiIgAiIgAh0JSCBa1c6skwEREAEREAEREAEREAEREAERKDbBSRw7fZTIAkQAREQAREQAREQAREQAREQARHoSkAC1650ZJkIiIAIiIAIiIAIiIAIiIAIiEC3C0jg2u2nQBIgAiIgAiIgAiIgAiIgAiIgAiLQlYAErl3pyDIREAEREAEREAEREAEREAEREIFuF5DAtdtPgSRABERABERABERABERABERABESgKwFtVwtlmQiIwMkv4HK5sNlsOBwOd2IbGxtpaWlxz2toaECr1Xb8qVSqkz9DkkIREAEREIFuF1CuLXa73f2nTCvXE+W9cr1Rpp1Op/vaotPpkGtLt58uSYAI/C4EJHD9XZxmyWRPFmhubmb+/Pns37+fpqYm6urq2LBhA15eXmg0GgICAujfvz9paWnueT3ZQvImAiIgAiLwywgowenmzZvJycmhqqrKfW3ZuXMnNTU11NfX4+3tTUZGBqeddhp6vf6XOajsRQREQAS6EJDAtQscWSQCp4KAUtK6Y8cO3nzzTQ4cOOBOsvIkXHkCvnDhQoYPH+4OXvv06XMqZEfSKAIiIAIicBIIKNeWPXv28Pe//53t27e7U6RcWzZt2sS8efPo27evO3gdPHjwSZBaSYIIiMDvQUDauP4ezrLksUcLGI1GJkyYQEpKCsq0crOhVOtSbjB8fX1Rbir69esnpa09+lMgmRMBERCBX1bAbDYzYMAAd4BqsVg6XVuUGj1KSauUtv6y5rI3ERCBrgUkcO3aR5aKwEkvoFQHjomJYcyYMURHR3dKrxKwjhgxgpCQEHe14U4L5Y0IiIAIiIAInEBAubZERUW5ry1xcXGd2rGmp6e7a/NERkbKteUEfjJbBETglxeQwPWXN5U9isBvLuDj48MZZ5zBoEGD3KWsarWa4OBgd9CqtEEymUy/eZrkgCIgAiIgAqe2gFLSmpmZ6W7LqtTgUZqg+Pv7u683AwcORCmVlZcIiIAI/FYCErj+VtJyHBH4FQWUnoOV0taxY8eitGU1GAwMHTrU/aQ8MDBQnoj/ivayaxEQARHoqQKepa7KtUW51mRlZTFy5EjCwsLk2tJTT7zkSwROUgHpnOkkPTGSLBH4uQJKqavyBFzpQbi4uJhhw4a5n5IrQay8REAEREAEROD/I2C1Wt3XFuX6cuTIEfcDUqUUVulTQV4iIAIi8FsKqCwWi+vHDlhdXf1jq8hyERCBk0CgtraW9evXu3sXVm4yUlNTO7VLOgmSKEkQAREQARE4xQSU8cGVoXCUodaU5idK4KqUvspLBERABH5Lgd/8V+fbb7/lySefpKys7LfMpxzrZwoo1YPuuecexo8f7652+jM3P2VWz8/P55FHHiE3N/eUSXNXCVV6FFZuMFpaWty9CPekJ+LKZ1IJxp955hmUAe/lJQIiIAInq0BBQQGzZs3qMfc6Si/1NpsNZWxX5bqi9CqstHftCS8lAFeqPt9///3u4X16Qp5OxTy8++67zJ49+1RM+u8mzcp9WFJSEldffbW7D5XuyPhvHrgqpbfKQNXXXnutu7e67si0HLNrAWVg8RdffJHS0lL3kCpdr31qL1WCvMLCQq644gqO7TXx1M5Zz0q9ctO0Zs0avv/+e/dQPz0rd5IbERCBnibQ1NTkLqF84IEHiIiI6GnZ6zH5UYLxlStXsmvXLux2e4/J16mYEeWeU6mW/sc//vFUTP7vIs0HDx5k1apV7viguzL8mweuSkaVzmKUsb+UcSfldfIJKA8X5s6de/Il7FdKkfIgRenISKn+1FOeIP9KVN22W6UkWXnSv3r16m5LgxxYBERABH6OgFI6MXz4cHcJxc/ZTtb97QSUBwzl5eXs2bPntzuoHOmEAspDHqWmn7xOTgGluUB2drZ7TOfuSqH0Ktxd8nJcERABERABERABERABERCB/7eAvbqU6pYuNnc0Ul5VS33TTyxRtzdRdriEQ8X1nHC3jQ00dHHI4y2y1xRSWu/gxzoWctps7tL/o+vZqa5pwNU2Q6mB1lhbi+N4B/GY56g9wq6SWhzOo3vqWOxoprKijEOVjTg7ZjZTVVJNY7P9R9PYsUk3THRLiWs35FMOKQIiIAIiIAIiIAIiIAIicMoKNFJdrcJkMqDTtbaxLlv0Kl+k3cd1vT36vnA63U3dXFotmqZCVq7MJzC2L4NTw9B3WWRnp75wO/99fRVHep3G9dcOIkzzQyzXgRxWlduJ751FtKmOQ7nZFFR5rudHVFIcUWHeuFPVUsmeFf9mXdj1XJrSzM71u6nwWN1oDSI6IZlQbw11BTvYVlhME8bWbanm2++03HDneAJ0UF+Uy4p1efQbdy5RJo+ddJq0c3D1ezxYPIw3pw3CYuicCWflfhYvWM5239HcfXYSXu5ty9j0xWZ8Rg6mb6Iv6hYtOv3J145dAtdOJ1reiIAIiIAIiIAIiIAIiIAIdL+Ajaq9uezIzqfUnZgitu+IZOLUEaTHW2gNx/LJ3luPLdaE3qAHnDSW5LNt4wb22U3uoMxgq6Fk30rm7TeiaS9iDO3HuEHReHV0MuakqeoI2dmlJA4byoioRg7n5mOOj8ei7NbzlWil8tG/sPSOl5geuZ9vP3ye/273XCGDC2ZdzmQlcLWVsWP9GrItU+mrrcJRsZdPn5/NJo/Vg1KHcfFVMYR6m6BmB198+DnbCpoxujNo40j+CMbdPhbvqlzmr19DiSaO6AqIMjmoL93LzpwdFNZAaGIiflWVFJTWUNbUm0ssJSybPw9UGrxiBjAq1Z+agh0sX5NDXbOdRHayZn01QXY75SUl1AY3UZq/ikO7TJh0vcga15sATZeRvkcufptJCVx/G2c5igiIgAiIgAiIgAiIgAiIwE8WaKZy93d8+a+v2a33Q1V2iCbrEKymUrJ9Ve5qrtXr8ykP+oJFqjCShpxJorme0oObWfHdAnYctlO5bxOGodOZ1NvIzs3bOdg+wmd/CyMHKoGrkhgnTdVFbF++iRp9LzInptC0/jNyt65i2+YM0gYOIT0usC2QVOLAZKa+/DxVAX744MeMxz9jhkee6o9sZO3+IxwpCaGlOpu1eRaGDdjB6vV+RFxxBg99NsZj7WYqi8qprWukBRMYIhg1biy96/Ro3LWbfdDqQoit3sE7a7aRbx3Do8OtVFba3Ok+vON7vnrvY3aUNhM/YSyWzUUUlHsz4Yo0Fi9eTnV1Hc6mw5SmP8Jpvc2U5a3h/QXr8PI1EVD2Kg0ZNzLafojP5m+i6ZxLudpvCysXl1EQOoLoMckEdC6s9Uh390xK4No97nJUERABERABERABERABERCBEwr4EHvGZK4KDqbQ5U9DXgth/X0pn/NvPt7dgt5goGl/JUU126jobaKiCfBy4RORxcUPTqWXpoi1Cz7hoDaV4SNP55KZbQcq3cYb+wOwKqWtLju1Bzfx8Xtfs73eRUrcPna8sMK9osWrhaKSbBor81lHOIPPHU8/w17+8dEqbIVHsFw6k9Tcr1lT0DkDFq9KSohHHZSEURXJpNFVvPvZSsLiR7D0pZco6tSK1IhBHUx8WjJmvyb2V9ZRXlpMwf5yquuV/UbRr99B3lvpR1nw6TyS4WDtW2uwZWbgFxoI3imMveQxrvcvY5e9ks3mYdzVR833O7KJjU0ABjJ5UiFfbEvEW28hbsAkHtb1Yl91M/qqKKxjLsCvaBvN8ecyckQGCb5l+JmWsMQ7g3iNVBXufGbl3e9CwOWsZfu8HALPG0roj+W4YR8LV9XRb1gywd6lHD4cQUS4slEL9fXllJX5Eh1t9NhLJbt21hHsXU9BYyBJ0f6YDI3kfLYAzZgL6OPjsapMioAIiIAIiIAIiIAInDoChmBCAgM4vOVT9jjOIN48jN43XEJTto7BY9NxfF3OezHPMCNLyZKNyr07WfLON+Qob5tNmIOsONTryVm77Gieo2NQ6RMozAzBum8VsxcfwN8URFJWIiEHVrFlRwkNLVpGXHw5V8/IoGnLx8xbXU+z3QXaZmpqqmmq3UFpQQsJ9dUU76+k7EgR5pReaGvtxA+8kCvGZOFn1aCrLmLO6hzWbPbnjplR1G1axW6lDW5TPRUH86iPHMPYAbH0yYpA11yN2l5HbrEWG1asViXJRczfVEXK5Ht4aJCDlU9voCY4mvQ4Y6fw92jmgOKNrNxZhq+2nr3rNnHG+cFti53YXTYaDx4m77tN7NTpiateSqzBj6h4A2aDnbq8BaysSWHiQF80aglcO7nKm1NYwF7LgQ1L+GjuMg4SRMYZ53D2WRkEG36YJ2fBcr4rt3L6ob1s+fxFvsn1XCeBEeefy/gzYnDHmPX7WLSpkcQB8eB9mIV/fJotwUqPaHYaNAbCMq/h3ugUvJqL2fTVPL5a8S1F9kDUtkJ2l2iJDR/MjEvD+NuDD+Gat4J4s5GgqBFcPOscEsyex5VpERABERABERABERCBk13AEpKIyacPprxSqhpqiU4Kp3FxHq6WY3sKVqHRGjD7++PfXMq+Ggj2jyHMeoSD5TtZcMSPzPgIguKGcW2CNzUqFWq9D71SRzFlRAytxSIjSEjPoaLJSN/TI9j33hJq40dwxe298HbXUx3MPfcOpGHtC/zLmMqw04MJj11GviaTIUPDqctewJcb89hZnsQIr1oWrz9AszWRCRF7MKnDGfDgg4xS7mqrSshbvYCSwZcxMqA9QPSlf8xulm07RIXGhL+786VGWrQXc53XSu59UMvpGWkMmOBL6bqNqEedDvW5rPxkHv+q9CP57IFt7X6hub6GSmcNdfEpWGnfPxh8/YnJzORATj6F3k4aSuxY06JIjq3jSGkJeVtVDBudRP+4IE7CuBWpKnyyf1tP1vSpdJgD/DA3uGg8CL4z/Drq/ndO8n4WrHQxYmJfrAfmk6eOI8p3Nwe9h5DQkM2BynK0VnNbz2ltW1rNlCy9mx39LuCIy4/MzFhUtmoOHd5PmdnY+qVUG/EL1OMyx5AYlUiwtT8DK7bw3tpydu4JIuvCCwhx5PFJwyhG94lo+7HpnLL/5V1D3gJm77Fw4eD+JPh7lgCfYK+VuczdXklErz6M7GU5wUpO6kv3s23FNgLOmkSSN1CVx8c7yvAL68OYWPejt7ZtC9iw0YcBmX509Ctgr6X4yAEKm+PITDhhV3MnOPbPme3CVlfK1i+3Ez59NBE/tmn1VjZV9KZftIGjbfwdVJUUUVhQT1xWe492P7YjWS4CIiACIiACIvD7Eqhm96ZcquyZDE3Zx/cHCgkJTea0iSb8zXrKOmHosPTKYMKtGYypOMSuLcv5YtVC1u4tg+Akzr/yYqZkxeJnaO1wyN2bbq8sZoTWkLtsDo//S6ki7KCmrIpmhxq/OVkMSkkmK1WvzOYHUZOziZLt3/LuMx9zMPEr3n8NohKj8TWZOHwwj8rweMISsxgarmJFThk+KrVHCNkp4UffBKYxMnkzH83fxkZ318MDuPC6BExBOrKG+DNgnDe5H35OTcJAAprAofUhOKoPgYP6ktbXnz1KJ1HhQ7lwTDDl1Q0QNQSrakvr/pvr2PPtRzz5zkqaKiqpbQpgwDlRxI+IJiKwmfKl8ykK6MfISCv6k6xtazuQBK7tEvL/5wlojAQmpnPasHLM23wYmBXND8OxGr5/dQWu0ROJMx/ks0UOeo0ZSCrBbPMZQ1JDFEWOKAb1C8KZ+w1/fuNDNuTsZvthFf53XM/prmr0A85i6vn+fPX0Q+wtn8CMmyNxd+6mc1DviCTGsoGiytV8szqTy6ZGMzIhi37B8ZzXu4Y/7BrGcxNHkxZybHdwPy+rx1u7LHcnejLR6dq+Qvl57ImLJ7Ejijxmq4YSNny8nn0jrPTvZWktXT5mFVrqqTu0kb3WviS3J9kYQIijCE1TBTbq+X5FDalp0QQEWPEueJ2Ln47j8bkXkqAc19FE0d5drClw0TshXWni/+u8nA5s+5aw1dwH7+1rWfjvJ/hsp+ehBjD1tss5/4wYlNibpkI+veOvPOZowNXx0M9JU72F2PRLeGBAEpEd8z33I9MiIAIiIAIiIAK/X4Ea9szbwPZdKtJm9CbeW0v+WgOaJi0REQFdsmjMQcSlncbZTeXcV6EjPSGUurlPceNTRSRd9VfuntgbU9uQOmgMBMQN4MILA93VjQv3FFDXrCMmbRDp/RPoFeKHsT1iyp/HtPvehlFTOddxNQ81XsglN96G1lROZQUERCUSE+SD1mDAxxREsNLMlD2UFdpxtPdo3FXKG4qpNSaRleVkda4vmX3CqH95LYfemsR56hW8eusWkm+YwJD+Sfhp1NhSRjA5PpMuyQAAIABJREFUaSTWQKWX5b0c3lUM1jjOPr9/x1GaD2xtndYaCIpX8hlE9b79FFWryZzQj9gICyXfP09es5mm/DdZHnAf52X2wqs9zx176v6JkzBJ3Y8iKfiFBCoKcWaEsu/mS5jsNY0/PT+JNK8KCrflUW0rpbYim+Xfvcm/F41m1pQxXHDZDYw6uIa/L9dwZriL7Q3e1L02i7GfuDi8ewdlzn00+WgJfPASUi3eRKX1I6BXEKVVW/DyCcexZxExY84h2bWMizeHcUtwNjdOeRxLZDJT//Qcl2f8Lw1eK9n+wTu8/up/UZ5bNZZbiMuax/xXbDTWAueex22ZM0kco/zo/fDVWFtOk6YWnUndUY2j81oOahv2snpnOKNGaln9+g089dEO9yrN9fU41WoMXqOZPm0M3v0i8cZK/MhJ3BbiRahHsGwwexEQGtga3Hc+wM9615C3iBdefZP5Gw67t+t/9VM8OGUggSYNdscuvloXwsTzw7HtWYSz7zQmxxygPGA4MUVLybOFERcf1FblpvWwJesW8dXhcjpV6vFP5ex+U2g8cpji8HBCflYKZWUREAEREAEREIEeLaB0IBQWTFJ6L2JCvNHQm1EDwGTSUb32Fa76y+cc2ZfBY9+3K9ipyF/Fu888zMftw9Okj+L8aVdxeb8AGof2Z2h1PY6ij3h2+VXcNzYCe20e/33sal5b174PJ421DbQ4VXjP/4ijg8GczQNvXcfokExuu80PVWQKCS2BWNdu5YO/vECn5/dtuzrjmke47oIzCPduoqnehcsFjpYGVv/jLO5714fI2Gncd2b7cYHSrby0eh+BWjvrlq5GM/x+xp8bxbJPJjFz/MsEnH4Tj94ymcSMePzahq3V6a2cuCXcHv5z7q38ozaJ696YBBodATEZnBeTQcmWrWzb8Bnz37mdR1ceYPC5U5g6dRK9+g5i5/I/ctGDxUz520JmZvyEWoUeWfi1JyVw/bWFf8/7t8TSf2A0TefuJGP8JLISA3EcbqYqvxJL/xr8R03iTFUEZZpw4uN6UbdiNn+Z/SmLt6vYYv4zX9xuovjcO3jpND37EyPw2b+DfNcQYt3fUD3WIH/3X7AjjsDaOSxqPB3VR9czwXotr1x2OunGPhjqK/iICzkr8X8tf/QhduwUbk89g3oKWbqkgX4ZkQSHeOFQorGgIKK8PKvydj7xVRW5pFsO4DJqqW4G0zFtgRvyPuWO8+/hm2o1cZmZTL7hHl55pZq9+6pwOcMwHt5IWVhvho3IIsRicletVgckcdppnY+j0evw8ja5g+OG+gZUKhVeptahpTuv2fU7Y+RALr/Fn6jXFmMb2JchI1OxGpWf7woWP7qS8Nsvw2jbwVcLDMSdZSEIb4osUVjCRxNm6c2AKHOnGjUJ9/6HtcOD0Hn2UKc1Ymh2QlERzeHuHri6TpQsFQEREAEREAER+P0ImP2ISLfi0uvbmpQZ2zosUjrTvYDHnxqF3RFIvLt6l8KiwRKRyZQ7X2F0QxuTdwARocH4K8WHfQPopbQvrY0nxhGIWqVCZ47kzJtfIV0phOjy5U9UhA9aox+nndZ2z+I6nfHBqaSmj8HdAfAx21tDehHovgVLZNrdvfA261GrXfSb/AqvjtDiZQ4jqr3UV9nWN4Epp8fgpXEyLCUDrW8E/l5GJjz/b9Iq7aj9epEYYel0f9X5kJGMPTMUL6/2m8xIxjz1LGlOH6Li2iLdtg38eyczOOpakurruHxaM9bgKEIDfdFrgrH6PsEzQ5oIiG6v/tf5KN35TgLX7tTv6ceuXM3D42/j3YIjqJ59mbDoadz/ykxMvhHEhJuo3XgQXUgA4RFZBBQtZ7VpCn98bBDWpWquu+RM4vz2oImIJ+EMFevfbSIyxMyIC2IwuevdF/P9M0/x5IsfugdxdjbX0ogBVWMFVeqNnPuSEZXZl163vc7758UQbP4fKutX5fHBG3/jrtnz286Yg+Teabz5VimVFZ6tKzRYA6fy4sKnGBPkeXIbqSz2wxKTgsvlxF7eDOHtPyqt63lFT+DJr9KZtX81ayqGc/kwL7bO3cb+4l5ccN9Awhy+fH3bA1y+/ExevEDHHfc8T/6hCox/mMunAf9gwgNL3eN52VtasLv0GPUq4hPiGXH5fUw/bxwpXdeo8Uyse1pt9CUyNpG4sN00JyYRHezTetEoPoBpUjyL+w/m7sS7mP3JdJJq9rEtO4eS+nK8y1cx55X7eDzmKp649VL6hRogMIO4/LOZ+mwZzZ2KXMHlcBAxdBJ/fOwpeqV2XHl+kB6ZIQIiIAIiIAIi8DsT0GpPGKRpfMLo3SfsGBAVWqOVsPh0jl3iuaLWJ5zIthkqjRdBMel0um3zXLmraZUavU8wcentvfaeaGUj/uHtJZcqLGHppB8vgTozYX6t+/C1tE0AlojepP5ohyLKdnqsVs9g04vAPikcry6g1mjExxiOz3HuD43+ifTxP1Feune+BK7d639KH93ldOJwOHA4lT8XLrWqc6PzwJE8uuJb7nMovQKDylZLxd7lrB8wnWHq7/l73krqEqfzYIQOFaczMUKFuqIBn01qwi3Gtt7MNJj0kcRa/8qjLVfxmcaF0wVqVTADb32CD254hN1r16KOiCQsNLRzJ09qLTovEybt/9iA0hrHhbfP5pwbW6Ou/YveZpc5kfSMwYToW/Pmzp9ai1ajw3Bs4W7dIXZVmyBwKOkNuRyqdmINS8LikSyVSk1N7jxuWpXCp/fH4GW30e+CQdS9/TrXBU1iDeP508v38OFF6QTr4OslU3BufJnZ2oH0ycpi54V2sJWRn7uVXQ0DOXuQBbVajUanp70Z7i/yYQtKZ5BPM6q/PsDMcy8gwmSgrkRLQ34RvsPiiRx5A9eYBkNYNEnBOhx2Oy6COPvPy/H1m436lpvor2qm6Mg2vl1l5cIpyai1Ooxex6L9IqmVnYiACIiACIiACIiACPQQgaNVt0+2DLlc2Jtrqbd10ZLZ1UJDfTMt7tbOduwepTkulx1bV9viwtagjMnkOPE4SJ4mzhbqmppptp8gPS4XLru9cxs+z+1PNO1y4Wiuo8kj7SdaVZlv98wkuEvwbLbjbeygpcWBU4nyfo2XrZTNc1/i7ntv4u73H+axx75k77H1JFwVLHp4GGl9koiNjCRm+ERmbopmtCmb/27Op0AVTp/yJXy6qcR9np22Wqorq1CGyWrvKtdZXcTWr55iddCN3Gf/FwPOms4/15bR4lKh0Rvwsu9m7+Ed/H3GFQxPSiKp/a93Ev3vXkKTTu2uLvs/EajU6PRGvL298fZWYRkwBu/N/2TWGYkkJSUQExNHYmIif1xUhdlsoFOc7LRTfWgPxjAjyQNT6Ts8hPUb97Inr4K2eN6dNFtzMZvn7+Xa1F1cG5XG+CtfZ5vKirXPWdz+ziK+eP9Gzs4IwN+oQ6PRYTKZ8TYZ0GvUuJwtaI3eeJvNmExeGL3MmL29MZlMGHTa1gcAjmaqKisorW7A/r98JkrmMyshgQv/8AcGJ6Qx6uxHWVzWiDoumQhvPcULV1MZ6IslJhGvvfO4YNxgwsMj6BUXy/lPPcu05GSSktIZPmIaf7xzAsnJSSSOnsHDn2ZT9z+dJNlYBERABE4hAZcDW30jjQ0tHL2rcGGrr6TB9mP3JU5aGmppqGvkRLcknSRcDpptTdTalG5RT/xyNjeitN44+nLhsLfQ3NjS+T5Jud9RGuv9jJdTGbfS2WnnnbZ22pq7vn9y2KiuaqCxxdk5LW17UdKjPEg//stFS0MVDTa7u43h8deRuaeMgLOF+qpGbPbjfxba8+G0N9HYWEdzx82Wg+bqH9+uffv/3//W78ZP/Xo4HS00NzTQ0sXXyWmro7b5R34TXA6aGptpdv92OHA4WtvTtubBTnPnL/bRrLV9l5XDO5pttDh+5DhHt+y2qZO2xNXVUs+eL+5jjuURnh5/nHJshaxyHc+9cogzLx5LVuJB1nzjRUiyEqi0UFufT+7BAUw5N9yjMxw7DaU1tGiNmH1trHz+RWomXMlZ/Xq1VT/t4jwUb+SJRYUMGDCcyakhrY21m6sptpkI9tGhsrdQv3ML2dYwkoPD8KGO8tJSaps99+lDcGQgFi9tR8mko6GYbd+8Sm7KA0yKqqGkqJImj00MlkCCAnzxckdDDjavXkhM/zEE+ShVTR1UVxaw9rtiRk4cglen2rBH2LaxHJVvBH0S/FHXH6SwzNa5RzO1Di+/EML9vTwan3scvKtJfRCZlz7GoksfO/FaFRXE/WkzB55Ss+2dt7Gf04+1d01n2GcZnHPnU8yeHIMyrMzTT79OwZjx9Kt/k+ffWEbA5XPQGJSPphHTvEf5cvRCHhkTgIoX2DBxH/n7s9lTN5oUpa8ltZHaxlhm/OsLXkoN6ShxdTi28u93NJzgk3PiNP/oEjORwWHoLvkbr1+gPDBoJjvPzoTRqXgZO7cfwNlCbeEWFhW4MMaMZ4C796EBzOz9D15e30hj/WAyUkPx1qnRGYMZOet2qoARSwezp6iQvJxCEqwmfMOiUee2Nvt32mzYtVo06tYu1csO7GLzgffIT3+SabFdJL5gKTff8TRr9GN44+mbGRVlxbO56bFbKlWvS8oOcLC0CNuB/URGhRLna0IbOoEXN67kvvYos7mc0sp9NKZOILR2Ac/t30OkNZVRFhcEnMfnS89z77q5ahmvzfXl1hv6o1I1cbhwE8sW+XDxFeloGptoOOENx7Epk/ciIAIi0AMEmgpY+NIyDhpTmfKHwW1V+apY/vQ08ka+ysyRCZhOeIdWwvez/8ba6mTOuOZ8AlV1GPwjCfTx8hhyzMOopoAvFsxnvms0r0/rfcKql5ULX+N93wmcFdp+M1HH/t17OHgohqnXD8K7vZZQZRkHqqoxBEQQbFFTu7+QsmMLATR6zP7BhPq23l8c2pdDdU09Ru8fVlpUHvqXfvst2suvZbABXPYmqisqqXeZCQyyoIxc0rL7S26+/wDj75vORQPDOnX+p+S0vraSXTnrsAbFe2S8fdLG7k8eZl/avcwYk4mvsT0j7cvl/yklULOe56ZvZvAzUxmVGnSCzihdFOd8zJcbdhMz6l7GKUMEtuzkg+vWEXXP2QzrH0LnBls/V8BFfVkehyuP3a6RBpsX/oHRRIboUeGkobEFg14pdGihstKFn197lWE7ZXs2sOzTtSTOuo1M3+N/LquX/5m7Kq7k5YuSMXYqGfE4dt0uPvogB++EgUwcbWfHdy3orXr07sps2SxcnckNV8R4xEOt2zqryzlY3Yg2MISWFQs5nNibtISETjUCPY5yUkye8Gexu1OnUmsICE/Eq/lHkhgZhKEun9IaB+sfnMWHekdrKSRqAqc+z8RzwjtOgLMxj1WvzqcsdjhnTkuAyIH0jfDB4P6NbqHiSC2WMH+0KE/nKjm8P4/i9ht01IzT22ku2MSa+oDWAKlmC5+Vn8Y9U1Kx6FS0mCvYdNdr5N77NGeyhH889yxf53pKjudPr93I2f1D3T+6Lls5u7esItt/FqN0+yhYvZgnH3qH9o7QlC2TzruFu66eSt9QPbQUsnvec2Qbh3BFVgtlpS4MtmqqNq0kZ8RgBnb60EeS7L2a+zYe5irfkag+u5qb5lZha2yk6LATH009jqhE+k19gjdvHdw6bIlnUn+J6cDepLXtp/9VV7mnBr6dy80e+zYljOfh18e3zRnE2Cs9FpLOTVs2es7AEBpLSqhHhGZJ44rr2o9ydFWNph8zO+3r6LL/dapx3zJeeG4Oy7cVQ2MvRj35JOM0Hp9T5clXVRH7dmxnaUkljaEjuDP5aJ9vlqxrubjkRv50+2pG/OlcJg8fRgjbeO+y25iLg2bvIJLOvJrrYspo8A4gY4Q3h3IrOJhfzeGd24kcNoTkMH/05gBWPH8LPk98wr29VaiaweF0Ymtp+WEWYyfw7qcTqF7zIi/vqmB4uAXNiX4AlRFsCr7j9Rdf5+v1h2Hxf/j++ud57OLBBOqO8M2zV/DMchsN5WU4E1NJP3smd6qW8O9iO5HBoYSUruGLlQ5G9vWlpbSI0rpGKjatpM95d7cXpEOjjZZDZdQAfibjrzd0zw8lZI4IiIAIdJ+Ao5mK4kPkHcqjJNiFzllG0fYcDtnt2JrL2e2YQKTjINmbKtCoI+mTFX6cHkM1aHpPYIAxEMfmV3jorUUkXPkcM0cPJcJPeXjfOXsupTlPfjFVJQUUT+t9wrG3A8Lh+atm8m+jq+3huoOmkCRGX/UonS6n2iJWvvAMtcOuZ9LpXsy/5R5mb1tCpSWTQH0dFUVO/PtlMvryu3l0er/W9O9/n4fu+RufbeicttZ3KvxCB/Ly6GsZnAAtFXtZ8MZrLKrP4qpbppDp72BPbjWX3XsmgzLagtaGYjZVm8kMa+sbofYAm+fezEur9FQfVh66tvfMoxwhlSv+/BzTQ00Y1cr10bMN4PHSI/NOagHfAGIuzqRfoLnjTLpcLTQ2qjApT3vc37F81uz1wuQ1EN+KgxwsCcP7wBq2DNXjXZbP1nUHlMFOSRkYgfexX5ifkHmlv5JtH1zGbf+y0VhdTKNXFAFeyjB/jbREjuSme+/i6pBYjNSwdvFKtN5WDOaDzP06jCcfPANje8mByQ+/uL5EGpuor9djPk5/LH6h8ZgbTR0FXidMXqAVnauUmkoXm19+lg/27KNaGYy1voiiMa9xyRUxHG01q3SL0kxxwffMWbiPmGHnc0nfEPIOO6mtteNjOVrAdsLjddMCj7vtbkpBF4fVaTREB7X11Opoora+gRaVBSul7MzN4/D+DeTltLCuZCNeIy6i+ZJnWXV7BkVbl7J+UwGHB6bj0/ED7qB81x7q+ujRWirYsmIpm3N2csjYRJ6fN2p0VBVUkDntQhJ8HNQW5/D1G4+3jk/ZXMWeiiZGz7yeMVu/44Wv1tLo74Nh2oO8nlTOERVY0OEXcybXzxlOs7c3Zqby8L+n8rBH/uqLtrCtrI6GJjsGo5aq3KV8+n0gF0/azYbtAYw/7ybmjL/JY4smyg7VojU63VWJHAXfkR12E8NK17NwQS6bNmcw40o/nHot1fn7qeobi69HoZ8xagi3BZoJ9fcij6n8+c2+NO9dz6f/cTJpmBF1WgQVDUm/TtDqkYueNmnuM4m//WNSa7b2L+TajbW02B10NCZ1NlG6cylvzNlE6FV3cvfQH/aYGzfxVT7u8w2X3/civmEDuKL/EG5fu5bbaaJo8wLeuudDFo6ezvW3DHR3GOAIPMSHc+axaV8ql0f1Iz4E9L3P5esvZ+DbXqys1qMxWNBpbSf8gbMOvY37f8IJMSWexcMvn9Xp8+verLyBjHu/Y/VjjeQtW4KtbyBrn3+EB3cPZNJVtzArK8Rdiv7Ca0tR2XtR/vV/WbTrIBMe/jczw9qfMqoxmPwJj3Ph2ZneT0iWrCICIiACp7ZAUyXbV37IX95aSFWVElx5sW5DErW1tVSUF1NeWIXpu3kYdVoMhpk898U0ouuK2bM6m8KOnDexP28fzVpvYvqM5JJbRwLVbPt+F7rRSQR71OpSNmlqqKRZvZ/Q9IlolYpCJ7rzs0Rz75OP0kvb3l+Fi3qbFm+rwd17vla5v2gsJ6fUj7F/eZ2A2nz25rsY8PeneOKbh6nv/yypQbVs/3Af0aP7kpQR7xF0exOROICR1gCM7QW6HfnR4Rd0DUPc412CPjiFabfcTsb+fDbm7sMaUEuRNpyGwkLWVx1p3SpvC0+qhvH5rGFtY8gHkzbkz7x3Zxzr/vksc1ZX49ORzwY2fbiKC86/BbVegtYO9lNiwkZ1wT727DpARUd6D5GdU4veWOpReqlHrQ0kY3gagY2HWfvFGzz+/k4CvZqpqEhhytXnkGLKpXr1Nt74Bqg9yPb6m1iwcRapXTzE7zjkMRMqlYahN6/lu8uPsHXe8+T2f5yLYyvZun4b5a5eZA0KQ22ztT4j2fMps5cdoMrWREHYJUxbZKdGrQQnDqpKDpO/s4JyLw3RkclkZrYWbB1zOOJDfFubvbmctDSWUdLoR0SADmdTFQX5O8ndk0POllIs7KXWmUn56Nt5+4UUtDU5bFv6HUvTB3cOWnHSWH6ArUeMjBo/ndHpSk0ILbpF37OqRcOEgTFYlaD3JHx1fK1PwrRha6xj/bcf4qPUktQ4samtRMZm0Ncvn1XzP2L5hh3sKHTQ97a76O2n4sjulXz0wUaWvHg380pm8tic/ZQ29yVYqQ/QVEmxLRSTazvrlr/Jjn0tlOwvx7RnI94GHWp1Fjc/NpLqclB+7fxjh3LpH58nfU0OhytymZtTitqmRds/nsS6YFJSo/D3L2ZdeW/OcDppLM7hyyXbcDTZ8Bk5jLCD28g/+i1z82rr17CsbABXXhGK1ehNRX0U11ys54uPPsEn8kwWfPjhMW08NDSWaEkcnkVGehCF2XmkBcTw0X8+pW7/LlKmDqTCUU/JnqWsKldTWt6XxMT+ZESqObhlK+sXfM62mHO58pzh7sGPt605wtr5u9FodRyxjkeXnUNT/LCT8dSfOmmKGcc/Yo5JrsZM1GkzeP60GccsOOZt7ATemTvhmJlGQvufz70Lzu80P3TQLTw56JZO88D3aNCqLNFZSexzGonHrPWLvg1IItm9QxN9zj7XPdXvuQVc53EQpRT9vmfaZoyfwCyPZa2TegLC+zLukh8skBkiIAIi0LMFzKGMuPheFlx8NWtW52OrcOEbH0hQaC/C/RpZOOc7Es4fjHbfPlQpA4nCQU1lPt+9+SZLFBlHPUcKizhS5iLIqscUGoCPWSl5OoPx45ooc8UQhGdpiZPG+hq8bRWkh2g4UmInJPw4t35V+Xye48Kv6F/MWd7eFtWPiLBMBo1oZHWuN6el+qOtK2Tlqp0E9+9Lkk1LWLSdreuXYhv5ARMb32L27knMHFvMV19uwdon3uNheh/Ou2EEt0ToObjrIBWd+sRQxilPpVMnptZowv1bsFFFVYWG0MAW5r7zNot31RLub8WgOZ/ZDwei9Otv6fSJMRAeP4BJ8bHEdPT5d5hvDyaSFmDqKKHrtIm8OYkFmijbsZZv3vqKnPZU2so4sLuBdbvCCDLpUBpOGQxDuPDiPhQ2prmr3cdkjOCxcS9wdtxhln29gbK8I2j7X81fL0oi2KSGLX/nqtwJ9Fb/L139uNyFFsVFFsxNB6mqa6GhoYDcyjp2z8kmfcgABmf6gndfxk0ejtlcxvx8HXtf+TPPVgWSEK6nuaGOqvIAhulSSU5vcA+p0/6Ivz27yv9d337Jx/t1aNUuHEYtOmM/xo1LwKuumG2rPue9RVs5UNzA8PNmEBIaS+XS9Sz6cgs5nz3K7MXDeHju6RQ2DSWibee22lL27DyANSCB/ukmijbvoN47iEFjw/jr6mzqCmqZOCmNsGMegnmmqbumj/Pr1V1J+eFx7c2N7Fq3FPKU+oQx9B14Br0C7KijhnPpDOgV8QVvLLNTV7OfKlcKroJsVnzaSFXWJZxVfZjln+9k9FAlcG2i9NBhmrQW+k+6hwnTlGNVsfjt1cScNZTYED+a9y4jz2cwfTv6w26gMPs7Pn/lGyr6BONunrh/E0v3t6Zzy5ZDbQnWMWByHzRleSxdsRh0LqL8o6jZs5T560qotTvwCfempUbLyOl38Og5Cej9je4SsdhYIy8vWsmafUncN0nLpr8uZY3SAVN1GRUNzegCxzJt6ghCo62oKg6w19CfwIQ03rzkArLfeZeWCwcS07yPw6ffzHmnW1mz6Dt2+cSTHqrl8K4trNtYR2Q/P3eb2joO0RRzO7ePimBDUwv7Ps0h+Nxyj04hfugvc/6PvfMAj6pYG/Cb3c22ZLOb3nvvDQgJvVcBC1ixYPdivfdarr3rtetVrr1eu9gFRJAqvXcCgZCE9J5stu//nE1hgYDoj4o48xD2nDlzprynzTfzzfcJAoKAICAICAKCwMkkYKetupj1y7/h21W1aDx1xHrk4LNxE60tNjwU0PzZe/y4uZJzb80nMkqBT+RArvpoIFdhp7V0B0uWrmNbjZrMSAWK2BTSExIIMxxjxZ7DRHOTiTrleOJDPLEdKKU9zH0mtKtt+7/nobdWc/9T7/LeZW2UrtuOOi8P5Y45vP7fBezzTKGfJLgGZnHdBG+Km0rZ2p5IVN02ttojUS95mzfrNrGtyYMv4z0gRE/xyn2EjoztEix90XnpsDevY+3KdeyvdWcqx9ugJX1kIoYut+O21lr21zfR0NAGqgB8EoZz+bA2kiZFM2pwH8K00vrB3kI7W5d+xG1vbDj84MXPcfH5Q4g7PFbsnfIEfIgfezF3j724p6bmPZ/wwfd2PNMKOLMoCu2RM4PN0FBRwtwFL1Me0MSuvfUEJA5iWEcFizbD0Mx4fs55TU9hx9tw2DA17uGAvohCezm7W7Lpm9eX4uef55M1gRgy+5InnW86wKbtjZhpozjkWl5+7SnUy2oJ6TeEBGcFG1fUUDBtMPreb2hXDQ5s/olFxXZknmr8+l3AFX0sLiHXJyCZUWdfjG/gx7z5QwM2WysNFjvW6lLWbt7PwYjJTD+vlO/eWc+4UZLg6qCjsZTtS7+nxiuZ9PRYbAfns2LOBmQ5Z+I/qpD7B63ggadW8lmdibOv7UeY4v8j3B8P4K87dkoLrlpDINPvvo/LM49oXMsB1u7dytZ9lTTW2SjXnsW10SpKxs3k+SkefHswkIyOVeyLOYMk1/IHO2aVAX9FC9vnvcfbOySFmw72rDuAoXg1fjoNYZF61CFhJAxPPrTeLiSJAVf3Z9wFmT+/iDvrbP77/CAObJ7LSt/RnDUyhcz+W2nxTSUr20D1yvksOlhPnSyRBLkcWVsxXy3eTo1vNuf4luEdM4BL/juASwDjnvVsqWpClz280wARDWxfVEVgWh6ykt0U79zNBq9CztODrUZio8AQXcgFVxb2gBow/QYyEr9ilabXRFWEAAAgAElEQVTrK8AwBmd3sPY/29gX4aTBkszYrCIOVPecIjYEAUFAEBAEBAFB4LckYDfTVldKcckBKg82EZjZl8LsdGoWfsncxc2ccc1Q9r/4CtWT7yPb5/AOo6mhkuKtO/GKzaYoqgOVEuSWar5ebWdcQTJR+qOFV4exiab6/ThTJ5Dr387G3XvZXh5E3wjJuuHhIfPCexgd54Hx4Ga+XLCHSdlFRKT1Y+I1eioJOtQPCgxHvXM/YRFKPP0GMVUxh3tvfpG68ESCAmtZuHA/sbEpyHUZXVpkVjqQ07z3Rza32vDwjiX2MLfdHsjlTWyevxHDpFRkxRv54evVdOTkkx2aSIC3huCAFubXexOnqqei3UygRomyl46+Qh9OwfhLuS1wNC2lpbSp1fgGB6PJzyfEW6gJH37F/4x7ZkqL2wkpTEGxbwsbyoPoH+t1lLFJi6mdqvJ6vFrbqLLGUJCSTUbUbhZtqCc/IfoowdVhNtNaWYktJuaEjXo6rFZqNm7Fa/BFRHkdYMuWbeyKCSAlfzx3np1HVk4U3pLJTf8xXH93X+LDD/D8UyY8/fIYmPAVq40OaaXACYXR1z3KNX19OFJGp6OOin0bWV9cTm1NC8bYISRHBGEeNo1p6bDOEkZmw3xWRpxLdvfKS4sRu0pLTM5QouwHWbm9BFtRAYP6JnZqSIQVcs/9vsx+rgrLiZpHPqFWnJxEp7Tgerwm+iVP4fKkTKwxZqaOyCHQS5qWtUFYKLLvPuEVRRq3jezWE/EiItILDGXsk9Zj9xJ0GefSX+WSAjuP2qxIFpg8wwIPvax7Oa/XKGszJcsW8eU3i6kPDeTrDyA8yovq6q34x8cSboh1rfuQRQ7h7iwHc0pajlB16SXXoDiS/ALw1uzh9Zs3YHj8H661qZIV2uOGms38d085ofgxXNalPqSQIUvW/3yZx8hYMjtvtVqRSwK4ZN32VyxsP0bWp2C0nebmZlpanERG6qjcVEKrxpvwJDXVJTKCg/WHL6Z3Wmk+uI3l27wYNjoCR7sRs8UfP9eK+EYOlDnQ++jR67sfvQqWLrHTP6OZtdVxFKaqaa0qZe/2cvwLBxN5nJda27ZP+c4xmmmZhytKHQbRVMGK1bX4x8USH2GipsqXwAAlCoXkWqmM4mI/UlMPGY467FxMlC5fQWNwMkmxYT9vebu1jB/21qPxj2dA5NGdIsrLKY+I6HH6fXhZYk8QEAQEgb8CATn6qL6cPTOXtPV7cTiiSIoIJ+nia4lKX8wn8xZjKbqQu0YVoHczuGhu2s+OlR9R5TOCvD5RlC3YhEkdSp+8QPav2cwrL3xJ3wlXMCYzFHX358XWQf2BzWz3SGLYoBgCvBsJrdrL+k3r0WuKSPJ3M4rRhd7psNG6ZxmWvleQIAmXJi3+vuF4ajo1xWgs5pMvv2B9fRwXx2vQ6LVQ4cHIK+8jOdXG4h3J5I3cR3FQEZfnds1rmauplyuRq4PQth6kiRrWzq0mekASAToV0opaDw9vvHo+G0bqTBZk1jByUqNcNavf/i0dMUHkxqnYsH4PzYMzCNBIPuClYMVEE42EkuxlQOEfRv+8JPwLPFEEtVO9p/yQmmlXO8XP70tAclUk/Un9Runv1wZT2Qp22uNJD88iNqKYbxZ9zSb92eQdcS+HxGdyaeHZnarCC0vx0arQRQ/iKm8bOpdXDggxeOG6gRxWmvYs4vX/zEVxzb+4ObtH9fI41XRirVjFNlUR4xIN+JkhNugHlq1dSWDSGHLTog/Zj2lcxJvPzsUhb2atdjrXyxQEZZ/NRGzUHDhOESd4yDuiP1OmZ+OXXEZIdC6ZQc1spgOCQ9Av/JYH9+m5f2z3SJEM7+B0+o1JB0sDO7bu5IBHP/KzMggxbeftd6tIGZtPXkwKZ92ZcoI1+H2Tdb/eft9SeyutbSefPvUuSyrrsUjHHTbMtbvY57mFNYctfIDUwZOZMnEcAba9R+XUvOF79gdEEWHez2P3PcbIC29gXFKXAKuLZPikixju8tBxuKqw9Bg5nQbaW9rAxxtbqxF7cwu6mCMKP6pE6UQ7jVu+4I43V2DITCHa9m8+MOeRO2QcJlk9jY0QmzeMSV5GHIGGTj+f3olM7O+ko20zDW7ycm/Zgx9padJi8u18+Fw5uqI4mh+ayc06PROvuoOMQg3aXkYeW1vW890ONYGqQGzpgwlW+tB/TAYyhwyfxCy86NJ77r3Qo2Kll05HRwf19fUuYS48PByDwfD/egkdVcgpGCE317F2zXaWHkwhsb4Si08Q8va97KpRIPfLRYP2kDsh6aNft4slO2IZMTqAg2vn8skrS9nv+iC3Uq0ZwLWXT2O4vI4vXPf7Lsyk83brT+xqiGVwXgHp8bW88d8v8UnPJkgVRP7oKUyekNe5VtuNj7xuE9/UFP2M4FrNut3lZPuGkRBRx+rHn2VBWyMWOdg9mumIvYmXUwvcDGi0UPL9WsrafUkdH0/53irsXtE4e7m/3KrSuSlXwcFK6sxKWiPTcDW5ciWfVEYzLiMYL89y5t/0DJoZ9zAxtJz577zAvGL3XFIZfcGZjB4sjVKKIAgIAoLAaUhArkKjU6HhyA+/A9PurdRXbOYrTSbnaTpdnoGTjsZiVn3xMvXRo8jP7kOIqopiowmz5HzRkMBZfWV4ttRTMe9z1vpfTGGkN3KnhdrdC3l6m5JzBgwm2TV46ktychZNyz/mnSc3UXj2VIb3Ce2c9IkcwsW6ABz7F/JlXSqDQjfw9DWfU2yzYwtNYeh5l5ASEgAKDQGyVpq8vHEqbGz/7H6WmOPpN3QayeYvWaHyJyWhldU/vM8Di70466IrSTS2oNJrCck7n1E+Dax+/icSr41m8MQM/K1befWet/GacQ1jsrsk15hUcgva2FvfjuRR0HlgORtLzUSkxGGI8iGjYT6ffdDBtOn98fOUfOVYcLTU4IyNoGTlYuZuaad/RhSq1lbsMhU+waFENe7k6YfquOifo8gO1B7lFuQ0vNNOqSY1NTVRXl6Ot7c3AQEBeHl5oZBG0H9BqN/+CYu2V6JLPYdggxaZMpuilAoWvH8L7+kv44GL836m76DC379TK6GtqRJ/767BGKeVtspdrF1ez8Brjh7M6a2Kjn3zue0nM1eOG0aguZnty7/kf4t3kprszabv51DXoGbCmPjOCSKFgeBwJSqNk8DYeGQuw0y95SoNFFWw/JPP+Hb59kPGqOp3sMW2kq1BStxPDYpN48zLbiA3LABa3f2RdObdtn0pu9X+9Enp4JEbb6bo8ge5sPsZM1bz05oVLKoJ4MyBScT7eUKLluBQE9te+BTLlWdRkOSL8nClj2NU+veN/mV3zW9ZN09fEgoK8WgxcsiF9OheSwyOD6Z22Sxe+/wzdsRcx1TPrmZ89ThvBF/JiMFDSHIWM1+9G/mBNez2T6V90ae89/FiulemQgwDRiSz8d7b2NTY7BKWFQol+UVTGTF1ED5lW9joSGJ82ImolnigDkhg+FA1hoQUoozeLFuxh0Wfrz9kBXDhwp62jJ35BOcVRqFRgNPRSltz5yFj9WbmfvAw78/3I2vMVC7u331KJcsf+Q//M4YxKLWIwVMjqPsKdPZ2yr6+ildWdaeDpKLxXHDRJaT6gyF9HJPC22ncAhnxoag9vZHc0qS1bOTDK+7lQYOe0df1zvhQjrichkszrA0NDaxbt47333/fNdN63XXXkZ+ff/oKruYmti76kAe/2UNMQX/iFv/IGqsTu2keBIRi0Bv49NZ32NzcxJjbX+a8HEOnACuXYbGWsfX72WxuLsA7KoPh0shz7WbmtenwkIyBSfd7iobvW4cybmAMVlMS/Q6u4+tdbcTGRTJx8iDqO2w0+GSTnhB0hI/ezquj8fYjytml++F+wY7c9tJQv/ZZ5ttyKXYEUzAgA0+Ngo49c/nST9/j+1Y6zVK9i/31++gIS+qcYfUKcvkG7Hx5tbL6m20kjS/AIHNirNvJNy/dz2du78u4zEziLCu45+ldHJQyzB/JpPAWDqT4khKUSL/BgzAHqPDU+BGfO5zhke6VDSY+XHdYfdyPim1BQBAQBP78BCTfjUuY/ebzLLUlkeXhzXcvbGMP0RSOGMQF14+kf1kxH8+8ki12Jxfe9zqDVM3I4ibQN284UT2zkm4kDHGccXYElZu2YdF7Qv0K/n3TLHaNvpDzBvYjP+yQCrHCN4bcvmOheTHvvHofe2ouIbvmKz5ctI/GDnht1AXcOGY06coyrMOHI72iW5obsBWv5EDsRKJ0EQwb0IdVWw20bV1BtTaFjJzR5IYo6NhYR7lcRVB0PhcNV7Kpwo6/ZR/rS6tp908nXRJan32KRx9fQENGOB98pkaWPo6LCvvTvPJtNsTMJFf6pMn0xKfE0PzlfB459wFas/oxetJ5pIUHur6FUTn59Gn9iVcvv5SM+95kiH8pG7Y4CUwsZ81uA6NGJGLfNJ/XVhgZeen5TBkbg7KllFBDO4EaxaGBZjeEYvO3JVBcXMx//vMfV99x7NixDBgwgODgYJRKpSvumKWba9jwTWf/XZuXRf/RU+kTF0y31ndA5giKjCYc5dt5ZeZGRjw8g2ygbOtKHv/iY97xMhGSPYmLz8+VFuKx7fMneeXbbRyIG8y/LvHsdB0lUxGQOYF/Pj2M6BTDMavSc2DfHGYsKMN75ac88PV74ONPcOFIJgybRFJ8EA3hG9m24D3uf6ODzCsuomjkpfQJ98Nb48TSIQmfTsyt+5n7wm28uSeAhDFXMbQ7c7k3YSk5FKlCOOTQaTjDu4+7/Xr7hRCotVK1eQ4fvTmLZcqxXJVa5LIwzpK3+DilgIKJZzDUr5rPnVq8SxayIWay6xlrq2mirawUZ+UWZn36AodWDeYwKt7I5jozufEIwdWN99GbqmByxk4k5+gjvcTYaa5QcoZ3PGeEZBLhJwmX8Zx53420JBeS6XK7kctZIakYW5uweemw5Q7mLF2CazFzZ4Z64lJDMaclkGs0uYRlmUxOSHgSITotqtgcBsqCcWXdSw0Oi/KQoQnLZtpk6XGRZovDCQraR3pKLq2HJezciUzwRRoklHQUVNoMplxrdY3KePiEkzPscrzTfAiNTSK0Z1hBT9yYSZzrDCQ7Mwq9SkHI1Kmk2UxUF4cR5ubG1BASRUiX5qd3eAHDw9s56GslIEDTtQbAA4U6kv5XXE2st57ExOML5jabjerqan744Qe++uorDh48yI4dO4iKinLNujoc3dYHe2nonznKbqJq41K+esvCmKuGo9y2gtkvf8AmixOHtRmnt4HJ1/+bUSPOIMtHTkyEhpqFD3HJ44sxtddi1CbSp88MAnw9CB08khTdcl7/op7o8amkRuqQqZqoqk+nf9AbrF+fwdYt6dz+r0SaMkcyNNDB3iobyxxZ3DkwkzCfnhvhKKIGbZeJOHs7teXb2N6SxpBMb8zlq3n3rVf55MetlNVZGXX+dKbIVXgm5DPxzGQ2vnI1Ty0ayJXvx7lZWbRQXe2gvnoTy5d/zPOP2GiqbkGh88JLK6lzZXLuFVk0F/djVLIHSu8Q8sZfjkEaYGnexxcb92CMH8iIdCttn/uTGRlBREE/+vhKbnoklS4/UjLT2B+mRkUoWcOnkeXWopqNbzDr23X0GXkRo9OChADrxkZsCgKCwOlCQIZ3UDIDJl1HmioQfw8PWmr604yemMw0YoN1ZMSGEq/wJd/uJDFAjkaVQl6QrqezDr5kDOqLQ6ZxW8qkJDRb6pxLszaxjLrsUooS+zKwF0lXG5zFgLPC0KXsRhYQh2/cZM6PbMVsB3lCP/pKS6tIYdi0TlVBS2sDLcYO1N3dhdBCztUpMTjaiNUF4qdVIvdwoo4bx/RIPSiUhCT2I0QycW9pQa70Bo0faixED5/K39NGHOqUB6YxODuUjgO7sHcvjZFrCApPpnCCkoCENKxhCSTHh6LrLl9SkR48CJXcgE+AZJE4jIzCEHx8JIvJ3kQHQI3nMC5O8iQmIazzG+cTzagjjfifLrfUn6AdLS0tbNiwgbKyMtdvfHw8I0aMYMyYMURHR6NSHRpcOaw5Ch2RXf13TVQyiXHRh+4DV0IVkQVnMTX9IDuDmgmR7iFZCNnDp3NXVJUrhX9kIokuc7o2QrPHM9XQH2NoFtkhUr9G6orL0QbH08dlhfWw0nvf8U/n4uHZJOXHsF0yMqbywj8ph/zQzs53bGQEsWFJJO1rw5ASQXS4AVXXzKWq6x5XqP3JGnMF1w3SEZiYeGi9tqee2L6Die3be9FHxzowhmcxbOrN9PWOIzlKqkMEw6+eQZ1vPEnRBhRyX6ZOTaKjtpz2rvJVgRH0GzmFlPYWyrIL3GSjUNLSvLDr/HpxW3V06X9EzLF7xH9EbU64TDn68Az6hbtJbOiIHjrssBxkSjXe/iGdcXEZBMS5p+9KGhlF+mFnde1owjtVHXs79nNxMjV+0akURqf+XErkCgNR3WrkGn/iskf3YvVOS2h+AaFH5CZTqAlNHU3ocYvxIuwIN6JyZQDJo0d3uTU5IlO33U2bNlFaWuoSVHft2oX0J6kLS8KqtM71tA4yJb4phVx0bxFB0Ua20sHE+0dwe5faeduWxVQlJ5GXk0Kol9y1zteccx4PPjCEmv3L+XpbIKnaZpYuK2PTy7ey2lFHebkR7co6tLr7mDEujvwzhtDHI4aS8lV4qZIxbfqA5MFnUlu+kNkHvUiteosz719J3MhLuOGaGRRGHm0kfdaVA/lE7QCtP1FDLmHmcA/K6Et4QBJjzruBrKKNfPJTE4PivKi3KOn4+EEmv11LeekW9jdtpvlKOwFv3EqhpBHfXI8ZGRHjb+Rv9noaW9vZ/ON2dElxRIb7o5A6Vsn+KLoszCnUWnSKNpbf/ThzrUaqJPX62T+w0sdJY6MVjUaN2rXYair/fsKfu+96HbvJxoB/PUTyD3fyyprD76CcUZOYOGoSqUEaYe36cDRiTxAQBE4bAjLU+nDS+4cfu0WqQNKHDXfrm+iOUIFU4Rt8jI6+lKs6hNwRXX2fY5WiCSArX/LdKIUQwrv7IV0x7j9KnR8B7jO92kBiXSuw3DV+PFAYYjiqO6L0Iai7GDQEZ/Uh2H3EsqsgdYy0Hso9KNFHJ9MnutMBm/sR17YqiMzhI7qiDYR3ae/ouqoUlJh1lAGeo/IQEb8rAanf2NbWxvbt29mzZ4+rTzl//nxyc3MZOnSoazLkqArJNa6+e6/9d7fECu8wMgZ1d3Y1BMdlMTruyBtNgV9cHwb+f01L+0Qx3GVaJOwYNjtU+CVm0v84vgnlnj7E5o8m1q0Nv25ThtY/hqwid7+MvcgM0gRbUFSPLShPLy8M0h8QFX+kBdxfV5Pf66w/qeD6e+H5a5cjza5KI2QbN27EZDIhzb52h5qaGl577TXmzZv3i9cpdOdxKvzW1dVRUXHIrXtPnTxkqPQBREkfwQ4jbdt/4n///pKyrmEzR/IUHnrAFz8vRaeqicuNagTti8dxw6x2mvUpWLLv4erCQIIt0VxaFILMu4Gt29TkpESg99Qgd1le8sM3JAF96d3M047HMusi/tf3MZ49KwWval9UIanIE8eTFdI91NxTQ9fGtHvfYkamDGQKlLoAgnUK19odmdqAZ+P/+GDWv3l/mZ2PJt3IG/nJ6Cdcy7MRVvb2ySSp8ge+2De6y9JcK3urytlXaWDwqHhUsnhJQQxrmQPfrDQS40Np+/EBZu+9hcu6BvXBgVnhReiQG5h1Zb/jDPToCQ1V8MbrA+jY/A7zQwqYcsd75OwqY+/2HQSMzkNZY0FryCQ9yYCnp2SqQwRBQBAQBAQBQeC3IyAJUlLfRhKmtm3bxt13333smb/frhp/iZz379+P1G+UmHdzl9SHS0pKXMvQJLVhaVZWBEHg5wgIwfUoQmaqN87mf7fNJmnWJ0w8gZEZq3Elswo+IW3hU4w8EWNkR5V5akbExMRQWFiIpNIhCbDSi12acZWCZE1YUu3QarV/asFVo9Ecd32FpXYHnzx3I397dint7aYu0/7A/v9w1fI3uH7obXz94jX0C9Xh2Pw6Wwcs5POi73lrUyr3nZFE2e5i9Jla5HIZVQuMZIyIIT7RB7nHLt4bfgn3by1BWuJsN7di9ngbzK1YXh/NImmmMnMEF8z8F/dk+uHVqVt+1I3iH5FAYmIvFvpqNlBiT2byrW8QPLKB3L4DGBLTwD5fGbHjYPH/2ojCzphrErusBXsTk5BDpPc2XvnXuTzwxo+SSQysZiseCoWr/kPu/JArQxZQl3MGQR5dei86Hb45keQmJv6ssJmQYMBY788ytTc+WgVy41qUI25kSJInVQ3P89Db/yN94u1cMSSOo+eWj2q6iBAEBAFB4E9JwNzYSHNLM9romCNmUt2as+lbvg4axxmhR1hHqa+nxtiONTIK/ebFbHQGEJecTtiRL02biX1LXmXGT+l8ftdw18zKodzLWfDPu9gUOoWzrphCzHEM0x86p5et+iXc83QtF/19PIl+mkPfAGsj21Yu5PvtEVxxdcHRg5rFn/HA7jSuHpJEsHcv3y+X68vlfLd2J/LU85gsWb7fP5fpizz420h/dl+4jvgPLqQwzLtnvaq1sYqSDT/RnHsW/VyGqKBt6yfc+pORsUMmManTOtVRjZC8Ikh/kqVbqT9zTJXVo84UEb+EgMTV3QOFp6cnKSkpZGRkuGylZGZmUlVVRaNkzfRXhLqqOgIk42FuoXbzu3y+ehvhg+5hQnK3lxG3BEdutlWwccNy1mrGckUf6aFoZ/OHH1Lsk0LR8AG4ViG6neMwd1C24ENK+l3GsMOLdkvVvbmDN/9VzIg7xhDVZdW4+8jJ/m1e/RIXrwnl/rNHk9O9dvCXFlI7n1sebeHvj00h/CgfPL80s5ObXgiuLp4beDJ4LA9ZLHg4HdgsNlDIkefpO9ViPRQoZMO44el7ufGybPycdqx2DxRyyRUMOGVO7EUD6bagLZmTt9ltIK0pdDcBJpW18yMGnj+Ps//zCH8rDDklFz5332LSS2Xq1KnU1taydOlSFi5c6BodkwRYaXTsoosuYsiQIUjC3581bN261dWmY9VfqVSTO+5y3r74OybESaqzm7DqAkjOikS27WM+NI8kwaBzfTxludfyN7uZgzt90Hr5oFfJKZMy9gggVbeRDzSNZNt8ybXacCiTuOD7ZZznsLFy9ueEjR3HYfarPWQoVGo0Kk/krpvMgdVsxmKz06OkbTRjcbTR1nb4h18mV6AKyKFQGkRp3sDWPQ58vdR4yjvnMZ2kMSn0nwwvu5QtVhMWuQalXPpweyIPz+a6h9/nmoekUlpYPnsNvtlpJMSHopLJOzsJ3dOhVgu0NiKLSjvUYTkWSIeVdqMJo10Gpmp2LZvHk39fQGX0o1y2FgqnXc+lQ4bi7dhPbUfccd0AHasIES8ICAKCwJ+BgLNtFx88cQt3v7ejy/aEE7vd6RpE7fEuZ7cw4dXdnHGum0qxs4N92z7i0dmriTnnYf6VqcezVI3D6AR194u5m4ATjaeT/Lx0vCxt7F//CU/cehPvb5EE4WFc/8RdXHJmHKFKyY9D7xo93Tkd+eus/4nHXiimb6EDQ2Ye3jYL7W0eqLUqZA4LNpsdjcGLqPSkTqHV6aCprgG704lKq4GQUYxf8hnFTT6o0KPAicPRQEtLBOHhMuw2M20tcvy1Aah9ZZhMHTjamhkRlYxebqFpSgKxHhYsNgdqhQyn3YrNU4VcHcC+1z5Ee+0k4uW1rNqs4azIVHLCPGlrO8jSZQcpHJCBQdcp5UuClGQcSLJwm5yczG233ebylHBke8X+/5+ApBIsLT+TNPekyZC0tDSXenBRURGRkZGuQYO1a9e61sAeXZqRHV89zr0PPs98yfNlT3Bgt0t9Fw+03vfyXdlNLsNM3YcdtnQyYkKJSlTjbFzDC9fcwQvz1lEnPSpSP370M+z+4DLC5F2DQ95hpMTHs3Lef7ij+SIe6dNCTVgECnsIyrZmrJ7eKORyV3/Hbmmnw2pHldmf1q/mUjouG1lLDdVlP/Li3ffyxU7JsGk2Vz/9BH+/qC9+jlguvK6Em27/mtsfCeT1mCk8311Rp4P04dO475lXGBl95HPcneh4v07sFgsWi9Vlr2ff7lbOz8zDX9Wpms22rWzP70c/1zIvJw6bFbPJ4kpbu/E1nnj0Xt5bimtgodvisXPIHcy7fxqKY0yaHK82v/UxIbi6CDth2H0senICmtr9LH5tNYl3nEdiYzFLtuym1n8IZ6f7ozPoO1/C9Ut483sVA/LC0HsrsJpraDLWU1le7jLd3lSykIUr5uM7dhbTs7sdezgwt7Zhjz2LJe/bKXx9GWfmTyGmx+Hab32pf3n+3S/1hIQE14tm8uTJrFy5ks8++8w18+rr6+uabZVmX/+s4ef80FqsZkztjXhHKlxtlSsUOOQmtn74dx56cQ45/8hB1ie6q/lOjA0VVNW1QLefMquJxi3f8qUxkEmZicybdS3nhk3joZnnkhmiQVH7LUv3lLEzM5NDdqed2ALTmXjtQzxzRd/OEfmWLbz993t5ad46JFsAh8KLzDq049pKH3Y2dzzyDEX+LTTXVGOUfCZ094baGtj7zV28bbiL9fkfkD/wFi547FNuHxmKR0crjU1tWHvyM2FxOjC1NFJb5dHjPqC9xUpUcjSypmbqDrQTWXgCVvi2v0efcx5Fds3LPGYZx03G+3lpweu9unHSWI3YVFq6ltL21EZsCAKCgCBwehBwkjN2Op/fei0jXG5K9/H57CqyslKJj/akyqQgcNdLPONwW6fqdGAs30JZq5IL//EWQyIkEuEEW1fSVGFH5xWPj6qzU43dSF15BQdr66ne+yOfbirBo2g8U2+dz2MTDy3rkISIX/79tlFfvJ0tK2fx0qtltFvkPK1SIHcM4cnls0hddScf+97ApWGdHWGpls6W3cx/+lGeeQKxGRkAACAASURBVG9h52AucNGTTxJ69llcfvAgRhw4lP4kX/Yss29KZvV7jzPjgY+x2hx4ZAxnTLKJ6rXLWXtAgdITTEYH/35Kyfhnl/PKWcHUrH2bv515L4vNdlSSIcFnnyE3byLTb8xg/0d38vcZq6lXFHHrrZMwp6Qy3uuQtdTuWUDpV2Lxy3mcHnfkb90KyXVinz596N+/P6NGjXJNegQFBZ0Abyc2k42gflfy9OdXHlHNA6xaHcyYiVrmPPcTnStcpfTtNNc1UVldQ21TE84tWzBTgd/lTzH32RTiQ1VQ9TVPL8smRNIeczowt9VT2yw5Xwpm4qiLXeVs2dqMr8pAfLiKku+vY53/tZw9aACBWg82vpLP5IebUfqdxV13xnH3xHuIvuUOsr0GccVDi3k2B4orvQkJTyBYtYM3B7+G+rF/8swLIS5DTfc3NnJ/V2sadq1h3fqV+LovGT+ipcffrWPDq8/w6GPvshrJbWUWAwa9z0N7GmhuAq6byUt18TAhEKwt7Pn+Vf559dOsstnInXQd9z+7nMl7a1F7BhIW543SU4H5p0d5dJuJ/0pGgE4xSfEUq87xL81vedSx7iUuHv8SDruVtmYzXkvfQW4z0SGNYChe5HVlIZfedSMzpqW5VG4q3rmHSx+uxiz3wOkwUl9p45NNz7uur93sRerAC7jj6k6h1WKxIJO1smrWK1QVTWFM/wtY9WRnaxwOI41VNgxhPj2CwW/Zzl+bt/RS9/PzY/z48S5LcNL6V2lfUvc4nYMyIIW80d1WK2RovLQotL5kzniFuTMOb7ndVs03D57FczuiOf/BczqtRlfu5MC+BrLOvIpRSVpGDRlN6/rv2dTeSJtdg4+nD62mDJ4+UIZ/z0BbG/tK9lJW5od3d5w+myte+4IrDi/yOHsmiue/zjPPv0VDv1sZp5cszanxWzGLj856nH9PiEStuI3ty6+lfM0CNtUNQrnkNR558H129uSawvl/G4v92deZu2U33atPRo2/gQk3nE9q5QqW+43j+i61rJ7TetvIuIwdOy/rPGJfRvby97h7wng29JJ2zMx/c8P5Y4l0NwbSSzoRJQgIAoLAn5eADWPtQUqa62mnggMH6lCpnRgrdvGPrdG8nmWlx2Sw0465vphVqzewxZTFsMYtbOnWqDTt5Y17FpJ5QRG5Wf74hiUQaVnCvRNv5MuKSvSZ1zL+xSsJP7Cb+ppmtm+RPI93hqbmJsLi0ogK8e/ydHACNC3l7LFn87d73uQO2yo+3RTOuP7heLXsZKfRgladwoB0X+iun6T22+FF7rkzmXXBP3pUe10lvfYanSY1bTgdQcSmh6NTwOhrnqd4zBVsKi6mJTSTUGlKoHk7m0xBRPvJ2LXWQk5eEGo1tDhUBBfM4OVVRSz6YjWhQ/ui62hif0sLuuhM0iYo6TPjOnz8wggNSiDY0O1h4QTaKpKcNALSjPY999zj8uGq0+kOUxs+fiEWytd+xAuPPcY7y6qoaz7kJAbvm3j1paEUe/Rxy6KD6o1f8twVD/JpfRP1jVayp4zjvMmjMDcfpMTTjrFOchlVSrs906XB5jC3sPnTO7n8mZVd+dgwtnaQN3ws6Sr4adlycm9+jomhIehkknCrJn/mDnZNmsdzy8KZMkRJtLqA5JFx7F2/H+yeVFRq8NUqCezuHw0sIi/W68SfM7cWHXfTbqah1ohq8PncN/h8oJyflncQHx9JcIj7+oFqduy0EJEQTtKEf/Bl8Xls2l5MjUcf+iU2Me+tl3hyRy2a0hJKjEZyCtKxj/aUnJ+cckEIrl2XRHblq2y+tR/G5lKWfroOr6RgnLYmWhXeBCcNI/8IM9kxM19i7pA4/HUKLKYVvHhzNdNnTUFSc2/cvYa1a7sfADN795bi4yPNSkYS6Kel2+2saw1hx27mvLKL8EtGMyjW91Qb2Oj1hpXWKkjmyyVhtnu0steEp12khqR+x3bYJPcM47wXNnOeW7sTJ1zLbRPcIgBd3mgGdkcFDOORh7p3un+9iY3LJvYE1ld3n3H0r5rEUbfw0qhb3A7Fc/an33C2W4xc60P0kDNxzRlPvZ2Pp97udrRr8+oZ3HV0LISdx/W9xf9cnNyLqMFX8/bmq38upTguCAgCgsBpSqCVfT98zPxvZ7PR1EiFtPTDqCZ8xoN8PC6YdptH57IQaTao+QAr5nzHB69+wU7e5d1WI1aHB956L2SmBuoGn4Hv7Fl89XIliTe+ykOTx/D0knfJvv0aFiWm0bi9iszIFua88W8Wv6XD1lRDO55MnHQ2aRPi0ftCwImu+GlQo22dy9V3zWLlukrXtXlAsntx8RN8OLW012ul8bFT8sEnPDvrM/YpdegNWtprWtAE6FFLy7Lkgxkx3sDIqH/Q31fycVlDyY71bFy/jqX7P2P/+nXsjhjK1MCV3P9tFOddFcI/b19KTObZPDv7YYb4A9Zadi97hkfeVmILz6Ffpo6UgKXI2/2wblnMkiV7ybrmY/45MQvDcQwy99oAEfn/JqDX6/Hx8fkV/UYVMQOv5Kn/pmB49hW+WF6KlzRfYqyhJD2V/hNGk6Zo4ZAGsZbw/hfy8NIihr/8PrOXtZB94WQm5jj55pGXefKtfXQoPcDSQNRVI122POxWI+qE6bz44vSudjaxY+Vumjr8yR0Wz/DzL3DFO5srqWgJJcajnuJ1O6m1ezEosoHNe03Yfe18NX8OG8p8uCjTF8mfn8Xuj11SYfst53faKln6xcs89f5yVx1NDZVEZ/fli+/aaW9yGz2S/EIEjufO16RnrJfLOWg6j5wbi3P9j7QOHUhu83e82hGErFtbr5dT/qgoIbhK5M0doPXCbqln/+JdGD2q+P7Jd9kTEkvygImcoy+n1T/CNRLoulDSkpD2Pfz4w26Ucgd26y627W9i3lcylypxW0MtRg8DkZ52Wg6uYsPmJpIyOkd2Dr/QHnSYQhk8ejP/fGUxKY9MIfQUHN04vM6de0KdpjcqIk4QEAQEAUFAEDgRAr6kn38tN9w2k6YtC/m6xoj1oAp/bTjy5EQSdynwkGwhOq201h1gv2w4Ty+5BW97E9vW7aLJFkCfonhkOz5mdkMa/TMzuKfHyJKT2n278Mu/lNCAIs6I2ctmWzIjLnuTuyfmULvwf2xyBJBVNIbo7unXE6mylCYkhGhDGHk5A9D7VVDVrCUsQItxVyn++SmwqnvQ3i1DbQyjb74drXcUFaEFDBuZwIZXXqc6JBK9WoOHTI4mbWBnh9pmpHb3EmbPfout2qFccscTDDPO5s4Xv2BTaQxpBbB5UzER+um8POdW+rnq78ShCiRj0gtMzvFh3/K1bN7bTunenbQ2LCJ0xH08cmM9+xMCe1bxuNVObP4OBE7GREf/c2Yy6baCTnsy29/l7zvyCVYpj54UdJhprGrBqApi7E1JaIP8sFaXoc8bxQX9vfD1VUDTGlYqlC41YVPVBj558hU2dXGwG+toaDXiUAayYLkHnmp1j0bk+JufY3paNd88ey9vrmomsiCBoOQUIuw7MRXdzfV5NRy0GtCa1rN2+1Y6lOeQ2b2a7BdwtjY20qHRoFWrjz+hpY9h8jWPMvkaKXMbJYtns6W+DYcyALnjUIERfUaTd6QFN1sb1XvXssZhpqbNizDaaGyRobTKDteMOJTNKbElBFfpMlTU4Z2Rgt1Sw445e6kbEcWZD75Asq6W795fxiKnhvAkN8GVEOJ9V/DRl6toazPhsNeys6SDts/KOzV7DDH0O2M60V426rcfRKHW4BXkfcjhdtell0yC79lXSkb6aP5ZsRvnn0RoPSXu3L9wJcwH17NPnkJC4ImtA21tbUWpUqJSdg8zmygtbSNa8tIugiAgCAgCgsAfRMBI1YYdbNymoM+ggSSm7eGRB3+gOSmcc7s7nTIVAQlDuDShs4qmulrazEY0MeGu/kZzixE51sMEMmfddlZWRZOd1shqox+RmXradmylxJDR48fxsAY37eGLBeto8cvhnCFJaI80KnlYYmknkMnXP0yO/wG+WB/DeSNj2Tnnc6IC5FgDo4+2cCyd0l5JpYcGD099pymotm0s+m49NqcnHgolfsp0RsXpwWpHG5jFlJueZ2xDFepANZqGAGLzhhGS7UWnkdQDfK+PJKS7ng4rdnsDdv9ovKilRRFITk4IQ6P7Q0MDTfL97LXq8e7owOaUDBx2rQU+ql0i4lQmULFjLavW7WKTtIyoYjmNoUf6/pVq76CjuYqallYC0vrgSQNRWSmEN7ay4JM5rNhXg0Mjh45ylOOng4ccXeIEHviySzXO0kLZzp9YX+dJTGgstpZmDDGJxAR79wivEMMtHzwMV5dzycuT0FVsYO2ORGri4tC2dKBrgsDsqUStnkdDRRntv9TgkqWeLbM/ZFFgNmePKCDaNcV8IlfGhndaEZFL/sdn8xZT3mKmrLyNsDBfBoYM7hRcHRaayrazYvkWqmVO2orXs7TaB9/koei8TFRE+CFrMYMhjlRvT7ofsRMp/fdKIwRXoKbZm4IsPUpvf85+MY6a3cv534evMU/jQ1LaZG48M7FnqYnrwoSlMlj6G925yPFIVWH3ixfR9zymuSKaqWUnP362h3U/+Lle3JLgWllTh/KmB+kz1c0Ig3sGYlsQcCfQUc6Wzds4GBhCjPog3787hz2OHjvDaAMj6TN0PDmS8QFXsFC65guaDTlkZWSicxmPbGX1J59jvfYqEqSlryIIAoKAICAI/M4EjFSu24Zp0y6UA/IJDg1AoQzgnrs9WG5W49FxdHXs7TUc2LMHkzKW5MjO9WsdRn8CArVoul/50mnGarxTC9FVbHR15I2NzbTVmgnLDTo6Uymmo55tWzZTatqBOuzvTEv+JQYGqtn4xg/s8E8lRaFEljmESLWZkk4t4q7yrNTurcMz2A9b20o+XRmG0usM7np6FDF+nVb5eyqm8cEvygfNvs1sbeiJpalyP3sqTVS42llHuTW0x8K+zWKno66DhNwgrHUNBAYnEKdvoRrQx8biLN/CvqACohoP0mENQe+pPXqW7lBRYutUJOAdhl62jg27uw1Uqsnvq0PjecSMj7WD5upaap1hxAU2c9DtHgocdQl3pbsbZ1Iffh9YWtlXvJY5FSryMgrJDmxk1bJdrPhoP/Uji8hMDkaSeTuDE9O273j1xQq8zc0YrR2EhHQKv60H1zL303U0mwLJCvRD5b7gu/v04/0a97N87o8sjPdjdFEfOnWjj3dC9zE1Bkcjq+wBBCfmE4wvIy/qy7ShSai6rQM77ZgaD7JzZw1eRWM45/qJ+Gq9cHq0Urp+M84Af+QNu3hvzT6MGfEMj409ZNyzu5g/+FcIrtXr+ckWR/aWJ7h/kaQDDEq1En1EMLrmdhqr5/LY/e8D8QyYMIKiPqE9hg1+2bVTET0ghaDle6hrOPQkSYvUzbZflpNI/Rcl0FHGkoUbafYrwM/ahtxupq2xkQZ799A8WFQGTLZDgiymg+wuPYiDDNKdtaxfZyY9Qw7V1TQeOu0vClQ0WxAQBASBP4bAwV2VrC0vpp+hgZqfPuann9zrMZcfKlegvnQmSPOp7bVsXvASC4o1xOYUkJsfj2X7D7y/cDll5liGnGnA26035xE1nGG2DqoqHHQ0lrJp2X7M0f0olNaC9hZCC7jzvgLad3zBvBPoj6gikolX+OPlPOBSTzQ3NeE/MBMfDycdtlK+fehd1qnVZIwf6vKFWbZ8PRt3mEkc1R/NwUXM3bcfWYCWxf/9D+9bO91yuIwHBo/kvCtTsGxezpfvrMSW0p9xBdJqrhY8ZDL0vn74ueR1K9q6Lm8GDisdFZvZVKfGcOAl1lfmMHBEHwI8StixYAE/Vnd0Wcr/iuUOAxcnZBIc6bKd2BsJEXeqEjDEc+YlN3HmJe4VNLLru+f4bH0VhJyDS2x0yvA2+BMfHYtqx+HmH5tWf8sb8z5DKfkObttNXVaK5IiJjoNr+fTVOZRIrh0TsshK60d/18BQKAWSQZKG1exd+DaLvgpiwLQz6Rejd82+Os1tNDU0IBlglat9CfB1Irl9sNtMtLXI8M9NJzEmBM0xBFdrezWbFvyXTzcqCEzL4/xul1bqUPpNvYL8xCxifd0NLLm3vfdtp81Ma0szDQ0tUFPCyqAcpjgP2XlDriEkZzw354x3ZWCt282PX33Aih0eBIdnMHJ8ArEKGRu2b2XrwmWUFUQRK3N7ufRe7O8ae2rV5ndteldhciUxEeEoy/To9Z2Cq0ofSN7Is8k3NLJp1Y8sNUkLTbSolb2rlyg8YxgyNYjjT16piR5wETMH/BGNFGWeDgRq9x+gXRFMkscqVmyNIDBrIFPvvsdtxNBMbXkp5fuqMEXGIL3uTBVbabFq2Dj3S5Z/XYLZMoprHhyCw76Rdx99H+3tF5Desy7qdKAk2iAICAKCwKlNwNMQQ3L2OHz7hREjL2Pj6u1HV1g/lqKoTuFMEtqUWj2+oVEkpvUnwQD1tWq0Oj1RqZnEBAUcrhUm5SbzRBc3mMl6PX5tdnQZUT1pfBPzSXdq8D3CfatX6hTOOromR8WoJcFViu1IojDDh+Txg1EqpJkvBx4yTzR+IUSFRJMVI32FjChU3kSnhhEeFooh+nyuSy6j1Gxk53fttLW2u/xJSl1rnbcSGR4olGp8oxPQpyQjKQ95+KeSm9JMcUVrV130jJ6Wh8E1i2THU6sjJjkI5859xMTEkpzki48lhrikFKpNJT0W8fVRmfhrVG7fzKOaJiL+VAQ8UKh1+OhlJA1N75xUUmrwDol1uRE0RoQTExDQ6cZSG0V2RjzWksrOZXv6vuTk+Lk8BXrIVXjp9eh9AonLKGBSkpv1InUoBdPGErHWwYJ1NlTSfS7984hh/OMPkzYqAY3Virm1FaOfNx7qSLRBUQRGBrrZZAqm3wRPgnwOv/c8POQoNXpCYsJJyy08pGKvDqNgWqdzn196OVThfbjgii4ry3XbeKvU5/iWjOUK1FodkvGs7AFpRLo8nOTwtxtzqNmwAUe3j9tfWpHfML0QXAMycNmJDb2Om/odSTqU/JEXkC8ZHjtOkMlDyRt+nATikCBwEgio/BMZpNzGI7Pr6V8Qxsp/3MjjRskDXnfQExxSwMgzMmkwQpjWTHmFkQD/cPoaomhad5C23Dh0ak/XyzUxUcGKV2/ko6gruG1q5s8MvHSXIX4FAUFAEBAE/j8E5LpQ8kaGdmWRSkrR6ONmp9D4kznyJjLdUvknDmRKYo99ercjXZsyBV7heYwMl/ZdYmZPGl1kSmdnvifmV25oosg8zPq9DLUhieE3JbllqCW0Ty7drXUd8It0WbKPvjyZMW4pezbTB3O+5D+yOwSlM2Gqe0T3AelXhjo0q7MfF30pud2HlP6kDp9EquibdRM5DX81xA+/gpnHuMbaoKBDGpKqYPImnUteLxTUwdmcdVN2L0e6o1SE9zmTi9297hBC/qiu456eqPwklWAgKMjlMrP7zM5fP9IH+B0eJblH1QaQNeomso46cpIiAtK59GdMmXj6xjF4YhyDeykyKLfnaerl6B8XJQTXP469KFkQ+EUEfOz7eGB9Kc27ZRguiCN50kR8zVbslg5qNi6hKnkCwxOSSM8NRC092fUVtHiHYrIZGJ4RSIWkdFaUQoTGwTpDEVOnj6N9gw9lXsGdxjJ+UW1EYkFAEBAEBAFBQBAQBAQBQeD3IyAE19+PtShJEPj1BNp28smaJjJiskhL20ugpx8JY8eTDNg7WtmvbKGkaBSDArsNFUi+xeqwySIZHFLL/q3fs96nL5P0ehQekm8vD2QKHfF9xx4xFv/rqyjOFAQEAUFAEBAEBAFBQBAQBH4rAl2r23+r7EW+goAgcFIIaKIYNmgA47Ki8NFrUMk8fmadjg/x6RlkpIUTlOBDxXvtBKu16LwUP3PeSamtyEQQEAQEAUFAEBAEBIHTm4DZjHFPMSWAubKEHWuWsqvtGE3e9RFD7/qGWjdPEJ0pW9j91Yu8ctsTrJNMYYtwXAJCcD0uHnFQEDhFCMi1BPh6o1E1UF1qwdppR+w4lVPg5aVFa9vF2zcvpn1ECDXPXMXQ2Gge/t7EyKsmcCwDk8fJVBwSBAQBQUAQEAQEAUFAEMBBe9MWXn3ucv71eTFKnQy5lycdTcdA01FPSGIiBsn6duMWXroomuho6W8S938XTN7fLiRW1X6Mk0V0NwGhKtxNQvwKAn8KAg4cDnB2ebxZ/ngwEx9TEZVwF++tcm9ANSv+/Qj3f21k/D3/ZMawOJRnjuZCu4PtbxeSfnEFRnNn+tCkXO5/dyFT3e1puGcltgUBQUAQEAQEAUFAEBAEegg4zG1U/PQ+usvm8EamBg9P0Cut2Oo30xaeibdH99ItJw6HA6fDgVpVzexrn0J2yx2E9X+aJbNG44cMuacKlUqOmE3swXvMDSG4HhONOCAInIoEUrjkwZSeig24rZrG23p23TaCKbz1Oebe6halULiMMPWbuZUKyT2gCIKAICAICAKCgCAgCAgCv4yA3UTttk/5suMaZkSb6Ggx0SFZClY2sfblZXzrU8OU63IJUnvhZVzDI1NvYtaqTTTKJjJ0/fMkVx+gymHFarHgUqCzmCg/UI/MU0VMdDQKIcEe83oIwfWYaMQBQUAQEAQEAUFAEBAEBAFBQBAQBLoI2Nup3PI1d537KEtwMutOK+YOO2qdBpndjCk7j4GK1azovxaPix/koWvO4p4FX5N76wQ+8O3Phm/2MmG6LyueuYW/v+AFFhNms5k+A4Yy+pJ/Msg7mqxAQftYBITgeiwyIl4QEAQEAUFAEBAEBAFBQBAQBASBbgKNa/nvF748UVyMn9NKXfkOVq4wMmRaf7wqV7N8byPyuDEUhXWfAB37t6BNOQ8P7bncEbSENW0RRI95h42zR2LbtYZ161fhN24m+YZD54it3gmIyejeuYhYQUAQEAQEAUFAEBAEBAFBQBAQBA4RCBjC/feNwQ9wmDtoKd+DMzkdHWBqN2I1tqCQH0pOexXr93qTmiZH4QmBIy5goLqEen0cPm7JxOaJERCC64lxEqkEAUFAEBAEBAFBQBAQBAQBQUAQwOmw0rR/E8VVvuRmS2Ir2Kw+aFX++LpLpE17sESl4aPUuowvOe0dVG8oI6IwTlD8FQSEqvCvgCZOEQQEAUFAEBAEBAFBQBAQBASBvx6B6o1v8fVaC37+ngT3uwS/hr38tHQhWw+qiM7KJUXjxiR8IMOk3Y3Sf20UL9rATkcfRkW7pRGbJ0xAzLieMCqRUBAQBAQBQUAQEAQEAUFAEBAE/soETI0llByoRJYyjQHhTuzmNurK99CoUBEYl0SvS1WDchmXosXUYCZpaA7eXQA1fiHEpOYRov4rEz3xtosZ1xNnJVIKAoKAICAICAKCgCAgCAgCgsBfmED0sAd4xDWN2glBF5rNpL9lM+l4TMIKmSYZbMo6XEVYExhJYmDk8c4Ux9wIiBlXNxhiUxAQBAQBQUAQEAQEAUFAEBAEBAFB4NQjIATXU++aiBoJAoKAICAICAKCgCAgCAgCgoAgIAi4ERCCqxsMsSkInA4EnE4ndrsdh8NxOjRHtEEQEAQEAUHgFCEgvi2nyIUQ1TjlCUh9MOl5kfpkIpw8An/IGteqqirmzZvH1q1bT15LRE4njYDRaKSiouKk5XcqZ+Th4YHVamX+/Pns3r0baf/PHqSXZLfQKpe7OxP787ZMas/69euRycRY25/3KoqaCwJ/HQLSt0R6b82ZM4eNG13mRP/0je8eFJXadrp8W6Tv/7p1606Lb/+f/QaT7qvS0lI+/vjjP3tTXPWXnn/pmZH6LadD31JqlCQbVFdX/6Ht+d0F14CAAPR6PcuWLTttXnynxRPm1gjpQTMYDISEhJz2goKXlxfJycmsXLmStWvXulH4825aLBbKy8tRKBRERkb+oS+Yk0nRZrORk5Nz2rTnZLIReQkCgsCpRUCj0dC3b1+WLFly2vR1pG9LSUkJOp2O0NDQ06J/IPV3pG9LZmYmnp6ep9ZN9BerTUREBNJz8+mnn54WLa+pqaG5uZnw8HC0Wu1p0SZpBtnf35/AwMA/rD0ePj4+PzuHLYE/WUEa3ero6OiZETpZ+Yp8Tj4B6UGTXuSny0hRb4Skh1CaYZZ+T5cgvSxffvllfHx8mDlz5mnTaZKuj3Q/SoMNIggCgoAgcCoTkGZb2traTqu+jvRteeCBB1wDiNOnT0elUp3Kl+AX1U36tkh9ntO5v/OLgPwBic1ms0s++AOK/k2KnD17NmvWrGHGjBkkJib+JmX8EZlK2hZqtfoPG+j53WdcpZeD9CeCIHAqEJAeQGn0+HQKJpPJ1aGQRi6lmfPTRaXrdLpGoi2CgCBwehOQ1AOlwcPTKUiChVKpdM2KSZpzUudVBEHgZBGQBkJOp8EQaSBEao/0HpD6YiKcHAJiwdjJ4ShyEQQEAUFAEBAEBAFBQBAQBAQBQUAQ+I0ICMH1NwIrshUEBAFBQBAQBAQBQUAQEAQEAUFAEDg5BITgenI4ilwEAUFAEBAEBAFBQBAQBAQBQUAQEAR+IwJCcP2NwIpsBQFBQBAQBAQBQUAQEAQEAUFAEBAETg4BIbieHI4iF0FAEBAEBAFBQBAQBAQBQUAQEAQEgd+IgBBcfyOwIltBQBAQBAQBQUAQEAQEAUFAEBAEBIH/a+8+wKOq0j6A/6ekJ5NJ74WEhCQkQOgdpAgoFrBg2U8UdW3rru661rXuurp2192161pAV90VXTsiivQaSkiAQHrvk55p3/NeSEgQQrJOMjPJ//rEzNx759z3/k6Gmfeec8+xjQATV9s4shQKUIACFKAABShAAQpQgAIU6CcBJq79BMtiKUABClCAAhSgAAUoQAEKUMA2AkxcbePIUihAAQpQgAIUoAAFKEABClCgnwSYuPYTLIulAAUoQAEKUIACFKAABShAAdsIMHG1RLNoNAAAIABJREFUjSNLoQAFKEABClCAAhSgAAUoQIF+EmDi2k+wLJYCFKAABShAAQpQgAIUoAAFbCPAxNU2jiyFAhSgAAUoQAEKUIACFKAABfpJgIlrP8GyWApQgAIUoAAFKEABClCAAhSwjQATV9s4shQKUIACFKAABShAAQpQgAIU6CcBJq79BMtiKUABClCAAhSgAAUoQAEKUMA2AkxcbePIUihAAQpQgAIUoAAFKEABClCgnwSYuPYTLIulAAUoQAEKUIACFKAABShAAdsIMHG1jSNLoQAFKEABClCAAhSgAAUoQIF+EmDi2k+wLJYCFKAABShAAQpQgAIUoAAFbCPAxNU2jiyFAhSgAAUoQAEKUIACFKAABfpJgIlrP8GyWApQgAIUoAAFKEABClCAAhSwjQATV9s4shQKUIACFKAABShAAQpQgAIU6CcBJq79BMtiKUABClCAAhSgAAUoQAEKUMA2AkxcbePIUihAAQpQgAIUoAAFKEABClCgnwSYuPYTLIulAAUoQAEKUIACFKAABShAAdsIMHG1jSNLoQAFKEABClCAAhSgAAUoQIF+EmDi2k+wLJYCFKAABShAAQpQgAIUoAAFbCOgtU0xLIUCFLCngMVigdVqVULoeCy/zWazsk6lUkGt5nUqe9YRj00BClDA2QQ6Pk8kbvk8kc+Zjs8Wec7PFmerUcbbnwJd3y/yuOt7RY4r38PkPcPlfxdg4vq/2/GVFHAIgfb2dmzduhUFBQVoa2tDfX099u7dC09PT7z99tvQ6XRISkpCYmIi3N3dHSJmBkEBClCAAo4t0NLSguzsbBw+fBiNjY3KZ0tOTg6MRiNcXV3h4+OjfLakpaXBxcXFsU+G0VGgHwXkgo58Fztw4AD27NmjJKzbtm3DkSNHsHr1aoSGhioJ69SpUzFs2DDl/dOP4Qzqopm4Durq5ckNBQG5oldYWIh//etfyM/PV75UVFVVQaPR4NChQxg/fjz8/f0xfPjwocDBc6QABShAARsIyGdLUVERPvroIxw8eFD5bCkrK8PRo0eVi6OSsMqF0ZEjR9rgaCyCAs4rIK2o0gNB3i+ffPKJ8l2suroazc3NSqOCNBpIY4I0IMTGxjrviTpA5ExcHaASGAIFfo6AXOmWFlVJVHNzc9HQ0NBZnFwBnD9/PqKioniFr1OFDyhAAQpQ4EwC8mU7IiJC6d4oF0WlN48stbW1yo+0HsmXcK2WXyXPZMntg19AeiFIa2pgYCDWrl3b+V1MGhIkaZX3S3BwML+L/cw/Bd709jMB+XIK2FtAElZpTZ03bx5iYmK6hSNXxGfNmqV8+eCXi240fEIBClCAAj0IyGeLJKZz585VvpB33XXEiBGYNm2asl7240KBoS4g37GSk5OVxgJ530giK4u8P0JCQnDLLbcgPDyc97j+zD8UJq4/E5Avp4AjCHh5eSkJanp6Ory9vZUr5HLVT5LWsWPHKlf7HCFOxkABClCAAs4joNfrlQRVbjmRx9Il0tfXF4sWLVJakDhugvPUJSPtfwFJUidMmKA0JMj7RBb5PX36dEyZMgXyXY3LzxNg4vrz/PhqCjiEgPxjKV26zjrrLOWKn3Qflqvh0gor97dyRGGHqCYGQQEKUMCpBOSzQz5bJFGVe1nluSSxM2fOVAacYWurU1Ungx0AAXm/TJ48GXFxcco94CkpKbjyyivh5+c3AEcf/IfgjQmDv455hkNEQEZ4nDRpEvbt26dMWSCtrampqXBzcxsiAjxNClCAAhSwtYD04pGkdeLEicp9rnJBVG5DYWurraVZ3mAQkC7C0tNNGhKk+3DHdzGOvG2b2mXiahtHluKkAjLimwxX3tTU5KRn0D1sGZgpKCgIo0ePVr5UZGVlDYrWVumeJj8ygqXcWyWPuVCAAhRwVIHW1lZlagwZIG8wLB2fLXIxVBJW+dyU0eydfen4bJHWMGkhYwuy/Wq0tLRUGY3XfhHY7sgyNaE0GsgtW9JVWKaRGizvF+nuLK3K9mpBVul0OuuZqqpjJLkz7cftFHA2ARnW/7HHHoPMVzcYrh7L9AWSjMuXJvnHxcPDw9mq5LTxSh3JXGiPP/445ww8rRI3UIACjiAgX1J/85vfKHOdDoaWlo7PFpnPVVpg5WcwLDL/pnxmxsfH4+677x405+WMdfP+++/j3XffVT7nnTH+k2OW0bcNBgMCAgKU72OD4YK7yWRS/k1btmyZct/uyec8EM/Z4joQyjyGwwp0tLjK/QcJCQlsyXPQmpL50TZu3IgffvhB6QbtoGEyLApQgAKKgFxoy8jIwJ/+9CdlOjKyOKaAtIytW7cOmZmZkC/lXOwnUFJSArlAsnz5cvsFwSP3KCDTYslUP+Xl5T3u158bmbj2py7LdgqBjvsRxowZw8TVQWtMEleZzFu+YHChAAUo4AwC0u1UBjJKTEx0hnCHZIzSO6moqEhJXIckgAOdtLRIyrQxM2bMcKCoGEpXAen6vH37duUCQ9f1A/mYowoPpDaPRQEKUIACFKAABShAAQpQgAJ9FmDi2mcyvoACFKAABShAAQpQgAIUoAAFBlKAietAavNYFKAABShAAQpQgAIUoAAFKNBnASaufSbjCyhAAQpQgAIUoAAFKEABClBgIAWYuA6kNo9FAQpQgAIUoAAFKEABClCAAn0WYOLaZzK+gAIUoAAFKEABClCAAhSgAAUGUoCJ60Bq81gUoAAFKEABClCAAhSgAAUo0GcBJq59JuMLKEABClCAAhSgAAUoQAEKUGAgBZi4DqQ2j0UBClCAAhSgAAUoQAEKUIACfRZg4tpnMr6AAhSgAAUoQAEKUIACFKAABQZSgInrQGrzWBSgAAUoQAEKUIACFKAABSjQZwEmrn0m4wsoQAEKUIACFKAABShAAQpQYCAFmLgOpDaPRQEKUIACFKAABShAAQpQgAJ9FmDi2mcyvoACJwsYsOmF5/BjhenkDad+XrwR93y2A0drW0+9/fjattKjOJS5BwUtPe52bKO5CYU5m/DB+qJT7NyERoMRJuOJTVZrLdY//zGOnFh1xkeGWgOsFmu3/Zrr65G7fz+auq3t8qQgH7ltbZBD1278GBtrumzjQwpQgAIUoAAFKEABCvRSQNvL/bgbBSjQTaAI396xGm0XnI/ZUz1RbvBEireq2x6nfeI/AlMrv0VlWyyi4A4XAC37VuHvhnNwxzR958tc/HzRnluO+uxceIW6AZ5W5HzyFzzz/k4U1ctuU/HgR4/j7DANzM0taMo9Co9h6QDqkPXRO3jp2fexQynNDFPy5fjLvVdhRpwfNLIu+7/YM2wc4qvNMLTuwKo//xbvZHQeGnHzrsKt1y/HxEj3zpXte17CuY9+gfrmExmw2eiJmNQLce9zqRit69z1+IMGbP/kD/iD9nK8ddV8+Ac0oUzyav+T9+NzClCAAhSgAAUoQAEK9CzAxLVnH26lwCkFGjK+QsmkkZiUEAIPdQPg4Q+dq+xqQWNtMXZ+X4j0JVOhQxvyNryF5598Ht/knCjq3F/9CuFXXYFfFxejEYDX9c/h5fjtOIT5CCvagveeuxbPfxmGyXPmYLgmD0VNwKhLroW+fhKuu3sZQrAH60rnY4K/dJowotlSjDLMwHjVVnz70bvY334JZlz/CH45IRQw7MU3RyMR5u6OY10savDN4ShcMScGxsx38Hh+DMYnX4dnbp4Ibwmxcg/2NAUAGuWETgTdWIjRK57AFWleUCs5uhk1pcXIywHCvE7s1vHIsHMVsuKW4+HUCQjw0EIbdx5Cv16D2lHz4dexE39TgAIUoAAFKEABClCgFwJMXHuBxF0o0F2gAVn5kdAcfRhXP34I+aUWtDa1w/WpX0MNN4RELsZdT58PbQ4wbbgrIsdfgQdeXYzfS0/i/DW4br0Fs+cswoyLktH8sgGX/yId7oEhCHaxwAJAG5qOK377T/hOPIh69ySM0lSj1TMAqVNisaeiDpFxI9B6oBbnnxMFvZsKxsY2ZK/eBf/F81G+vwjZwTdhnEs7LG2RGDkyCqhpwIEGL7hrNVChBl/f8yfULH8IXppsrMpIwC/P9kfWRitGpIyEXhLSEgMqCizQqH96J8F7916Ct9pOtLha9LGYeu1jOF9pxu2iVLcT39eMw+T0FAwP8zyW6LrokBxRjkemvYVfblyO5C678yEFKEABClCAAhSgAAV6EmDi2pMOt1HgJwJWWHIPwTRiBGbP+QoX/doCi7Uan7ywHpNuvgChGjVgtULr7gGtkvepoHVvQtbzj+PhP7+NbSor2i3Axsd+C7XKCrPJiiefkR09EBb7CD7cfS1SVBq4+qfivMUjYW2qQFlDAFwM2bjz/X0IK3LHVciCMXAaQl3doIIFVtcDaHB1x9szL0H5w29g1dJA7H7paTx810u4UKsCrGaMufHvGDlmBAArxtzyW3z/YDISvr8bnxy8ET7lubCajWhra0ObJK5t7TCbT85EBUKFm97Yilsm6o63uJpQWZSL/TvruihZYa7ZjVdvuw/PfLIFFWoVrGYLVBo1lEZaNy08L1sB+Pnh85HT8Zun38Utk3y7vJ4PKUABClCAAhSgAAUo8FMBJq4/NeEaCvQgUIIfcq0ID3GDp7ERdU3SjNqAltYWNBgM8DA3oWTbm8hOfAiXj+roamuFJfEc/H7VzZh2zgicuGv0p4dRGeuR9fk/cNt1T2GbUQ231CmYnmBCdch43HzB+bBaitGOZLjsXYwXK1fh5vkxcNOORuo4PcwP3IaomcFobG2DdfQC3PTWJXh1SjhQtwtf54TBUzmcH/Q6C3wjr8erGy5BZE0DTG1F2PnB5bj8RivcdFplAKZZKx7AA3dM7xag2RyNAO8WGBpwvMuxCY1NLUoi3rljQzY+XJ2HmBtfxt63ouFmKcdnb+zEqEvPQpSPG5o2PY13vH6Pm559HM/Ii1RKOtv5cj6gAAUoQAEKUIACFKDAqQSYuJ5KhesocFqBCJw1JwLIX4sbfvUU1u/OA2BGQ00zPN5/Gl66AJz/wCpc1rgDjZB7XOW2VwsQ6AtvNz94nClRc9Ej+cJb8FzoBOzP0GHBL2LRuH8d1jYmICUxHhV5NZB0OH75auT88h1kzL0VaTWb8OoFN+NdOdbfP8CCG27EBS0b8fYfV+IOTy1gbkHcZY9j0qRUAAZseO4S3POfcrR+8B8ERFyMx1bdhitvewvR8W4464EENBYUojEoBQndbkRtw9Hc1fjHg6/haaVZVg5mhdk7EuMuvx9zOrx8knHZihOdgNsKMlAbkwx/V3ellba65Ci0KSrmqx1e/E0BClDAUQRaa1Bi1CHc59hXQ6u5Da0tjTC7BsC74zrsqWI1mWHSatDxhdJqscBsMkLl6nZsMMBTvYbrKOBoAlYzWpub0NTuAj8/j+MX6I8HaW5GZY0JPnovuLtIj7RWNDS4wMfnVL3TTn1i5sZyVFj8ECYDolgtaGuuQ7nJA6EaM5obAK8wb2WwTnm1paURLWpXuLu6QnP8+r7JUIJckz8S/Htq/jj1sQfT2o5/ZwbTOfFcKND/AjFz8NLKjnStCh8/+z0m37oUYdI/WJJTaxTMJhOg1cJSVw9oLNAG9qFLbHsTqnILsH2fBZ4V1WhGMEwWq9LdtqlyP3aVucEUGgRvuavWMxlL3njjRPIoowofiMCsO5/EbWNDAMN+fJdtQvaOrXBPj0P0OU/hxflGyMQ2arUa3sWHUGzRYMwfz0a0byvysr7Gjq1bYZx3PcbH6+GmBkx1u3Gg5X58umE2Irw6vsGYUFlwBLs3l5/S22QoRsbWZqTO84O7h3ShtsBsTERM2Cl350oKUIACFLCnQOY/8UjJVXjpvEAlCrOhCAd3rUFJxPVYGGOAoc0CrVcAvF3MMJQcwlGTHxLDguFZegjfqcMxL0SF8v0t8BzuivqcTFiTpyNmEHzHtlgsUKnkgit7CNnzz7Pfji1JZFMNysprUZG/G1sKErHi6jHoNuZk3Q688motLlg+BykRPlBZj+LHrxoRNj4OCfpW5GcXwvCTAP0RlRiNsAAP5QJOzfdP4S/WW/HM4miojY3I3fou7q+ZhUd1JdjylQvmPzMPHV+Pmo/swJYaHRLGjESUzg1qNCHz/cdxh89N+OayJJjN7WhutkCn8/jJUQf7Ciaug72GeX62FTA1oPBANnKKq3BiFlYXtHuZcWDN19hz/INNpXKBX1AMEpNC0VRYjXaNF2LC+vAJbijGvs9X4uN9emhbWhC28FpMnCItpkBpxhtY9XUUrnj0HqRogKbS7Xj3jy+iy2w2nef82eedD7Hxa+C8G66G4f3/YEO9ASaLBdaGBiQtuRwT5i/HlUpe7Y7YGVfDWPcJso/sQ2X0WGj27sWR3FzEXbEYIZ5uUKmsMLVW4NC67djb0IgGxKJrp+KWqixkHsxDbWk2DMOXYK6PF2oy1yGjsBX19eEYF3AiJj6iAAUoQAHHERgeooexPh+7Nx1ANawwGmPQnvkdvs0uRJ1bKJLGzMWoMBMKNq3Ci4ZJuHvJfAyr+hb37ZyFaRfV44O7irDovUloKtyCEr9piIl1zmTPbDajubkZ1dXVaGlpQXh4OHQ6HZNXx/lTtVkkVlMzcje+gftfr8a02TrUtqmx/st6hMQmIj7EjOpWFwRYLYgaMwLBXh0tsUlI9XsSD33RjLsmlOKff3wHmTJEiKEKhpZ2eASEw1s7Hpf/bgUunOCKfXsOomBnMzyjd+GbjFbEtu3D7j05iPGMwPrafBT6+CJmx34gPhLmosPIKarCrg8/x85JqRgRnYykYU3YVjEFd0Xm4auv8mEyucDFMwCTZo6Bn8ypOIQWJq5DqLJ5qjYQMNbi8KZv8fH6fajuLC4N1/x+CvY9+zq2m8zKWm+fQEyZfzn8w93RpHaDe1gyonp9YcwFuqRZWP78AoyaEw/36mpUumjh4euKwpgw+CX/HQuv9obmeJLsk3AeHv18cWc0PT6Qq8YXXIo7rVZYTSZUZWSgNDEJo3x9urzMHVGjJ8PD1Q2+bgbsW/sl9o5YisuDveGiDDhlhbG5CNvfWYWvA2Mw9vKZ3a5MNpbswHeff4mmkTfi+sRI6N1asGPrR3jv+3pM/tXfEd/lSHxIAQpQgAJ2Fqg/is++342G/bux2/I+Vv2Yh+3rdyOvqQ0uwy7G2ck78GlBCM67ZiGiPVoA6JF63v14wUULrYw+nwtcNioRcN8N1wuSEAt35LiGo9vHip1PsTeHt1qtaG9vR319PcrKypCVlYX169fD1dUVy5cvR2pqKjSa3ncN7c0xuY+9BawwGatRlN8EF3UO1n5WC4M5A4d/9EXi3Itxblod9hoCMWn4SRdgVGqETboMN0frMCJxNp784nLlRMp3foPdhRWInvsLpPi0oLlRC9fq7fjy03/jwPZtqPCtQpHhIixs/RD//q4ApS5lOKiqg8HgjgYvKy7VzULr5q/xysp1qNfp4PNDMfbUbUfigoW4eEUE3ll8O/YmjUZSyBRcfHUoKtvAxNXef0I8PgUcWsAjGnNuvAdn3SAdbU8s0oVo3luzTqxQxh06/g9dWFS39Wd+4omI4amIGH58z8BABB9/mDJt1Clf3tcuTEq3JxcXBE+Y0Fl214Ldo2MQeXzF1LsfwRRlTOGOPdTw8B+Hq1auxFX46f2qQaP+D3em/QJWSZKVl/hg/DV/w5vXcDCmDkH+pgAFKOAwAk3l2Ll9KyoO5SLPugX7h0/FTW/8GvrKHdjVlIxRqgSkGHWIlKuvbfXY9/X32LU3B9ppF+DccfHQO8yJ/O+BGI1GVFRUoKGhATt37sTmzZtx6NAh5OXlISkpCUuXLoUktlwGmYDVAmNVIUo9kzB9qhcqygtR1h6LUSl6uEf6Ak2tiAsLht67y+wJzblYs/IbHKjYg0O+1yM10e80g256wNMbgPdU/PHJqaj87B/4r2s0Wo8Uos59DuZf5wYXoxmmBj00mla0t6tRX6nCpGt+jVu9fLGtuAFqbz00fqHw0B5Es+UWnLfsIqRP1aO92B/B0SORIOUPsYUtrkOswnm6thE4VaJ4qnW2OZr9SznpWqMSUI/n25m0Ho/95Of2PyVGQAEKUIACIhA+BQ/+aQqw8xk80b4ccwpfxicvvwRXVz28g/fgqNYTroZWZO6MQMq4cLSUV6L06CaUBk/DrLTBkbhKC+sHH3yAzMxMpaU1NzcXjY2NyjgQsbGxqKmpURJbtrj231tGvAd+UUPb7guUPIxb7vr2xOGjJmLpL+9B2phjvehObJDxOFtRW1KC8rp6BETrYOm28VRPWnH0+5V4f/VXKBt5Nrwri1Ce+RVWNyViet232Fs9DsOGWVDelIJfPzQK4+T6iLkJtVV5yN5ggP+82bCs/Q5FTY0o3bAVIbokNB/YB/2UpUjwO9W3s1PFMHjWMXEdPHXJM6EABShAAQpQgAI/Q0AF6Q3bXn8I2U1pmBWmhUndjKKSGgT6xSMkOgnhY6di0SQ93qkNh0tFGTKrzdBFyEzfzrdIK6rczyqJ6ttvv42SkhLlntaO1lUZmEm2vfbaa/j000+VRNb5ztI5Ij5w4AASEhIGNliVCprwKKQGj8L1902DX3MJKoxRiPLUIipeD31gO36STvsk49IHH8Li3I/wz0wdtM3NKCktgV98Rze5k06hIgeH69phUWvhn34RHpjuj8LP2lD/YwQmh03EDDSj9Eg7guIW4eJFaQhAGTJ8p2HZtUtQsGU3WrzM2OAyA3HRatS665A+/z4kRX2K4m6jR510zEH8lInrIK5cnpodBMytKD3wPd44Eo3bL0w5PndqRxzV2PPPVSgKmY7Js9MR0Ot7Xjte/9PfVqsBjQYdfHwBs8mMttY2eHofm7H1p3sDKFqPu/YH46HhDTgQOAHjTu7j1VaB3bty0eoehXHpLqit8ICPjzc8lVgLsWuXD9LT9d2mszEZTTC2G+HhpUHxzk9xsEGPxHHzENn1ttlTBsOVFKAABSjgGAKFWPP85/jYcABFMe6YufhcxFgn4IrJPmhqPYwfgowI0EYiOcz/RLh5W/DwAU+Mb/TG2AnKAAgntjnRI+k9JIMvnXPOOZDkaevWrcqgTJK8yjYvLy8MGzYM0vIqI/Fz6R8BGQjLPosaOv8RuOTGJYip3o3slkmY4FeGuvZ2+Og9EKfxhp+mS1fhziCtaK0/iE0ffIPmUTdiXuf6kx64+mPk3BVIU1uxMcZX+Zty9/RFed5BHFSGIm5DTbsf9EHucJOXNldBExgAD50eamjhPWwclk6phGrKDYjZ+iSyMx9FufUSzGgsQ3Ng2EnfM0869iB8ysR1EFYqT8mOAmYTWisPIrclAVoYUZG1Fh++8Tq+l+lekYgpE1MwNtULLjABnbPe9SbeFhz8/G94dfU25Hf591OlGo1J09Jx0U0z0LzuXbywtgorfvsAJoSepkxLJZozgbrRvsh6+WrsnvtXXDdemW322AtMBuSXl6JdF4KJaMX+l5/HhzsOolqZAacOxWG/wn9Hn4+AjonFYEJt3nps37oHEQtugLoaMFpc4NYxY85pwuBqClCAAhRwEIH6DLx+bwb8FtyIO9xUMosbQnVqHGzwhJvOF266GER456D1xFD6SuBrq8xIUhfALW0uRsjcr20Ocj59CEMSU0lGJSm99tprlRbXHTt2YM+ePdiyZQuKi4sRFhaG888/H5MmTYJWcLj0i4AMjCUXDuy7NCD/h5Uoqm1C3JVXYVhoAFzUKmjqDnUPy2pFW0khVq88gLi7ZmNcQjhO+7VHH66MGVLZ5ZqH1s0DI6ctwLxoKbYJ+Xn1nYNcVhS2ITjYH/4BLahDEKZGhqFUq4ZJrUbShUvhpypCE+KAsqNoj2Xi2r1i+IwCFOizgIuLFW6t+djw1nq0xMYhIGYOli9MhAcCEJscj/AgD7hpuvwL1qsjuCB01AJcogvEvz9pxJRp8bDs/Qx7kxZjUZo3LIXb8HXxMFy1bBpiO6eLrcTOF1/Ba/9eh8Mdx2ivRmGZBrs/90Bt1lYY3qvCpqm34MF/LEJMxz5uLqjJfBvfavU44JqM+RdPgD7cGzjyKZ5sjYRHl/5gprpqVBdWoNlLhf8+di4+W98Ii9oF3jrPY5N3L/w1Xrn2bMT59WEqoI44+JsCFKAABfpfwCMK06/0Q9D4SPi7agBzM4o2v4Hn7lyCt/1lrg0jDBETcOWK32BmRzRRYzGt/n7kBl2GiWPi4KVRw+KWgvMuUEOFho69nOa33LsaFBSEmJgYjBw5Evn5+Zg8ebJyv6uHhwcCAwMhv3mPa/9Vqb0uCqjdPBE+5Vz4eQBV1e4ISJyE8cM84TssEO4uldj8xAt49fOv4X/137BQe3xUaZUa3klL8OgfjEgZPwLu1Tux8rm78PLOGMy97BpM6NrxrT4Dr975DD7aGoVbvwKsVgsq8vfjhw/WIEcZXMmIRrdYzLlkGlC5F4fqLGgufgsv/9mM1Muvgs7PA7pZwfjjkguwq10aPQCzux4xcy/HQymAvkvbQ//VjuOUzEtHjlMXjMTJBYxFn+OOC/6AdY0tcBl2GeY+fC48yhsRHj8BY+eOR8fgb/KBGBAYAG+vjjW9OXEtfKNGYVKUCw4crsPMmWNgxkFYxiUjqHQlVqwOwhMrxiHAWIrSKiBIGcjYFebAZCy4Ng1XJUYcvxp4GP96PA+zbz8LIW7y9tfC3SsC/tWH8fGbf8KjK3ehrrEV6edcgetmJMEvTIsxU4ej4qt78NCbUbjqg+FwVx/PXFtrUXDwB6xTT8EV87wxOW0CEpIPo91Vh/jUmGNdXgKjEeZz2uuQvTlx7kMBClCAAv0p4BqAEVO7TLCtdkfw6Ivx8KtTTqSgXn4Ijwg5EYVnLJZd8wBqXSIQ4eui3N+q0fgiMhKwmtwRN3Uhoj27XOU88UqHfNTR8uru7g43Nzfo9XoMHz4clZWVysBM0urKbsIOWXVb3InoAAAgAElEQVQ/OyiVRguPoAh4WE3wSpyB4OFe0Ht1THvkj5RLr8Hv5i6Fd/QI+Hf5m3YJiMOMqccOb/ZPwJwr/4KkJToEh0fAr+PlstkrHufcdicmNOsRF+gOtQaIWfQg3h1ZfyJ2Nx8EhkXC08eCUakqWOKDEDPCCv+YCHi5aqAeuRA3PToCNZbjQ0FpXeEVFIHQrgnyidIG9SMmroO6enlyAymgDZmJ21/7E4IeuRpbR/jiSLE7LvTfjb/+6RFc/Su3zoErFi5YiKSL78blU7wR2Nv7XA178cadf8TLa7Yit8GCR/7oCmuLAa3eryDm9lfx0bUJaM3fhL+u0eDcZYGA0n7ahIZ2DwRGjUD6uDi05hyGMWIyxgdVIjB9DEa2bcXr5z6E4De+Q4peh7nX/BmjFx7CN9uOwl2lgbW9GeWrV+Ka+7chx1COCoM79s6phG7jKzgvwoLqvHX4x9Jf4U144Sl3aUG2or21HVaVGq5ux77IKP4z7sQnz16FkX4enQYDWS88FgUoQAEK9EFA/g33CUXiuNPdcyJlaaALT8KpGntUWhe467rcC9uHQzvCrpLEytyt8qPT6ZT7W6WlVdZzGcQCKi3cPHTHLrp3nqYrfGOHwze2c8UpH2jcdAiLG4ewU23V+iAiORURXbZ5Bg3HuKAuK7o81Mm1fi8v6OWrXMfiosew9HQM63g+hH8zcR3Clc9Tt62ASuuJEJ96BI6/C4kxMzHPcy92q8bi/Jvfxp2zx6Bm3XvI1EZg/LR5iPL1hNLg2dsQfFJwxVOvY2np93h3ZygWThkGy/pXsDH9BiyJ0aJs81u4eWsy3v3dbAS7dVzqs8CS8T7uuelTZLqoAfNE/OE/L+KC2cDuSitCd7wL6+Mf4/zhgErjClPVDrz75+V48jMLMPNqPJ22DPEX34QXLr0ODdNSENe0AW9uSce8EElSNfBLWIyH92Xj3jOdQ10LjGx1PZMSt1OAAhSggIMJSMLK7sEOVikMZ0gL9PVGuyGNxZOnQE8CFmMbMjJUmDzDHe4hsUhfsAjJfu0we8cjyt8feh8v+Pjo4OHlDQ8XNdQwofCDf+G7hpaeij22TaWFu7cOuvYm+MRFwC8kCHpvT3h4GPDRbydgRdFZWHPPNLRn7MCXr32FfJkHTCZLn38jXlh/ENVVh/D+c7/G+SP1iJ05DJ/f/394aM25uGy6L1xVZljq81FpUGHSvdvx9vur8M+778T148OgcfOA9wQ9cr/Nw64PKzDvkmi4a49ddVZrXOHl74LqzW/j1phYxMfHd/uJjboIf1tfDnVUBEK0Gra2nrmWuQcFKEABClCAAhSgwGkEmLieBoarKdBXAcuBd5EVdx4Cj/cmMtdUw9JQDfeUzmGPuhdZsQZ//t3v8YsXtis5ZveNp3hmasa+TDekRGrgdXysI41bDK575SB+WBaMjK++wJf/2IqA82cioAGw1tVD4+UCeBhRXroH+fCFj0qFZlMiFumzkH5FOtpq69GQvxfZ5hiMmHA+FgxTKd2hVJD/ji2W1lBMC1uHx7xj4VZUhuqmrhNyu8EzYR6ufedr5NfWorbzJw+fPbgCM0Z4wVXG9uBCAQpQgAIUoAAFKECBnyHArsI/A48vpUBXAe2YX2JFeyOKtlphaqvDkSOVqGmOxsTIrnt1eeyiQ+TIq/DSZRO6zYvaZY8TD83NqMxcg6NxYzFNHwrJWw2efvBsyEPG7moUH9iCt9YOw1/evf3YPRCWNlTuNyMo0B/W0ldw3z2fInjB3cgpaMW+u79D1CvbMG7NfCzffi/u9WtB4P+NQXtTDcpzslBS1YTQjpEF6spw5IcvsCv6EqyelYll1/8C6Te/ggcuSoWvkpBaYWk1oCovB/syPDqHcwcakVPagLBjA+CdOA8+ogAFKEABClCAAhSgwP8gwMT1f0DjSyhwWgG1Bm6+oQiuLkLhgSKEXnRlZzLn5h+KAI0eyjhGUoD/NNz31bTTFtVtQ0sBfqiIxOiUQAQfH0XOdfyFGLvzWVzx/F7E3vAUPngz/sRL2ipQqtHCxTMcybMfxuuzH0be17fjD4/F4saV92BqiCfU132HtzasxO/fMeL3S02oK96M9//xDPYFXojrZ+qVwZYCSzZiU+g5uGpmCoJ0o/Dd+stR9cO/sM+QiunKIJRmqBoLkPnJm3jxkxOHP/ZoHm6zuB2bFufkTXxOAQpQgAIUoAAFKECBPggwce0DFnelwBkFtB4IGnUJfjfqp3uGjl+InsZo/OkruqzxTsLF87s8B6AP0EN/9sNYd3b39cozjyiMGtl9feyCZ/Hugi7rNG6ImLUCq2YdX+e7GL9/eXGXHcIw4/6nMKPLGnkYOGsZpneu80Tk1Mvw8LrLOtfwAQUoQAEKUIACFKAABWwtwHtcbS3K8ihAAQpQgAIUoAAFKEABClDApgJMXG3KycIoQAEKUIACFKAABShAAQpQwNYCTFxtLcryKEABClCAAhSgAAUoQAEKUMCmAkxcbcrJwihAAQpQgAIUoAAFKEABClDA1gJMXG0tyvIoQAEKUIACFKAABShAAQpQwKYCTFxtysnCKEABClCAAhSgAAUoQAEKUMDWAkxcbS3K8ihAAQpQgAIUoAAFKEABClDApgJMXG3KycIoQAEKUIACFKAABShAAQpQwNYCTFxtLcryKEABClCAAhSgAAUoQAEKUMCmAkxcbcrJwihAAQpQgAIUoAAFKEABClDA1gJMXG0tyvIoQAEKUIACFKAABShAAQpQwKYCTFxtysnCKEABClCAAhSgAAUoQAEKUMDWAkxcbS3K8ihAAQpQgAIUoAAFKEABClDApgJMXG3KycIoQAEKUIACFKAABShAAQpQwNYCTFxtLcryKEABClCAAhSgAAUoQAEKUMCmAkxcbcrJwihAAQpQgAIUoAAFKEABClDA1gJaWxfI8ijgTAIqlQptbW34+OOPsWPHDshzLo4nYLFYsGfPHqjVvNbmeLXDiChAgVMJyL9bH374IUJCQk61mescQMBoNGLnzp38bHGAupAQcnJy8NprrzlINAzjZIHS0lIUFxfb9bsyE9eTa4XPh5SAXq/HnDlzUF1djezsbLu+GW0F39LSgqysLLi6uiIlJWVQfCBbrVa4uLhgwYIFg+J8bFXXLIcCFHBMAZ1OhyVLliifLbW1tY4ZZB+jks+WXbt2ISAgAAkJCdBoNH0swfF2l88WLy8vjBkzRvnMdLwIh05E8n3l8OHDynexoXPWznWmZrMZqampiI2NtVvgKp1OZz3T0evr68+0C7dTwCkF5GprVVUV2tvbnTL+UwVdWVmJN998E/LF6frrrx8UXy46ztPDwwNBQUGD4gJDxznxNwUoMPgE5LOlvLwc8kVvsCzy2fLEE08gLS0Ny5Ytg5ub22A5NXh6eioJOXv12K9KDQYDBstFHvsp9v+RpRFBGn3kPWOPhS2u9lDnMR1GQN6AYWFhDhOPLQKRLxO+vr7KPywxMTGDKnG1hQ/LoAAFKNDfAvLZEhkZ2d+HGdDy3d3d4e3tDX9/f0RHR0Oec6GArQTkYrv8cKFATwK8YawnHW6jAAUoQAEKUIACFKAABShAAbsLMHG1exUwAApQgAIUoAAFKEABClCAAhToSYCJa0863EYBClCAAhSgAAUoQAEKUIACdhdg4mr3KmAAFKAABShAAQpQgAIUoAAFKNCTABPXnnS4jQIUoAAFKEABClCAAhSgAAXsLsDE1e5VwAAoQAEKUIACFKAABShAAQpQoCcBJq496XAbBShAAQpQgAIUoAAFKEABCthdgImr3auAAVCAAhSgAAUoQAEKUIACFKBATwJMXHvS4TYKUIACFKAABShAAQpQgAIUsLsAE1e7VwEDoAAFKEABClCAAhSgAAUoQIGeBJi49qTDbRSgAAUoQAEKUIACFKAABShgdwEmrnavAgZAAQpQgAIUoAAFKEABClCAAj0JMHHtSYfbKEABClCAAhSgAAUoQAEKUMDuAkxc7V4FDIACFKAABShAAQpQgAIUoAAFehJg4tqTDrdRgAIUoAAFKEABClCAAhSggN0FmLjavQoYAAUoQAEKUIACFKAABShAAQr0JMDEtScdbqMABShAAQpQgAIUoAAFKEABuwswcbV7FTAAClCAAhSgAAUoQAEKUIACFOhJgIlrTzrcRgEKUIACFKAABShAAQpQgAJ2F2DiavcqYAAUoAAFKEABClCAAhSgAAUo0JMAE9eedLiNAhSgAAUoQAEKUIACFKAABewuwMTV7lXAAChAAQpQgAIUoAAFKEABClCgJwEmrj3pcBsFKEABClCAAhSgAAUoQAEK2F2Aiavdq4ABUIACFKAABShAAQpQgAIUoEBPAkxce9LhNgpQgAIUoAAFKEABClCAAhSwuwATV7tXAQOgAAUoQAEKUIACFKAABShAgZ4EmLj2pMNtFKAABShAAQpQgAIUoAAFKGB3ASaudq8CBkABClCAAhSgAAUoQAEKUIACPQloe9rIbRSggHMImM3mzkDlscViUX461qtUKqjVvE7VicQHFKAABShAAQpQgAJOJcDE1amqi8FS4KcCRqMRe/bsQXNzs7KxtrYWxcXFqK+vx6ZNm5SENTQ0FDExMXBzc/tpAVxDAQpQgAIUoAAFKEABBxdg4urgFcTwKHAmAWlVPXDgAL788kuUl5dDEtnCwkJotVpkZ2cjLS0NS5cuRWRk5JmK4nYKUIACFKAABShAAQo4pAATV4esFgZFgd4LSIIaFRWFgoIC7Ny5s7ObsJRQVFSE2NhY+Pn5wcXFpfeFck8KUIACFKAABShAAQo4kABvenOgymAoFPhfBCRxTUlJwdSpUxEUFKS0uEorrPwMGzYMkyZNUlpbZT8uFKAABShAAQpQgAIUcEYBJq7OWGuMmQInCfj7++PCCy9Eenq60rIqgzG5u7tj9uzZOOuss6DT6SDruFCAAhSgAAUoQAEKUMAZBZi4OmOtMWYKnCQg3YATExOV1lXpNiytq8nJyZg5c6bSjZjdhE8C41MKUIACFKAABShAAacSYOLqVNXFYClwegG5j3Xx4sWYNWsWZBThiy++GIsWLVJaXk//Km6hAAUoQAEKUIACFKCA4wvwpjfHryNG2I8Cra2tyM/PR0tLSz8eZWCKtlqtkKlwgoODkZqaqiSsR44cgUajGZgA+vko0tXZ29sbcXFx7Pbcz9YsngIUoAAFKEABCjiaABNXR6sRxjOgAjIS73333acMaOTh4eH0CZEMyNTY2AhJyNetW4dt27Y5/TnJH4Qk5XJeISEheOmllzhC8oC+S3gwClCAAhSgAAUoYH8BJq72rwNGYEeB9vZ2pZVy+fLlyj2idgyFh+5BwGKxYMOGDVizZo2SxPawKzdRgAIUoIANBORCqMFgQFNTE0wmEyorK5ULiDU1NUpPJbnY6+PjA19fX6jVvPPMBuQsggIUOIMAE9czAHHz4BeQgYvS0tIwZsyYQdE6ORhrTL5AlZaW4ptvvhmMp8dzogAFKOBwAm1tbcjMzMSWLVtQVVWlJLDZ2dmoq6tDfX290gNm8uTJyqCArq6uDhc/A6IABQafABPXwVenPCMKUIACFKAABSjwswSkFbW5uRk//vgjMjIylFtqJGEtLCxEVlaWMmq9TMHGhQIUoMBACTBxHShpHocCFKAABShAAQo4iYC0okZGRiIoKEhJYKXVVRZJZmWRqdfi4+OV6deUFfwfBShAgX4W4E0J/QzM4ilAAQpQgAIUoICzCUiLqySnMq1aQkJCt/Cli/Ds2bOVqdd4f2s3Gj6hAAX6UYCJaz/ismgKUIACFKAABSjgrAIyBdnYsWOVJFVaX2VassDAQGW+8FGjRsHNzc1ZT41xU4ACTijAxNUJK40hU4ACFKAABShAgf4WkERV5gaX1tWkpCSlW/CMGTMwffp0+Pv7czTh/q4Alk8BCnQT4D2u3Tj4hAIUoAAFKEABClCgQ0CmvZGkddasWZAp5BYsWIDk5GRwJOEOIf6mAAUGSoCJ60BJ8zgUoAAFKEABClDgDAIy/VdDQ4Myb6o8lh+ZR1XmTNVoNHaZy7qlpQWpqalKsipdhmVKHInRHovRaFSOL/PHiounpyf8/Pzg5eXFgaLsUSE8JgUGUICJ6wBi81AUoAAFKEABClDgZAFpyZSpZgwGg7JJEsXc3FxlChp5LHOqRkREKImj1Wo9+eUD8lzud5Xpb2Qwpvz8/AE55skHkXOXUY2PHj2KmJgYxSUgIEAZJEoSV1kkTklkJcmXrs5cKECBwSPAxHXw1CXPhAIUoAAFKEABJxKQ1kNpuSwvL8ehQ4dw8OBB5Z7SadOmKV1y2R33zJUpiX1eXh62bdumOEZHRyMtLU1JXqWV2sXF5cyFcA8KUMApBJi4OkU1MUgKUIACFKAABQaLQEfLYUFBAXbv3q20tE6dOhVnn322kmixtbD3Nd1xD25iYqLSQr1//37897//RVhYGMaNG4fw8HC4u7tzIKnek3JPCjisABNXh60aBkYBClCAAhSgwGASkIRVugXX1tYqCWtNTY3SOijJlbQOSgsru7f2vcbFTJJ96cYs9+JKN+LCwkLs3bsXxcXFkKQ2KCiI98D2nZavoIBDCTBxdajqYDAUoAAFKEABCgxGAUlam5qaUFRUpNwjKl1YJ0+erLQMSqshE9afX+tiKK2rMr+smOp0OpSUlCgXCYYPH64ktLw48POdWQIF7CXAxNVe8jwuBShAAQpQgAJDQkCSVrmXVQZcqq6uVpJVmR81MDCQrYD98BcgCawM0iT3u8pvuViwZcsWpbU7Pj5eSWr74bAskgIU6GcBJq79DMziKUABClCAAhQY2gLS0ioj4ZaVlSkj4ErrH1tZ+/9vQlpX5QKBTJkjdSD3E0tSK/7SKsuFAhRwLgEmrs5VX4yWAhSgAAUoQAEnEpC5RiVplZGDJYmSpEkSKS4DIyD3vcr9w5MmTVLmwM3MzFSS1ri4OA7YNDBVwKNQwGYCapuVxIIoQAEKUIACFKAABboJyLyjMu+pJKsySJB0XeUysAId975OmTIFvr6+yoBNMjAWFwpQwLkEmLg6V30xWgpQgAIUoAAFnEhA5heVpFXurWTSat+Kk+7BY8eOhSStOTk5SgusfSPi0SlAgb4IMHHtixb3pQAFKEABClCAAr0QkAGZpHuwwWBAVFSU0k24Fy/jLv0sEBAQgJCQEGVKIhksiwsFKOA8AkxcnaeuGCkFKEABClCAAk4iYDabsXnzZmVk29DQUI4e7CD1Jve8JiUlQeonOzubra4OUi8MgwK9EWDi2hsl7kMBClCAAhSgAAV6KSCtrTIo05EjR+Dv788uwr10G6jdZH5XvV6vJK2NjY0DdVgehwIU+JkCTFx/JiBfTgF7CVSvuRfj7/oM1dYeIijZiHs/+gbf5tZ32SkTr098Ffu6rOFDClCAAhSwnYC05tXW1irztXp5eTnX6LXGRpTsWIXnNnf93OjZxrz3DUx5dSca963Dhuqe93WErRqNRhndOSgoCHl5eY4QEmOgAAV6IcDEtRdI3IUC9hfIx5c3XoqpISHKvTlyf07SJc9h119/gaTQE+tCRs/Dda9vR0NHMmtsxtjQQITrfFD344f4OqcSzeY21C7ygn9BI3auvBVzHl2HOvufICOgAAUo4BQC0pra2tqq3LsqIwbL85MX2b5nzx7IKLbS4ur4y35k7DFBORWtF3QRMzAm50vkdAbegqaGJjQ3da7o9kCl98SiehMq/Vyx/9G5eHpDLX6q0u0ldn0iowxLvUjdySBNXChAAecQ4DyuzlFPjHLIC0Rjwd9WYd5fzbBYraj44i584PtbLB/jC22Xy08qoxmABoAFxvZ2GFtaAVMtNj7/HhKWjUTTPz/BntuHw+wVC1/9XnzWcA2+vnsMXIa8LwEoQAEK9E5AktKMjAzlJzIyElOnTlXmCXVxcYEkRLI0NDTgiy++wOjRoyHrHX2x7NmEiy9YgOr6ZiXU4NhYXPerW7BSr8O/zGaoNK5QJ5+Hex++H7eercEXy27GQ19vReGx0wVgQlsL8MyjGljNZljfmIcflz6E515fjNjjJo5oIBce6up46dYR64YxUeBUAkxcT6XCdRRwOAEV1Fot1GhA2dFD+KLqF5iSdy7GX1MHk8kMU5sRZld3pEyah3uffRNnYy+ef/JRPPbaF2gzpuGGv92G4Y2+GHHJLPg2l8Fd24Ydb+xD6qWXorapHYE6d3TJfx3u7BkQBShAAUcSaGpqwtq1a7FhwwZlbtbzzjsPc+fORWxsrJLEuru7Y9y4cfDw8HCksE8bS5Z2GrIPZKKirulYq+vxPZtSvbEgaxP8Zz+LObFyUVSWWvhdcDv+9Zd0JMQGQ200wqLeg7/98igue+0SBBlb0FzfDK1fIDw6E9vjL3WgX3KRwcfHB4GBgUrLa8dFBwcKkaFQgAInCTBxPQmETynguAJmNFVW48cXd2DEbcswIWI/8m63wtR8FJlfHkHzWWdjSmePtNG47fGXMTPtIfx40B2eISkwZd+HD7I98fm3Y/DCC67Ya05HzTnn4IGLn8V//jALvo574sogJ+3t7ZCf0tJSuLq6OnC0DI0CFBjMAtLiWlVVpdzD2jHdTUFBAVavXo2JEydi0aJFkClXsrKysHDhQqegiA9zRc4Xf0baZU/DZLZ0xjxs7Gxc/btHMPnQWuRoRiEkOBg+btWoOlSEBm9PtDdVwpBVgNBF6Yjz+REF7U0w7nwH7z21G+nPvoz5MY6buUqiKvPq+vr6Kp8t8rnC5LWz6vmAAg4pwMTVIauFQVHgZIFWVB88gm2frcHuOgNmNZdh25bDsJpMaGk+gDVb3HB+yAZsAODlF4zY+Hi41RbA6jEcrpPHwffIDphG3oC5I9ww/1wTzCZgpNWI5gd+AR+vVIdOWkVCBjmRL4YyiMYTTzzhXAOdnFyVfE4BCji1gIwWLBfQZMRgWVpaWpCfn4+SkhLl5+jRo5AuxM40KFPh9w/i9pcLMWnSZBhKj8IcFA8fawsaDdX48sV7sQZAzKzLcPMvr8XUaADFP+C1z19DrbsV1SXJeHTcLEw6W4vPftyHhpJapD37MuY5cNIq9SZJqqenp9IqLnXIC6JO/bZk8ENEgInrEKlonqaTCzSXIuPfW2CZch7O9fkR6rrdeP75T9HU2AKTqQ4lxRpkZeuUkxw27ixcvWI5XEraofb0RrC/F1KnXoPwwpW4+/n/oqDy+OgaVgs0riqMvWG5w+PIFwq5Mi4/aWlpnA/R4WuMAVJg8AoYjUYl2elIXCUBkq7BkgRJS2t0dLTSZbiiouKUAzc5okzC0lX4cilgbm/A93/7CzxWPIQEQw52byrHpMuO9ciRlmalRdLYDiy6FS88mIKYyFq8//weTA93gYcqChn3PYbiKQ/ijkgTjK3tMGm84OnAt/jKRQipTy4UoIBzCDBxdY56YpRDXaDJGyN/fSl03j44kvsjGoctwjvv/R9cYEFDw1a8t9IT198wGp1jYNSXokgTCo1fHQ6WGWE0m+Ez+kr8/Y0rT0ha2lB79Av851ijwYn1DvhIunKFhoYiPDwcK1as4JVxB6wjhkSBoSIgrXNyb6uMRivJq1xQGzlypHJP66hRozBhwgRl3Xvvved0vUOaC39ASegSXKgHWg3da1S6R8s0MoHtBugi/NFS9QNWb8lAnve58EEtsn8wYuq4MLTHFWPzfj+kuTeiJXIU4hw0cZURhaUu5UcuOrCbcPf65jMKOKIAE1dHrBXGRIGTBYKCEHryOumtte1FfLC1DG1+y4GutxL5hiFSblrNz0aVoRnN5Vn4z9qdKK7s8k3EaoKxuQjW9JmnKJmrKEABClDgdAJarRYRERFYsGCBMnLw+PHjMXbsWMi8oDKKcHV1tdJV2CmSoZYC/PDht8isb0JAsAuiZyyGDyywaIHmis14+YW9kCGm6upUSB6XhEhPX0QmBMCt+Evs3V2GsKS1ePXVCPgVGTHyN39E247n8NHaauRodZh1w6jTEdp9vSSuMqKwtIyzm7Ddq4MBUKBXAkxce8XEnSjgOALBY0ZD7+mpjAJsbKpCY6MPxi8I65a3dkbrG4cJiVqEu9Qhs7YGlZW1nZvkgat3JCbGO8eol90C5xMKUIACdhKQpDUmJgZLlixRRqWV1lYZnbZrkipJUVtbmzKwnDzuus1OYZ/+sJZ2NNZUo6qmAUGz78CsKNlVDW/fAMSOCMCujYVoVF4dBJVaC4RHIsTHF4ETf4MHJgIlW57Gm2uCsfTxsxAh+y24B4FBm/HdEW/4nhjn6fTHt9MWqRcZ8E9aXLlQgALOIaDS6XRnnCO6vr7eOc6GUVKgjwL79+/HHXfcgcceewxjxoxx7C8XfTy3wbS72WxWRux88cUXlbkReXV8MNUuz4UCziUgCY/FYoH8uyQJqSSyJyemMl3O1q1b4ebmprTISndiLo4lIHPtysjPMpfr7NmzHSs4RkMBCpxSgFM3npKFKylAAQpQgAIUoMBPBSRJlXs95QKadAs+OWmVV8hgTdISu3v3bvDi/08N7b1GLjwUFxdDBpyKj4+3dzg8PgUo0EsBJq69hOJuFKAABShAAQpQoDcCarUaer1eSWqlK6qMXsvFcQSktbysrAyNjY0ICQlxnMAYCQUo0KMAE9ceebiRAhSgAAUoQAEK9E1AWmGlNVYGbJI5X2UuaulizMUxBGRAJrm/1c/PjwMzOUaVMAoK9EqAiWuvmLgTBShAAQpQgAIU6L2AtLqmp6dDxlKQqXNksCYu9heQ1ta9e/cqUxWlpqbaPyBGQAEK9FqAiWuvqbgjBShAAQpQgAIU6L2A3Os6d+5cpcU1NzeXra69p+uXPaXVW+ajldZw6SLMQbP6hZmFUqDfBJi49hstC6YABShAAQpQYKgLREVFwWg0oqCgADU1NUOdw67nLwq+XVUAAAUVSURBVCMJv/fee0oMiYmJpxxYy64B8uAUoECPAkxce+ThRgpQgAIUoAAFKPC/C0ir6+TJk+Hl5YUjR45Akife7/q/e/4vr5RRhGWKom+//Rbjxo1TfmSqIi4UoIBzCTBxda76YrQUoAAFKEABCjiRgAzUFBgYiNjYWFRXV2PTpk1K8iojDTOB7d+KFF9xlsGYPvroI/j6+irTFMmIz1woQAHnE2Di6nx1xogpQAEKUIACFHAiAZn3NTg4GMOGDVMSqYyMDBQVFUGmypHWQC62F5BBmJqbm5Gfn4+tW7cq97PKYEySvJ5q7l3bR8ASKUABWwtobV0gy6MABShAAQpQgAIU6C7g6uqK4cOHw8PDA3l5eZDBmurq6iD3wPr4+ECr1Soj3XZ/FZ/1VUAuBMg9xXI/cXFxsWIs9tOnT4e/vz+T1r6Ccn8KOJAAE1cHqgyGQgEKUIACFKDA4BWQ5DQ6OlpJoGSKnPLycmXEYem6Kq2xksDKNDpsEezb34B0Ce74kTlz5aKAJK6SxEpLd1JSknKPcd9K5d4UoICjCTBxdbQaYTwUoAAFKEABCgxaAUlKJUEdPXq00l04KytLGXG4sbFRWS/3w0rLoLTMMoE985+BJKfSJbiyslJJVmUQJpnyRoyla7BMeyMXDLhQgALOL8B3svPXIc+AAhSgAAUoQAEnE5CW1cjISCWxkkTr8OHDKCsrU+6B7Zg2R5IymXNURiaWUXA9PT0h3V6HYkIrFu3t7ZAEX35Ld2D5kZZW8ZD14iZJv3QL1ul0ipU4c6EABQaHABPXwVGPPAsKUIACFKAABZxMQJIqSUilVVC6C8uAQq2trSgsLFRaDWVEXElUpfWwI3Edqi2xkriKjcFgQFtbm5K8ynMZ+Er85P5hSfAl0RcrWc+FAhQYXAJMXAdXffJsKEABClCAAhRwMgHpytrRnVVaVSU5lelzpDVRklv5kaRWWhqHcguiJKYBAQGdSamYSGurJKqyrcPQyaqf4VKAAr0UYOLaSyjuRgEKUIACFKAABfpbQJIvaWE9eZEWR0nUJJkdqoskqdKSOpST96Fa9zxvCogAE1f+HVCAAhSgAAUoQAEHF+hoeXXwMBkeBShAgX4T4B3r/UbLgilAAQpQgAIUoAAFKEABClDAFgJMXG2hyDIoQAEKUIACFKAABShAAQpQoN8EmLj2Gy0LpgAFKEABClCAAhSgAAUoQAFbCDBxtYUiy6AABShAAQpQgAIUoAAFKECBfhPg4Ez9RsuCnUVARmiUueBaWlqG5KTuzlBPHdNAOEOsjJECFKAABShAAQpQwPYCTFxtb8oSnUhAhtWXqQdWr16NzZs3M3F10LqTaSAOHTqkzNPnoCEyLApQgAIUoAAFKECBfhRg4tqPuCza8QX0ej1mzZqFgwcPory83PEDHsIRykWGOXPmcP6+Ifw3wFOnAAUoQAEKUGDoCqh0Ot0ZZ7Kur68fukI8cwpQgAIUoAAFKEABClCAAhSwqwAHZ7IrPw9OAQpQgAIUoAAFKEABClCAAmcSYOJ6JiFupwAFKEABClCAAhSgAAUoQAG7CjBxtSs/D04BClCAAhSgAAUoQAEKUIACZxJg4nomIW6nAAUoQAEKUIACFKAABShAAbsKMHG1Kz8PTgEKUIACFKAABShAAQpQgAJnEmDieiYhbqcABShAAQpQgAIUoAAFKEABuwowcbUrPw9OAQpQgAIUoAAFKEABClCAAmcS+H9XDpulZ1UB8gAAAABJRU5ErkJggg==;" vertex="1" parent="1">
          <mxGeometry x="610" y="-150" width="942" height="647" as="geometry"/>
        </mxCell>
        <mxCell id="H1NwQvP5Uodep2kadqOq-19" style="edgeStyle=orthogonalEdgeStyle;rounded=0;orthogonalLoop=1;jettySize=auto;html=1;entryX=0.5;entryY=0;entryDx=0;entryDy=0;" edge="1" parent="1" source="H1NwQvP5Uodep2kadqOq-2" target="H1NwQvP5Uodep2kadqOq-22">
          <mxGeometry relative="1" as="geometry">
            <mxPoint x="-430" y="40" as="targetPoint"/>
          </mxGeometry>
        </mxCell>
        <mxCell id="H1NwQvP5Uodep2kadqOq-2" value="报警发生" style="shape=parallelogram;perimeter=parallelogramPerimeter;whiteSpace=wrap;html=1;" vertex="1" parent="1">
          <mxGeometry x="-490" y="-120" width="120" height="60" as="geometry"/>
        </mxCell>
        <mxCell id="H1NwQvP5Uodep2kadqOq-6" value="操作人员调整操作或通知班组长协助处理" style="rounded=0;whiteSpace=wrap;html=1;" vertex="1" parent="1">
          <mxGeometry x="-300" y="-60" width="120" height="60" as="geometry"/>
        </mxCell>
        <mxCell id="H1NwQvP5Uodep2kadqOq-10" style="edgeStyle=orthogonalEdgeStyle;rounded=0;orthogonalLoop=1;jettySize=auto;html=1;" edge="1" parent="1" source="H1NwQvP5Uodep2kadqOq-2" target="H1NwQvP5Uodep2kadqOq-6">
          <mxGeometry relative="1" as="geometry">
            <Array as="points">
              <mxPoint x="-410" y="-30"/>
            </Array>
          </mxGeometry>
        </mxCell>
        <mxCell id="H1NwQvP5Uodep2kadqOq-8" value="记录重要调整过程" style="rounded=0;whiteSpace=wrap;html=1;" vertex="1" parent="1">
          <mxGeometry x="-150" y="-60" width="120" height="60" as="geometry"/>
        </mxCell>
        <mxCell id="H1NwQvP5Uodep2kadqOq-11" style="edgeStyle=orthogonalEdgeStyle;rounded=0;orthogonalLoop=1;jettySize=auto;html=1;entryX=0;entryY=0.5;entryDx=0;entryDy=0;" edge="1" parent="1" source="H1NwQvP5Uodep2kadqOq-6" target="H1NwQvP5Uodep2kadqOq-8">
          <mxGeometry relative="1" as="geometry"/>
        </mxCell>
        <mxCell id="H1NwQvP5Uodep2kadqOq-12" value="完成" style="rounded=1;whiteSpace=wrap;html=1;" vertex="1" parent="1">
          <mxGeometry x="10" y="-60" width="120" height="60" as="geometry"/>
        </mxCell>
        <mxCell id="H1NwQvP5Uodep2kadqOq-13" style="edgeStyle=orthogonalEdgeStyle;rounded=0;orthogonalLoop=1;jettySize=auto;html=1;" edge="1" parent="1" source="H1NwQvP5Uodep2kadqOq-8" target="H1NwQvP5Uodep2kadqOq-12">
          <mxGeometry relative="1" as="geometry"/>
        </mxCell>
        <mxCell id="H1NwQvP5Uodep2kadqOq-14" value="提示性报警" style="text;html=1;strokeColor=none;fillColor=none;align=center;verticalAlign=middle;whiteSpace=wrap;rounded=0;" vertex="1" parent="1">
          <mxGeometry x="-390" y="-50" width="80" height="20" as="geometry"/>
        </mxCell>
        <mxCell id="H1NwQvP5Uodep2kadqOq-21" value="重要报警" style="text;html=1;strokeColor=none;fillColor=none;align=center;verticalAlign=middle;whiteSpace=wrap;rounded=0;rotation=0;" vertex="1" parent="1">
          <mxGeometry x="-450" y="-50" width="20" height="50" as="geometry"/>
        </mxCell>
        <mxCell id="H1NwQvP5Uodep2kadqOq-24" value="否" style="edgeStyle=orthogonalEdgeStyle;rounded=0;orthogonalLoop=1;jettySize=auto;html=1;entryX=0;entryY=0.5;entryDx=0;entryDy=0;" edge="1" parent="1" source="H1NwQvP5Uodep2kadqOq-22" target="H1NwQvP5Uodep2kadqOq-23">
          <mxGeometry relative="1" as="geometry"/>
        </mxCell>
        <mxCell id="H1NwQvP5Uodep2kadqOq-30" value="是" style="edgeStyle=orthogonalEdgeStyle;rounded=0;orthogonalLoop=1;jettySize=auto;html=1;entryX=0.5;entryY=0;entryDx=0;entryDy=0;" edge="1" parent="1" source="H1NwQvP5Uodep2kadqOq-22" target="H1NwQvP5Uodep2kadqOq-29">
          <mxGeometry relative="1" as="geometry"/>
        </mxCell>
        <mxCell id="H1NwQvP5Uodep2kadqOq-22" value="&lt;span style=&quot;white-space: normal&quot;&gt;值班人员识别报警是否为真实报警&lt;/span&gt;" style="rhombus;whiteSpace=wrap;html=1;spacingTop=11;" vertex="1" parent="1">
          <mxGeometry x="-495" y="10" width="130" height="80" as="geometry"/>
        </mxCell>
        <mxCell id="H1NwQvP5Uodep2kadqOq-27" style="edgeStyle=orthogonalEdgeStyle;rounded=0;orthogonalLoop=1;jettySize=auto;html=1;entryX=0;entryY=0.5;entryDx=0;entryDy=0;" edge="1" parent="1" source="H1NwQvP5Uodep2kadqOq-23" target="H1NwQvP5Uodep2kadqOq-25">
          <mxGeometry relative="1" as="geometry"/>
        </mxCell>
        <mxCell id="H1NwQvP5Uodep2kadqOq-23" value="联系技术人员，排查假报警原因" style="rounded=0;whiteSpace=wrap;html=1;" vertex="1" parent="1">
          <mxGeometry x="-300" y="20" width="120" height="60" as="geometry"/>
        </mxCell>
        <mxCell id="H1NwQvP5Uodep2kadqOq-28" style="edgeStyle=orthogonalEdgeStyle;rounded=0;orthogonalLoop=1;jettySize=auto;html=1;" edge="1" parent="1" source="H1NwQvP5Uodep2kadqOq-25" target="H1NwQvP5Uodep2kadqOq-26">
          <mxGeometry relative="1" as="geometry"/>
        </mxCell>
        <mxCell id="H1NwQvP5Uodep2kadqOq-25" value="技术人员记录重要操作，并解除报警" style="rounded=0;whiteSpace=wrap;html=1;" vertex="1" parent="1">
          <mxGeometry x="-150" y="20" width="120" height="60" as="geometry"/>
        </mxCell>
        <mxCell id="H1NwQvP5Uodep2kadqOq-26" value="完成" style="rounded=1;whiteSpace=wrap;html=1;" vertex="1" parent="1">
          <mxGeometry x="10" y="20" width="120" height="60" as="geometry"/>
        </mxCell>
        <mxCell id="H1NwQvP5Uodep2kadqOq-35" style="edgeStyle=orthogonalEdgeStyle;rounded=0;orthogonalLoop=1;jettySize=auto;html=1;" edge="1" parent="1" source="H1NwQvP5Uodep2kadqOq-29" target="H1NwQvP5Uodep2kadqOq-32">
          <mxGeometry relative="1" as="geometry"/>
        </mxCell>
        <mxCell id="H1NwQvP5Uodep2kadqOq-50" style="edgeStyle=orthogonalEdgeStyle;rounded=0;orthogonalLoop=1;jettySize=auto;html=1;" edge="1" parent="1" source="H1NwQvP5Uodep2kadqOq-29" target="H1NwQvP5Uodep2kadqOq-41">
          <mxGeometry relative="1" as="geometry"/>
        </mxCell>
        <mxCell id="H1NwQvP5Uodep2kadqOq-29" value="报告，与班组长、技术人员分析原因、处理" style="rounded=0;whiteSpace=wrap;html=1;" vertex="1" parent="1">
          <mxGeometry x="-490" y="120" width="120" height="60" as="geometry"/>
        </mxCell>
        <mxCell id="H1NwQvP5Uodep2kadqOq-44" style="edgeStyle=orthogonalEdgeStyle;rounded=0;orthogonalLoop=1;jettySize=auto;html=1;" edge="1" parent="1" source="H1NwQvP5Uodep2kadqOq-32" target="H1NwQvP5Uodep2kadqOq-36">
          <mxGeometry relative="1" as="geometry"/>
        </mxCell>
        <mxCell id="H1NwQvP5Uodep2kadqOq-32" value="在操作记录，报警异常处理表中记录" style="rounded=0;whiteSpace=wrap;html=1;" vertex="1" parent="1">
          <mxGeometry x="-300" y="120" width="120" height="60" as="geometry"/>
        </mxCell>
        <mxCell id="H1NwQvP5Uodep2kadqOq-34" style="edgeStyle=orthogonalEdgeStyle;rounded=0;orthogonalLoop=1;jettySize=auto;html=1;entryX=1;entryY=0.5;entryDx=0;entryDy=0;" edge="1" parent="1" source="H1NwQvP5Uodep2kadqOq-33" target="H1NwQvP5Uodep2kadqOq-32">
          <mxGeometry relative="1" as="geometry"/>
        </mxCell>
        <mxCell id="H1NwQvP5Uodep2kadqOq-33" value="班长审查技术人员审核" style="rounded=0;whiteSpace=wrap;html=1;" vertex="1" parent="1">
          <mxGeometry x="10" y="120" width="120" height="60" as="geometry"/>
        </mxCell>
        <mxCell id="H1NwQvP5Uodep2kadqOq-45" style="edgeStyle=orthogonalEdgeStyle;rounded=0;orthogonalLoop=1;jettySize=auto;html=1;" edge="1" parent="1" source="H1NwQvP5Uodep2kadqOq-36" target="H1NwQvP5Uodep2kadqOq-38">
          <mxGeometry relative="1" as="geometry"/>
        </mxCell>
        <mxCell id="H1NwQvP5Uodep2kadqOq-46" style="edgeStyle=orthogonalEdgeStyle;rounded=0;orthogonalLoop=1;jettySize=auto;html=1;entryX=0;entryY=0.5;entryDx=0;entryDy=0;" edge="1" parent="1" source="H1NwQvP5Uodep2kadqOq-36" target="H1NwQvP5Uodep2kadqOq-37">
          <mxGeometry relative="1" as="geometry"/>
        </mxCell>
        <mxCell id="H1NwQvP5Uodep2kadqOq-36" value="技术人员深层次原因分析，制定措施" style="rounded=0;whiteSpace=wrap;html=1;" vertex="1" parent="1">
          <mxGeometry x="-300" y="250" width="120" height="60" as="geometry"/>
        </mxCell>
        <mxCell id="H1NwQvP5Uodep2kadqOq-47" style="edgeStyle=orthogonalEdgeStyle;rounded=0;orthogonalLoop=1;jettySize=auto;html=1;" edge="1" parent="1" source="H1NwQvP5Uodep2kadqOq-37" target="H1NwQvP5Uodep2kadqOq-39">
          <mxGeometry relative="1" as="geometry"/>
        </mxCell>
        <mxCell id="H1NwQvP5Uodep2kadqOq-37" value="对安全运行影响较大的，及时上报公司相关部门，专项分析" style="rounded=0;whiteSpace=wrap;html=1;" vertex="1" parent="1">
          <mxGeometry x="10" y="250" width="120" height="60" as="geometry"/>
        </mxCell>
        <mxCell id="H1NwQvP5Uodep2kadqOq-49" style="edgeStyle=orthogonalEdgeStyle;rounded=0;orthogonalLoop=1;jettySize=auto;html=1;" edge="1" parent="1" source="H1NwQvP5Uodep2kadqOq-38" target="H1NwQvP5Uodep2kadqOq-40">
          <mxGeometry relative="1" as="geometry"/>
        </mxCell>
        <mxCell id="H1NwQvP5Uodep2kadqOq-38" value="培训" style="rounded=0;whiteSpace=wrap;html=1;" vertex="1" parent="1">
          <mxGeometry x="-300" y="330" width="120" height="60" as="geometry"/>
        </mxCell>
        <mxCell id="H1NwQvP5Uodep2kadqOq-48" style="edgeStyle=orthogonalEdgeStyle;rounded=0;orthogonalLoop=1;jettySize=auto;html=1;entryX=1;entryY=0.5;entryDx=0;entryDy=0;" edge="1" parent="1" source="H1NwQvP5Uodep2kadqOq-39" target="H1NwQvP5Uodep2kadqOq-38">
          <mxGeometry relative="1" as="geometry"/>
        </mxCell>
        <mxCell id="H1NwQvP5Uodep2kadqOq-39" value="制定措施" style="rounded=0;whiteSpace=wrap;html=1;" vertex="1" parent="1">
          <mxGeometry x="10" y="330" width="120" height="60" as="geometry"/>
        </mxCell>
        <mxCell id="H1NwQvP5Uodep2kadqOq-40" value="完成" style="rounded=1;whiteSpace=wrap;html=1;" vertex="1" parent="1">
          <mxGeometry x="-300" y="410" width="120" height="60" as="geometry"/>
        </mxCell>
        <mxCell id="H1NwQvP5Uodep2kadqOq-53" style="edgeStyle=orthogonalEdgeStyle;rounded=0;orthogonalLoop=1;jettySize=auto;html=1;" edge="1" parent="1" source="H1NwQvP5Uodep2kadqOq-42" target="H1NwQvP5Uodep2kadqOq-43">
          <mxGeometry relative="1" as="geometry"/>
        </mxCell>
        <mxCell id="H1NwQvP5Uodep2kadqOq-42" value="生产部组织月报分析，形成报告" style="rounded=0;whiteSpace=wrap;html=1;" vertex="1" parent="1">
          <mxGeometry x="-490" y="330" width="120" height="60" as="geometry"/>
        </mxCell>
        <mxCell id="H1NwQvP5Uodep2kadqOq-54" style="edgeStyle=orthogonalEdgeStyle;rounded=0;orthogonalLoop=1;jettySize=auto;html=1;" edge="1" parent="1" source="H1NwQvP5Uodep2kadqOq-43" target="H1NwQvP5Uodep2kadqOq-40">
          <mxGeometry relative="1" as="geometry"/>
        </mxCell>
        <mxCell id="H1NwQvP5Uodep2kadqOq-43" value="存档" style="rounded=0;whiteSpace=wrap;html=1;" vertex="1" parent="1">
          <mxGeometry x="-490" y="410" width="120" height="60" as="geometry"/>
        </mxCell>
        <mxCell id="H1NwQvP5Uodep2kadqOq-56" value="" style="group" vertex="1" connectable="0" parent="1">
          <mxGeometry x="-490" y="170" width="120" height="140" as="geometry"/>
        </mxCell>
        <mxCell id="H1NwQvP5Uodep2kadqOq-41" value="生产运行处" style="rounded=0;whiteSpace=wrap;html=1;" vertex="1" parent="H1NwQvP5Uodep2kadqOq-56">
          <mxGeometry y="80" width="120" height="60" as="geometry"/>
        </mxCell>
        <mxCell id="H1NwQvP5Uodep2kadqOq-51" value="一&lt;br&gt;级&lt;br&gt;报&lt;br&gt;警&lt;br&gt;" style="text;html=1;strokeColor=none;fillColor=none;align=center;verticalAlign=middle;whiteSpace=wrap;rounded=0;" vertex="1" parent="H1NwQvP5Uodep2kadqOq-56">
          <mxGeometry x="40" height="80" as="geometry"/>
        </mxCell>
        <mxCell id="H1NwQvP5Uodep2kadqOq-57" value="上&lt;br&gt;报" style="text;html=1;strokeColor=none;fillColor=none;align=center;verticalAlign=middle;whiteSpace=wrap;rounded=0;" vertex="1" parent="H1NwQvP5Uodep2kadqOq-56">
          <mxGeometry x="56" y="30" width="40" height="20" as="geometry"/>
        </mxCell>
        <mxCell id="H1NwQvP5Uodep2kadqOq-52" style="edgeStyle=orthogonalEdgeStyle;rounded=0;orthogonalLoop=1;jettySize=auto;html=1;" edge="1" parent="1" source="H1NwQvP5Uodep2kadqOq-41" target="H1NwQvP5Uodep2kadqOq-42">
          <mxGeometry relative="1" as="geometry"/>
        </mxCell>
      </root>
    </mxGraphModel>
  </diagram>
</mxfile>
